<mxfile host="app.diagrams.net" modified="2022-12-01T11:29:24.775Z" agent="5.0 (Windows NT 10.0; Win64; x64) AppleWebKit/537.36 (KHTML, like Gecko) Chrome/107.0.0.0 Safari/537.36" etag="qigi87vQami0QQmuwyI6" version="20.4.1" type="github">
  <diagram id="trGSSq_CuZ-VLE-v4374" name="Page-1">
    <mxGraphModel dx="1038" dy="1679" grid="1" gridSize="10" guides="1" tooltips="1" connect="1" arrows="1" fold="1" page="1" pageScale="1" pageWidth="850" pageHeight="1100" math="0" shadow="0">
      <root>
        <mxCell id="0" />
        <mxCell id="1" parent="0" />
        <mxCell id="8jfeb4-xBnSfNOuZoPy4-1" value="Private&lt;br&gt;Confluen Cloud&lt;br&gt;Kafka cluster" style="rounded=0;whiteSpace=wrap;html=1;dashed=1;fillColor=#f5f5f5;fontColor=#333333;strokeColor=#666666;labelPosition=center;verticalLabelPosition=top;align=center;verticalAlign=bottom;" vertex="1" parent="1">
          <mxGeometry x="760" y="-571.5" width="270" height="330" as="geometry" />
        </mxCell>
        <mxCell id="8jfeb4-xBnSfNOuZoPy4-2" style="edgeStyle=orthogonalEdgeStyle;rounded=0;orthogonalLoop=1;jettySize=auto;html=1;entryX=0;entryY=0.5;entryDx=0;entryDy=0;" edge="1" parent="1" source="8jfeb4-xBnSfNOuZoPy4-3" target="8jfeb4-xBnSfNOuZoPy4-65">
          <mxGeometry relative="1" as="geometry">
            <Array as="points">
              <mxPoint x="490" y="-160" />
            </Array>
          </mxGeometry>
        </mxCell>
        <mxCell id="8jfeb4-xBnSfNOuZoPy4-3" value="Public&lt;br&gt;Confluen Cloud&lt;br&gt;Kafka cluster" style="rounded=0;whiteSpace=wrap;html=1;dashed=1;fillColor=#f5f5f5;fontColor=#333333;strokeColor=#666666;labelPosition=center;verticalLabelPosition=top;align=center;verticalAlign=bottom;" vertex="1" parent="1">
          <mxGeometry x="380" y="-564.5" width="270" height="330" as="geometry" />
        </mxCell>
        <mxCell id="8jfeb4-xBnSfNOuZoPy4-4" style="edgeStyle=orthogonalEdgeStyle;rounded=0;orthogonalLoop=1;jettySize=auto;html=1;entryX=0;entryY=0.25;entryDx=0;entryDy=0;" edge="1" parent="1" source="8jfeb4-xBnSfNOuZoPy4-5" target="8jfeb4-xBnSfNOuZoPy4-9">
          <mxGeometry relative="1" as="geometry" />
        </mxCell>
        <mxCell id="8jfeb4-xBnSfNOuZoPy4-5" value="TAPS table-based topic" style="shape=image;verticalLabelPosition=bottom;labelBackgroundColor=#ffffff;verticalAlign=top;aspect=fixed;imageAspect=0;image=data:image/svg+xml,PHN2ZyB4bWxuczpjYz0iaHR0cDovL2NyZWF0aXZlY29tbW9ucy5vcmcvbnMjIiB4bWxuczpkYz0iaHR0cDovL3B1cmwub3JnL2RjL2VsZW1lbnRzLzEuMS8iIHhtbG5zOmlua3NjYXBlPSJodHRwOi8vd3d3Lmlua3NjYXBlLm9yZy9uYW1lc3BhY2VzL2lua3NjYXBlIiB4bWxuczpyZGY9Imh0dHA6Ly93d3cudzMub3JnLzE5OTkvMDIvMjItcmRmLXN5bnRheC1ucyMiIHhtbG5zOnNvZGlwb2RpPSJodHRwOi8vc29kaXBvZGkuc291cmNlZm9yZ2UubmV0L0RURC9zb2RpcG9kaS0wLmR0ZCIgeG1sbnM6c3ZnPSJodHRwOi8vd3d3LnczLm9yZy8yMDAwL3N2ZyIgeG1sbnM9Imh0dHA6Ly93d3cudzMub3JnLzIwMDAvc3ZnIiB4bWxuczp4bGluaz0iaHR0cDovL3d3dy53My5vcmcvMTk5OS94bGluayIgdmVyc2lvbj0iMS4xIiBpZD0ic3ZnODM4NzMiIGlua3NjYXBlOnZlcnNpb249IjAuOTIuMyAoMjQwNTU0NiwgMjAxOC0wMy0xMSkiIHNvZGlwb2RpOmRvY25hbWU9InF1ZXVlLnN2ZyIgeD0iMHB4IiB5PSIwcHgiIHZpZXdCb3g9IjAgMCAxMDguNTMgNTIuODQiIHN0eWxlPSJlbmFibGUtYmFja2dyb3VuZDpuZXcgMCAwIDEwOC41MyA1Mi44NDsiIHhtbDpzcGFjZT0icHJlc2VydmUiPiYjeGE7PHNvZGlwb2RpOm5hbWVkdmlldyBib3JkZXJjb2xvcj0iIzY2NjY2NiIgYm9yZGVyb3BhY2l0eT0iMSIgZml0LW1hcmdpbi1ib3R0b209IjAiIGZpdC1tYXJnaW4tbGVmdD0iMCIgZml0LW1hcmdpbi1yaWdodD0iMCIgZml0LW1hcmdpbi10b3A9IjAiIGdyaWR0b2xlcmFuY2U9IjEwIiBndWlkZXRvbGVyYW5jZT0iMTAiIGlkPSJuYW1lZHZpZXc4Mzg3NSIgaW5rc2NhcGU6Y3VycmVudC1sYXllcj0ic3ZnODM4NzMiIGlua3NjYXBlOmN4PSI4Ny44NDUyMjIiIGlua3NjYXBlOmN5PSItNy44NDQ4OTU4IiBpbmtzY2FwZTpwYWdlb3BhY2l0eT0iMCIgaW5rc2NhcGU6cGFnZXNoYWRvdz0iMiIgaW5rc2NhcGU6d2luZG93LWhlaWdodD0iMTAxNyIgaW5rc2NhcGU6d2luZG93LW1heGltaXplZD0iMSIgaW5rc2NhcGU6d2luZG93LXdpZHRoPSIxOTIwIiBpbmtzY2FwZTp3aW5kb3cteD0iLTgiIGlua3NjYXBlOndpbmRvdy15PSItOCIgaW5rc2NhcGU6em9vbT0iMy41MjA3MTQyIiBvYmplY3R0b2xlcmFuY2U9IjEwIiBwYWdlY29sb3I9IiNmZmZmZmYiIHNob3dncmlkPSJmYWxzZSI+JiN4YTsJPC9zb2RpcG9kaTpuYW1lZHZpZXc+JiN4YTs8ZyBpZD0iZzgzODcxIiB0cmFuc2Zvcm09InRyYW5zbGF0ZSgwLC00Ljc1MjM3MTJlLTUpIj4mI3hhOwk8dGl0bGUgaWQ9InRpdGxlODM4NjQiPlBhZ2UtMTwvdGl0bGU+JiN4YTsJPGcgaWQ9InNoYXBlNDUwMy0xIj4mI3hhOwkJPHRpdGxlIGlkPSJ0aXRsZTgzODY2Ij5RdWV1ZTwvdGl0bGU+JiN4YTsJCTxwYXRoIGlkPSJwYXRoODM4NjgiIGlua3NjYXBlOmNvbm5lY3Rvci1jdXJ2YXR1cmU9IjAiIHN0eWxlPSJmaWxsOiMzRjU3NjU7IiBkPSJNMTA2LjI1LDBDMi4yOSwwLDIuMjksMCwyLjI5LDAgICAgQzEuMTUsMCwwLDEuMTUsMCwyLjI4YzAsNDguMjksMCw0OC4yOSwwLDQ4LjI5YzAsMS4xNCwxLjE1LDIuMjcsMi4yOSwyLjI3YzEwMy45NiwwLDEwMy45NiwwLDEwMy45NiwwICAgIGMxLjMzLDAsMi4yOC0xLjEzLDIuMjgtMi4yN2MwLTQ4LjI5LDAtNDguMjksMC00OC4yOUMxMDguNTMsMS4xNSwxMDcuNTgsMCwxMDYuMjUsMHogTTIyLjY2LDQ2LjE5Yy0xNS44LDAtMTUuOCwwLTE1LjgsMCAgICBjMC0zOS4zNCwwLTM5LjM0LDAtMzkuMzRjMTUuOCwwLDE1LjgsMCwxNS44LDBWNDYuMTl6IE00Mi40Niw0Ni4xOWMtMTUuOTksMC0xNS45OSwwLTE1Ljk5LDBjMC0zOS4zNCwwLTM5LjM0LDAtMzkuMzQgICAgYzE1Ljk5LDAsMTUuOTksMCwxNS45OSwwVjQ2LjE5eiBNNjIuNDYsNDYuMTljLTE2LjE5LDAtMTYuMTksMC0xNi4xOSwwYzAtMzkuMzQsMC0zOS4zNCwwLTM5LjM0YzE2LjE5LDAsMTYuMTksMCwxNi4xOSwwVjQ2LjE5eiAgICAgTTgyLjQ1LDQ2LjE5Yy0xNi4xOSwwLTE2LjE5LDAtMTYuMTksMGMwLTM5LjM0LDAtMzkuMzQsMC0zOS4zNGMxNi4xOSwwLDE2LjE5LDAsMTYuMTksMFY0Ni4xOXogTTEwMi4wNiw0Ni4xOSAgICBjLTE1LjgsMC0xNS44LDAtMTUuOCwwYzAtMzkuMzQsMC0zOS4zNCwwLTM5LjM0YzE1LjgsMCwxNS44LDAsMTUuOCwwVjQ2LjE5eiIvPiYjeGE7CTwvZz4mI3hhOzwvZz4mI3hhOzwvc3ZnPg==;imageBackground=#663300;fillColor=#663300;" vertex="1" parent="1">
          <mxGeometry x="850" y="-518" width="109" height="53" as="geometry" />
        </mxCell>
        <mxCell id="8jfeb4-xBnSfNOuZoPy4-7" style="edgeStyle=orthogonalEdgeStyle;rounded=0;orthogonalLoop=1;jettySize=auto;html=1;entryX=-0.011;entryY=0.479;entryDx=0;entryDy=0;entryPerimeter=0;" edge="1" parent="1" source="8jfeb4-xBnSfNOuZoPy4-9" target="8jfeb4-xBnSfNOuZoPy4-35">
          <mxGeometry relative="1" as="geometry" />
        </mxCell>
        <mxCell id="8jfeb4-xBnSfNOuZoPy4-8" style="edgeStyle=orthogonalEdgeStyle;rounded=0;orthogonalLoop=1;jettySize=auto;html=1;entryX=-0.011;entryY=0.675;entryDx=0;entryDy=0;entryPerimeter=0;" edge="1" parent="1" source="8jfeb4-xBnSfNOuZoPy4-9" target="8jfeb4-xBnSfNOuZoPy4-39">
          <mxGeometry relative="1" as="geometry" />
        </mxCell>
        <mxCell id="8jfeb4-xBnSfNOuZoPy4-9" value="PostGreSql Sink &#xa;Connector" style="shape=image;verticalLabelPosition=bottom;labelBackgroundColor=default;verticalAlign=top;aspect=fixed;imageAspect=0;image=data:image/png,iVBORw0KGgoAAAANSUhEUgAAAOEAAADhCAMAAAAJbSJIAAAAh1BMVEX///8AAADz8/MfHx/j4+O9vb3s7Oz29valpaX6+vrCwsLLy8vn5+fU1NTY2Nh3d3cvLy9NTU2Tk5Otra1hYWE8PDwUFBSnp6e+vr6Xl5eHh4dVVVWNjY20tLTc3NzIyMhra2tFRUU2NjYmJiZqamoNDQ18fHxdXV2WlpYaGhpUVFRJSUlBQUEtgZoMAAANCElEQVR4nO1cZ3uzOgwFmgHZOw2B7NH1/3/fBSzZ8iAhTXLbt4/Op2LA+Fiylp16HoPBYDAYDAaDwWAwGAwGg8FgMBgMBoPBYDAYDAaDwWAwGAwGg8FgMBgMBoPB+NfRWKfjdN346WE8C83FzhfYhc2fHswzsPApFj89nIcjmPo6psFPD+mxaPg2/tRyjI4OhrOfHtUjcXAQ9P3NTw/rcWgjp23aW637kmL3pwf2MHwCo7q4bHzB9edNvURhgW9bqKge9/th2hFX86Kz2nc707ECQivZ8mG1VEAg3vnuoEbwzQ9xqc35vXgTvYWqJfqOV7yPIeqRPxHXL49kuBRd0yaY0PMt3dzF8OQ/k6HDcvZE2/GWbu5hSPzx8xiGtAlG65e94sI9DKU1n6HePIHhiDZ1/meGLfFuHHkdGMcTGE5oU/t/ZhgKgqTlGZYmIk39UkvT6HZ7bpd3D8OkeJVGwg9lCIYzUS0136G5GdIJrJaTI9y5h2Hf0piHMgTD6afY0HyHFt3jj32Cr7bZzT0Mh8WrVDceytDD3BCk2J7B9ZQ+FHz5OjZGL/cwnD6ZYUuOOosLk528apFnOr6FaaT1cg/DwZMZyjhUx5I8Ebge0GR8F8P9sxlGrvFrxnXgfKJPO7mH4cuzGbp00O+Q+4mToK7H9zCcPZ2h19gbY99T56TCxlEvCHoj9RR56B6Gx+czNMWke0Kk9Al11KbMddbqoV/P0AveUI77hRG1gPsglgUdzIG8/+sZesjEKrJhiENWply4qumXr0P6IYthKsauxeYTi7XJMBKgGwSd13E47zrCWsGnabUohtCZsu+dVklfF1HCUET+/pi2YQingjeDIaYnMnrvSAM1zAde3/QzbLIhpvWW4JO2crQdDNHU7YBhI3H0ddAjkG8wXNO2tW826gxRs4d4O/YJdh3cJ2lg9iaxtBlGECjvL/dVYT+phOHcN1QmQ/2yDDEGQuNkOdzevIzhxGYIdm0mKFhbEL2wIsMaPHg0i4igkZoHQZVTz2oMIbidgeKsfAuT6gxxzQsX3bS3ICaVGM5pYHbSLCKM74W2vcCTqoUyHMJcBdotF2yGHyZDrMPBmLalfV1k+GpOzLIn79XO0EaKVSButcw0hrgxgIZWBgiDxbrbTTc6wyiCV4NOjobBED/V1b/sH+NWu1s/kb4uMIwmvg3IFhtkPNKsoJ3x5y6GuNmKk5Ti0xjGBkvKMFM88TcdkmTY0t+VSQJa9kjts5QzDGa+C7l8mietKSnULlARHjHQkiESkkYIut+Sh6U1vMYQVzASAhG+k2Ukaw+lDF3bo2JIwZvV9hnHn+qK1HaQYQOLItL0omfUBoBSvMywhStY7i+ACdOMYez6AIG+PeraKy2FZntgMKjASn9jg3GBbiWGKZg/WWeEj+iJAU5DGUO1Bidpo+kFtdDc0y9FzfUdASLdoT1+T6ruZYaAjWxuk7cUPi4ylEWaTzXetbkwt73Qt6GXFDWGG3JDdKbVA9SoqjAkBlusuZ3RV3KRIVYOT7QxImstC5bWnlFLLGAEBhrDGbEqoiXUn0bdrSRDJbLQOVvjSwzR8MVG+1Z2/w511JrG2u+bcS4wBBUn5XLRMDYeP1VhCAquZGaX/68yhD6GZnsTmRCP11VL9mSngcBwdTQZiQazfn6owrD7acy/4DIx+roUeaNq2fvZqJW0IOVF3XncH4171tOqq0bXfHHoHNWuCsM2jg+XvLA0L0Zf/QsMX8W9peOW79auUgRIDNb9AG+c7PGrqb3CUK6iSHvNEMiRMOwk50lCxJKU04CJMVf1dYYoHlQtSLT0QwEY2V1jiNqM63rmUAh0BznDsT8ZjyfErm0MjSKA2bNW6HWGGCS1tRvaxGOCfJ0hOk4QApjglDwqQ9VmrsVrLwqyuFmG0EMiXwPgXE2dr8DQVC00UGr5dqTDvc4Qo0AhBYxTVYTUlBstGYvPQ7G6vIkUzFYbigawGJVPKxCGqBqgWjL/TSBfJOHDdYao0OAyMJXrg5Osq74yhlkK4q/afqclO4PIwlWyggBz6rh1lSHGEaBaKkE5L+YLLVWrwBDTSxEIqjxhOQoXfRp95Qy7nr9//8jEgx3Bt10n2GCiD7Qt6pUfk9YYothggZdHulUY4kIWV3ZwRRm+ev46nGU+AjsCDTDdcY6tuEVMYBvPMB4dDl9naKhWoAVhBSrFpWCrwKfBYoqtvpaS4efEG7S8fVutQ1hsDnOC1TEp3tWWdnqwFFtniDYMXEakvZxP3PgGhui5JtrsSWy6kmE7E6KXL06llfCQ7RCxeIHSspKLlvGCwRBVC822PqyQ1EsrMDTWdfud9tVHs597hLm/XIQfNBlFI2CKRJ5S8s/FGB07iEa2kFE6vgzUrtx68JVh+oV2OhjJ7Lrf8TSGgc3w6B/f9y9KgURnA+xdVQbPPWkUCw6dZDJZUEuBJmGgOwytwDkLo7lNUHe7ldALk34yd63hRqNTu+msp1cbZ32FzgjZAPqXFxrXrF2EbLhCod8H5V/QH3s1V3FRYBeu16rKUTmi+1kQBfxYjNfz5EKZ5lW8Iisf/8hJ8H4poaFxLRcwupLNz436JpQp5SYLIOgJBnLQC6VodtWej+JR+vvWp1uKojbVlhX4LX0FzoBp9m8lNwBmv+53U6nNT3n0Dphbzf9BAEAdhrYBMLvN9j8fwcngF5MQYG5QzgGhIqlTbY0eHvRbiVtQ/xoOt0nZ3YCUugcjLSV2MWyZDM8GwduOwT8GRax7qezSEGHVzIzgxpa87NMLmNPEaT11afX/gqsMoSRiJRoQumuWBnQSHSLUSqBmJ0Ki///Hb99miNVh4i0wrENtFiKV9YCRRj/vYtXuuX1Iw7lea1aWHXUcHXS6rS5pLQzmyXqKoIShPH8qP4uh3gc2iFBfxsFCpDKvhiU+i+VoFqPRKIm8VaHQO8h1VknWmoVN8yJ12hCSjVj45TMNopoxlDCSYp67iaiPbLO+k7KTRGUMZbUHpCgDc/1EDynp5J7xCNkvFsFzvMH9gkMkc04x74X1iiN53Fo6HHUYkkiIZgc5ca26URJzgH08WofUPRnZfIatVii3aPb6m3SLo15DBX6lX8ayTyFzEhG3FEMVKuJUHxwdkKPbORoGQ2cpie5omyFJ23dCToXIj51O3jwrNFcMCab2oH2MJ0DSU5hYoTdYQoAC0OS6DA0O70bWYFd/fLrJJcI1584IuI4kDYFVRBgeWl0Yf0AYhu2WENtZcYmzzqNiFEJxDnIKzvB+N3krwpaSdWhv8RqVm431gL9Rd4sl7nTxQoTiGIaQ9FwxHKu5bUuG+0j26Mu3YDIP+GhDEoQZKP4syuNuW+rawzYoWlKk25TbvMHp/0IpIQ+2bJaSIUxR8cRaMhQGuS0ZFjYAaiyF0cpNdEo+mKUG+0Mqbzv9obUA5LQS6Jv7M+2kYpF/vLu6Lu7gVtFYDnuArPARKUOwXit8tJCWDDbyi1x3+0RaHWlWShm6f4xgJ3+qwDWY63fEqnDtfgyoOgiVrWEzWKahxhAqIz0cQSHM2W4gUHzcg+TNStFKGUoFjHuR12hJZ2AneZ00iePEznBFguky0YXgMWYXU7m6iSHZeQHssNs382NlDFGEMxy4XJWOEbshPJtZI5Z9t7Wr3k0MbRORy7D4w9qLKGOI6a8SAdan1/bDbojxbFSD0IMmcMJ+viPDYu0Ox6FCrvP7m2QINQyarkPgdDGIpQA1UA7xiAMc0K5rciarMyyCM20DLEcRKWOuWxxyv8Rwb6vkrTvc4L6kAxHGOfcLSyrcQpkLt1mdYU0bHJIpTMcX6XUpGTrEIthom/+YO1RmCCERGk0hwtzgCgcBVnYg57g6QyEA0IIQ57Huqw7OklcxCsdPe319/knbDb90BgNcbCx2B0ppRW65KZ4RmtG9kaGIhAorKCa+JbsdNCXZIloVTtROOH0yCADmvNUZqgBb7jAJgYoBDtLeWmiyYHADQxjLKa3HZFBQOdvE9D9CgDmYbo3zQSJW0c77QUr3VZ2hHReh2htpRHArQ3NbG1aCs1HmWbrHhqCa5j5gXivb0hxGdiJNmv7DvxWhXZGhvneJ/dZo4wa/hQ36cV0wnKTQhEdYXm9hqNVcd8T7RyovOaPPnRGG2/zv3GUWufLUZkjjGhUuNlT9UlX18FfaulXBZFLOulxTFX5IpKGZbrYvs+15YWxc1kYf++PXeaHUpJYDz6o1MuR/N/NG1K+8UcUg9c1wt/uajLUR1cLJcDc96/9d7nWU9OOxYW1w2+JTjEDqvXmM89+FOt07OJzUTyGq/FLqX4H7EM7N2/S/GY4axW2G9PfD3kH8O4sQYCrqn1JRgYCKsf+HjAxBMD7kp6leNunf5Af4Y//Uk8FgMBgMBoPBYDAYDAaDwWAwGAwGg8FgMBgMBoPBYDAYDAaDwWAwGAwGg8FgMBgMBoPB+NfwH9WSn+7R9x8tAAAAAElFTkSuQmCC;" vertex="1" parent="1">
          <mxGeometry x="1040" y="-447" width="106" height="106" as="geometry" />
        </mxCell>
        <mxCell id="8jfeb4-xBnSfNOuZoPy4-12" value="" style="group" vertex="1" connectable="0" parent="1">
          <mxGeometry x="50" y="-764.5" width="250" height="154.5" as="geometry" />
        </mxCell>
        <mxCell id="8jfeb4-xBnSfNOuZoPy4-13" value="" style="group" vertex="1" connectable="0" parent="8jfeb4-xBnSfNOuZoPy4-12">
          <mxGeometry y="11.20125" width="249.99999999999997" height="154.5" as="geometry" />
        </mxCell>
        <mxCell id="8jfeb4-xBnSfNOuZoPy4-14" value="" style="rounded=0;whiteSpace=wrap;html=1;dashed=1;fillColor=#f5f5f5;fontColor=#333333;strokeColor=#666666;" vertex="1" parent="8jfeb4-xBnSfNOuZoPy4-13">
          <mxGeometry width="215.51724137931032" height="108.14999999999999" as="geometry" />
        </mxCell>
        <mxCell id="8jfeb4-xBnSfNOuZoPy4-17" value="" style="rounded=0;whiteSpace=wrap;html=1;dashed=1;fillColor=#B9E0A5;" vertex="1" parent="8jfeb4-xBnSfNOuZoPy4-13">
          <mxGeometry x="34.48275862068965" y="58.32375" width="25.86206896551724" height="22.4025" as="geometry" />
        </mxCell>
        <mxCell id="8jfeb4-xBnSfNOuZoPy4-20" value="PIMCO output data topics" style="text;html=1;strokeColor=none;fillColor=none;align=center;verticalAlign=middle;whiteSpace=wrap;rounded=0;dashed=1;" vertex="1" parent="8jfeb4-xBnSfNOuZoPy4-13">
          <mxGeometry x="68.96620689655171" y="58.32375" width="120.68965517241378" height="23.174999999999997" as="geometry" />
        </mxCell>
        <mxCell id="8jfeb4-xBnSfNOuZoPy4-21" value="" style="rounded=0;whiteSpace=wrap;html=1;dashed=1;fillColor=#663300;" vertex="1" parent="8jfeb4-xBnSfNOuZoPy4-13">
          <mxGeometry x="34.48275862068965" y="7.725" width="25.86206896551724" height="22.4025" as="geometry" />
        </mxCell>
        <mxCell id="8jfeb4-xBnSfNOuZoPy4-22" value="PIMCO legacy data schemas" style="text;html=1;strokeColor=none;fillColor=none;align=center;verticalAlign=middle;whiteSpace=wrap;rounded=0;dashed=1;" vertex="1" parent="8jfeb4-xBnSfNOuZoPy4-13">
          <mxGeometry x="68.9655172413793" y="8.11125" width="120.68965517241378" height="23.174999999999997" as="geometry" />
        </mxCell>
        <mxCell id="8jfeb4-xBnSfNOuZoPy4-23" style="edgeStyle=orthogonalEdgeStyle;rounded=0;orthogonalLoop=1;jettySize=auto;html=1;" edge="1" parent="1" source="8jfeb4-xBnSfNOuZoPy4-24" target="8jfeb4-xBnSfNOuZoPy4-28">
          <mxGeometry relative="1" as="geometry" />
        </mxCell>
        <mxCell id="8jfeb4-xBnSfNOuZoPy4-24" value="TAPS" style="shape=datastore;whiteSpace=wrap;html=1;fillColor=#663300;strokeColor=#b85450;" vertex="1" parent="1">
          <mxGeometry x="50" y="-444" width="120" height="100" as="geometry" />
        </mxCell>
        <mxCell id="8jfeb4-xBnSfNOuZoPy4-25" style="edgeStyle=orthogonalEdgeStyle;rounded=0;orthogonalLoop=1;jettySize=auto;html=1;entryX=0;entryY=0.5;entryDx=0;entryDy=0;" edge="1" parent="1" source="8jfeb4-xBnSfNOuZoPy4-28" target="8jfeb4-xBnSfNOuZoPy4-57">
          <mxGeometry relative="1" as="geometry" />
        </mxCell>
        <mxCell id="8jfeb4-xBnSfNOuZoPy4-26" style="edgeStyle=orthogonalEdgeStyle;rounded=0;orthogonalLoop=1;jettySize=auto;html=1;entryX=0;entryY=0.5;entryDx=0;entryDy=0;" edge="1" parent="1" source="8jfeb4-xBnSfNOuZoPy4-28" target="8jfeb4-xBnSfNOuZoPy4-55">
          <mxGeometry relative="1" as="geometry" />
        </mxCell>
        <mxCell id="8jfeb4-xBnSfNOuZoPy4-27" style="edgeStyle=orthogonalEdgeStyle;rounded=0;orthogonalLoop=1;jettySize=auto;html=1;entryX=0;entryY=0.5;entryDx=0;entryDy=0;" edge="1" parent="1" source="8jfeb4-xBnSfNOuZoPy4-28" target="8jfeb4-xBnSfNOuZoPy4-59">
          <mxGeometry relative="1" as="geometry" />
        </mxCell>
        <mxCell id="8jfeb4-xBnSfNOuZoPy4-28" value="Niagara" style="shape=image;verticalLabelPosition=bottom;labelBackgroundColor=default;verticalAlign=top;aspect=fixed;imageAspect=0;image=data:image/webp,UklGRo45AABXRUJQVlA4TII5AAAv/8F/EDXpf7bt2p02ut/nW8sbIDgl3e/3+337U37u//9H2Wut77mf536f912d3a0MMpYnYpjIZpYcZCGXcShK0BpiNQhlEINC5GzkWi5CFHkit7VSC1mr1HUql9AMMswzjeUgq3URCtYqsgBZEfEgJ7IQcjaDUHdYDkL0GwZZaTaIIstBftE3rcdBrnGZCNM1leUgMrVmkJ16OhZYdMeQjZYyTDZu5UEIXMMw5BOKyD5ykMW4Bn1KLbCWUqtjGbQaIws51IMsQEtgpQtEJp5slzrZOISxGCCIpAhZyFp1LBNZ1NkImDCQtk38a/5XChgAkFKzz/fOyrZt66/3su2abdtbtm27u9qt/dmuZds2PdG2LUeSJElKttfSzszeux8AEYE+EQGg2dcd/dcdHYe7xSKR1HUtckOTuq7lr/onJjc0qeta5IYmdV2L3NCkrmuRG5rUdS1/zT8sNzSp61q8O3KAA0rAHXwDSSAXUEDTFRWFPCEl5EcCzyJUQ7DevSh6s4nAEgSDPnABLpPdHJelbjZrbAVgMdGTsQcrEQ3QBzng2FobTpJbHigFdoA+9Tv3YP7YwFewZq2EFG5gFXwBDKlbN4tbCAZ7VkrKt6og4GZxpl598SNCHju2rZTwtTj2Ql6XT6UqQkvUG6hR8ubocSinRt3yYeMcJ+oEFpyCj4DaO8fDM+MtEbvwO1Cp5A2QAWMqc97hPIQdY6pZCyaAUKpy3mFRKo5l9awFS0AuFTnvsAgdx64O1oIdoO6JYp6oGFnHhh7Wgi0gk0o0b0KOBV2sBfPzJJAq9AkRRIP62EDU/8nhUoEiQqpOQSAkpgIluKZXEACPVJ/54n+IZhbsAo5UnohQpJu1e6by5h0mMtHPWmCcqpt3+OUPd4wQYMEgoEnNzTtMyJ0Ca4G9t2Fvc8ujB70kWNANqFJvcw+AOQ3WAtNUGwYlRFhQkGrTHZwoWMQc86K+H3qAgkUxLxQxlYbBfeziBPZBQmJmHxdDqfoABpiAxALs4hlyP5WGQS0OOAOhAmNKNQMmEJ6G2zoJ1V4m5mUAMg8FLAKtcDUDXbCMehziOPrUYVNf8w6LoQfy4BqIGIECpgB/+JqBAJhBPQx1/LsVuHpZ+1TTvMOqxVI8fwLo6oeeUQSEZWoGokOwz0L6gU4QB+48JiO1M+8QAEAz1FuBvJKSJ5fAWa4P4KbkSWgtUA5eAY2iYN4i5iGmARB8B3XgSNW+BfBXtg+hTtV+Ccfh1qF+JjL61KFTHQAfuL7nEJW7loCebB+JDFXulgIHFcGLw1IPll8WhIExxXsWL95Eto+ajinFeyXB6C89HCBSASa23R4cqt+xLETK9wEi1e+Ubg2KB0/09QChbbU8La8rJLgi3we4ouV1ijRQP65EHD5diVjBjYqZul5WSmQh3xsw09WH41SghNwa6bt9/pCJWQuFeRpfVE7opnxvi0r0oa63PJCXD2j99LzD4kmH8nEsBVajQAiQ7w0E6lPqBtZB9GU+ed7hyJBHoq4g0CsA6fK9gUxtkt9AB7jX1P/OO7zs0L6BdhZUyfcGalKgrzdwAOIdsqbFZtV+FKDYgADbJC7bG6DumpTu3kQdCd369GH86twDwAY+72tpsBb8J9sbMKSh5G2hboDVjwKSZ/WzZFhQKdsb+FMSld76gVQg4Tddtie4sIRYmy/XG7Cio9QtqxpQ85HiwKiLtbTYfWvL9As4y1LrzYLq6j5RFDicbcmx9myAD98vIIIeer1Ze/vdP27U5hMznjiwBv2WImv3qhKuXyAIBuR6I1CLoy8x25o+b94hgECbJcraISH3qqbUb+Fu7YgqWYnQlpiRn5t3uF8XK4VOLc8JeTpvfEnbBFzgCZiwYdHqF/w/ya/NOwSyz7ZSiNVyMSCBlIPagEnqvZW8VQPSJtu6mysOwHIpOJdj6lpyQSxg9lvmiQ48ANvWG6T0dRbdAMxX2fRYIsMPFtrRWHTaTSCyKIKRfP+kKJmKloCuoAi8fW4HPpfGlgN4cgdg8m9AcQMKWyLR7+JJ+yPfKQRlavfIlosCsXiSNkpE8wQKxmYkaSEOxMFNkAamtS/GPUIFfEI4HySRxQGaF5MJPwpctkuxj8TsKTxuWDbFXOaN/5VCsmNRcx8Dp/od88cppGkdVseZo6PbYfFwfdQUavUbHz4rB9+Minla+6gG2P3MvMOaCd1ybGpcTBxrQuJzbhFRqrd5EmynW9XJUlkB7D6XNtD4mAhsnBv3LfMOiycp1AfalBVippeX7g080v0Y5ibprAqBwcyyGiS7dTndn8w73GSc40AXsPADQOdLB2B6i1bUC5CjmKwyPvoDC+l6GFoA7sbNgc1hPlwCSdMQpu+ZX4jtDRB20OnihbH5fe0Ddbo69jVtKSuKOH3H3IMEjo51PUD7jNEqegNSVfVp11lFfiHYthWztGzZHFs7+wsCg5Af6FAW/AQiqnqbmq5LOgBV5dcI/AIrWrZsQm4JLD7C1FN0AM3AbRWFvU1N16NfvsL8VmkLWnUs2pUA6BcUdnOca9gi7Lmf4t6AbZ6WP99HcX6HzcxW31tWBUDnCxw9W/0iMQG8HK2+Xyc1x4p6Dcao7+3KUG9PUb/17FLb/WLutytYUm7gDADX0m9x4o4R1YsEGJysJdPPGSqBt2NY/ctj1b1+3mFhN3Cu2ti2hbr6XVeIVbtI7DlRV6YX5D9d7TOnJP+Wp887rF3fKgYa8+M6+wWOYFPdIjGnjM5M4/lXKJLS2xOGefi8w8vAjGIfGaW734UrpKlZJHIPWkt3pkC/lepvNy1CzdVirgacstUSDYV4XUCg38saqwB+v4RApvFRYEglG2z4Pm+Wsa1VyjGT0K0vfDiRflc7KBO3SORWAypEco6OAuNqt6hCaIloPFhvUKGUY2PcKoQymNwNDMv36xgA7wEfoZw/PVTIsyOUPpx+dmXP1fwGlW4U0krETu4wFEK+CDV9w/fbV6gO+Vw0BWo5LxDztWkqn+mAkUYea3gtlURVxciRzKAI4DaLAr/tz67RoHXrBjXOvgb43uMXPnNokjnPaqx0OgrQ9lRlWisEpu8rl4s5a8mvofBJaN5OHuqiLHXSu61pdswAOD5P3ZPQ3Eu8ct5hBgiz6rzMIRYzt5QeYTVWuA8ChEQ9cd4hgIFsdcMANsGDC7wAc7ztHHV3sqDwk8N44LzDhWuqA7KGscmFuQlsCqfVCPULxOS+XFzX5txyypTdlKWYu5YEDo5VZfsgRD3zx+5xcw+G7aVMmw7eIhL5wDXK9kF0utrTAO5jVQE7zViK6WtpO0TZvIoqHgbwXqxKzf5ehBnwnKxqH8RyzT3LyAmKZP561JswZ4A3mYr2QVRq5FEek6PIhfuxB0l+GwPmFO2DyJnlplxcNAynN1Gk4lwvwzy6jaI73pyRHjTvsH8lNTK7Rb0Nc3zGqWr2QTTp6TnzDg+5UA0wux9L8ZpaitB7gKKX2+Yh4DHzDq+uoQZoGOaFIpGbxyaqUbMLyjF2s7jdkotLIu8O/qnxaM886ufnXapmF9RPfY+HWLicEpknsRSvqgU8zFSyC6pPb88w6GVKzKnjpZjHqHmn8uFbe4SMjko0rOKtmPuPULIL6n5RT8AVlKg52msx9+6iZBfUqzzBrysB8gd5L+ZVFlHyUPwSD/DBXBXxVoh6MeY48FHyttTBxp93uHa6AlngOUvxxlrG3ahgF1Teroafd9iolgJ5o7xbJJLA7VQFu6CGOoSMPu+w97UKpA/wcpHYc1sr2AXlGLpFjMQzoB1vxrMVAHt1vF3J++V2CvZACpVf/nBzzz04T4Fak7we8wZXKdgDKfgY22AFdgbK3o/5MBUfYb2ToW3eGi/nJd4uzHws5CqaDRSMrPYEvDmeL4X/DMXvmjtwmIEV1se7Cij6BcwHD8GP0ckZdDOgGy/4gY+yYIyX0fCxmM/A74EEn4w773BqLlr2cD+BY4kM++LflA5Aw847PBqs4vc2AhP1PO8AuTfEvw+ztlHnHRbORsst4zdEYq/IQu+BPLlENKQzINfStmj2Bf4DM3iG3wEtfDeoqY4LNODvRzC/Br0D+sZExsZ0r1PQ/jDqS3D0fugd0Au9wZBYyEXrMs2fYJ42G70D+gRDSsgTP8W0t1/B3HQEkrWvMKJ58b4Xa05//4J5y65IFmxuZ0Bf/TDhL/rtJcN9iuQfWZ+Jfca2cdx88w7vj96BepK/wXx/9J02uG28eYfFkzoH/d5CvyMWEZKx4wb2+htu3uHXPoD+6ujHreJ7RD5/SEcddgf0yXFq/VKLLaFbWAfO9T8iMYG1EnYHNPA02tyDn34vUuYGfgjzmEzkDug5ApPJpp4IeUj2zv4I85nYHdBCusEkMsNqI3UCNz5lBzSowO6ATmRsLA91TCAdONovYe7eArkD2jH5300171AIQsqU/DxBv1LLmEyUILg7qX5JHS4S9niBLpJbxPxLLWfi2H49zTTvcH+kl2XILWL+pZboycjXHwDFSPMOF0cCu5IfJe1nanHwOnZcczJ8hM705Vrk7hLgJbeI+Ztadka+/nBsezr90in/15FAsdwi5ndqEcqQT+J3NI65V+HkzJVbxPxOLR8oi7sjv2quYfClyH3lkt8h5H9qKYPckoMow1gtF/kNYnKLmB+qpSNuLNM6GwU/GxdRrdpyi5gfqqUD2ER+R6FR7Id8peypcouYP6rlJuTrD0XTMAgujVP/M0clt4j5o1qij0MJhD8GmXcIIJw8ye8O9ku1dO6HEQSJQGPMO4wfjrt/7Ca3iPmnWt6PEtwlbop5h/vg7GCeL44vEetOf1rx2py88Fnl5Rz7um0/2N04i+KggbjXHwaQ6I1CRFHQg3t4lMDaMD4+YsgDRy3yYDDSutwEUIbZEo3Cvfw0NmqGuQffizxoDLP4mFhC+Sg5rtGh4McbzJKVUIN7/QHYmGHqCehAWacYOZMM4Sbfdp26o5z58ocbROTd66CyOjtuAsAIN4RChEn8rlAbqFLyJqoWmM0hEhHicVnVMcHEs/q4NfjmsRpEkbQXUimwlSaZQ2xwLVRW4w1gP9wQjjOIv3WOWtamP9yUH0jzRv296Y8IlKGG8IDPHNrcrM2ebgwMgAtRWZ3g+nmHs7JQQ/g+cyhGfCX1rG23oCkwN0NlleUQd/u8w7NwRwr3pQOM4eOHFw3oYG2nzUyBAd21qKyauHzeYe1+qCF8rTHEhDQ9rAUppsC8Eyorx3GJOHT3pjui61FD6Oi9wBgSs9XF2lGmwNGzUVmFfHC19rgzgXuuMUy7Thubc7M4DIF5ACqrB7zNxXgn3DGCGkNEKNTHBkKpKTCDFlRWo1yMa6LiWNYYErquUxA8yhR4cVRWXVxsNdQQNoyawrwJOra1Cp7h4DfGayaif6isZrkWH4oawp1M4WsfEKr1CuxsQGOK/N6HygrEuFYo4jmYIQTjhYYYrsj9dbN2R2N8HNUBqG9w6e3WeYfjUMN1mimG65pztLPpnc2QXyS2Gyqrdd067xB1/r9gCcAN4Ysf4WjTz9rbH2cGvHVZTFY/6dJ5h8WSRw3XgwwhInyhwNpuZsB8a1RWC+rsTWccI1Ab67UMoWhK4IQEC04PNgNeKx2T1d1dOfegPOoMnH7UEB67Fw3WgsFBRsB8FiarfeeL1o1TTxKzQQ3XimYQA0FUWLuRGfAkVFaJmblx5lE2ZriuMAQA5pJhcxMzNgLmN2OyEnJc6A3pmOECrmZ4e8mr0pCLU8HMmTOF2FK3mUluBchFsYcQ9R4TYOCNWVX6LhCT++YdnoaRY4LvFap4D7CK3prsFq7muugt0RHgBYCZ4EhlcjC5hFzX15u+OAAFM6xHmeDk9Z5v0cbHw9UcH4+/I+q0rOsxb4HJpY3r5h0unIkZ1p7uHBqAOuSNU4EbeLTLzI7fusd91gnwat0zfB/3rKXgcUha2Yb1O87cZcfBU2/3yk+I4M5V6s9RH0XZ1G3zDs/FDGtNl93BFEl76fefNb4PmEtX/VASuMv00Vb1Q9MNW/QZf9b7l57ksr2Sr8fkcle3zTsEZMzQLOqiYfi9hG4J5c/Q9Eyio1wfHTU9M2n3zqcCtItWs5CHmAy219abtss9kocYmtYTXTMM8yQgxLwlCDQpKzDK9fHd9wl09QF2Zjq4XbOVXSDmDREZpFd2Fb4rZhhAhluE4AT/DQNt7Kayvf2Uvj5s31C+t4jRHSKxD2MyAC6uwttjhgFALuGkeqdAo0vlexOStClZySmJmbgD52My6OgqANkaMQyVMlwhfv2NOj3yjvK9JYR5pD5BkNst7gZcWBaRATgY5CK8LGYYXuMKGY/WuxM5kQGmt9voPddxkOyOK4+yBiaD6i7CIAwzDE9yhRO0skJwqd6IXnmU+2W4AE/HZLCRizDmOv80qeICvJFejsHLcb2tMlYna89zAS7MQWQAhlw073AxzDAI0W5wml49ilLF9vbjmTpZ24w+5lUxGRQn5J55h3Uxw5DI0AUcgudoFfxHfG/gg1a2YDJ9PBWTQchd98w7bIM5++fy9F3w03oJlKr43jIARSdrT3bBmcMcNweRgVCipw8tpU4rQLQuJNLHITf0OkDJ5yA1raGTtUuTxwySEBk8Y023zD0AIGYYErOn745P1Gqh4kmq6e27TtG6aD/x42Igj0dhMgB6bpl6chRiGHrcYgzkxUL5aXVK8aSVnaOoY05nb0FLF+xw74HI4Hq3zDyajRiG/0/fPIk6jrVeEJ5Xquv3ZxydGgXliydCP3uhAZFBaZdYpTViGH6dfOSRPJ2W+w2lZyU3U58gAMX0sw/5iMggu7075h3eBjMMjyEfeZEgjZ6fyFR1v0C3nDYl9/9Szz5SlBomA6Cqow8drYd6i4gcLMapR/7Fj9hDm6Hjyqvvt3DGUF1sw0LiIl/9sLKIDO7sjnmHQgUi8kPJr3G31SX3oA/o6bdphUw9rK1LXIxBKiKDaq6Yd1h1G0Tk96LuEf9Ak/01fjQjEAcVetg5CxPHd0VkMDTqhnmHxVLCRH5P6htcIVKPTqP09gv0HX06WAvCiGPAh8mgnobeNLR+PiJyMEXd/83UofSoQt39lk/gLNRoeadyPdqYWyAyOI0SHZOzWhIXG698+MFx44sa0ej3u369tPoLzTGeOF4EkcGLXCDWBxF5M+IWV+XEriNeBopWPQo8PqNRe0oZtG90xspHrXrNy0Z0zVL1OOQM2vgmRL9Pd4GiYP0QkTei7Xk74IYaTD57yjLg9X/95iJ0iyf13eQ/7HaP377m+xPYnLvEMlOePRC3CtRYkzSeheg377OGJI9/HHMO/XHSeDec1lvK9Uu9lnsW4LaAIQ+Ifw7xHES/71aK3BvOQBHtoQZAC9yG/ng3Yt4Fdwe40OW0M6iG6DfBVfL4ZxHDfybtoQa3cVpo+q7A+NsnTR/1zGeOmu6k9n23fJieXP4X8iTyQu7QXgVejehXCCc/7xAgOyGGfyrtNR204h7mDVbfR7xz3UXOLkipjzuIuoXsk0ZqyGUw7lnI4aRxPuYKqSZCkJ532L1u/TzM8A8jrTnOFXHFfXzpgKkgTfIz/JocBCDVE8fjV6CehGZNpoxFHJh+87rsBhiIzjvcJP8Y5HX8BQuk8UUoWQer7eMdQsAEzJPGSs8CfGpz+Z+44ysGTynjGPItsv2OyY8r7EPdFbxOyG0s+rl2u4eSPjDqY1BP8qYo7aMYGSGjB3afQeZBCyrNRUhFDX9Hyr7w4QndeAh630e5V2QQm3vwcDUXcPsJidnSxWUx/bYT2BT28VIh60Ylr1Iu+bsKc3npMzB9TKDrM0f1Dc8PAgX5rV6dkvniV3f1zoXq4oSpGo3qdwmFa2vIk5UCRfltc9uq6nIJ9QbVR2+q/rGjPggU5SfkzxcfGUeqvHbvYK9ulCSehekXTHzq0Mr62PP1QaAuv2/8EXUT1Gpg+hhJU8YlKt9284z30fBJw6u+cPv7N6WIAYjpN4Gdsj4SOCn+6kmwBWyU5bIPpo86JI3uFQRK81theQLeof5nGwBj9dz1ZqtvVfZuJSEkCFTnt0VUVS5dEH0AiKLHDFTMWtD/dnxv6LKKpaDjR1toR/FaukzHnJ7plz9cTR/F0AvZ6ll7lqJDOyusgehjOEHLFihnbYt6mucdfv8RiqVwKmHkIh+D6TeBu5I+EqBEFB2s3X95JbncC9PHJHr2ydPA2qEbaJ13+Mu6Ptmr33rkIt8S0+8TLlDx56JKPaztBWAKcomPxfRxNDm7Z2ph7ZDDNM47LE5c3zd2pt+G3KPtdEy/myr4b1yli7X/NorPZXFMH9nkDrdp7TxNrC3bHNcb7gtb/0Qbax8/T2K0Imf+h6izc8XXvLo+1m6Bz+UnMTW3oqbnUG2svbi7Jl/7gEDRqORZE39cDLTEhGDcVURFX9EsnWzwDdhcpqNqFvyJmbiDRtYC8h5aRH5MqyAQUmiJPBzV73hkzc/fRqvgiHcgc2mMqjmRKbEt71la2SDkjRZ/s4degd2d2CEtr4Tqd3PczubX6xUEjlbcFcFZCnfILZfTAlw1C3oUTUOD8qJe3ezQtSiJxG6F6vcY7Gkw6M5vN1Qu1VA1r06LwLKNZkHg6N5Puchf187aF5HCnVH9ZtXDvNK4knYWbA3TdMwlJy5HCpfVLrAzlHvpW/SzuatJ0vhB93o+6lrI1s/alohc1kfVLJBpefCN+lmwPUz1vMNOBFjbixQeg+oXnDWXrrl4UjcSYHNHSucyORNVc5F0SIkJdQRYu4XieYdvaEeBtZtTwjwb1e+LpGsWMiiwdgXpXFZF1eyopaUIbRIs2Butdt7ht9Ng75cC8sc3dupOsnMMe5Bg+20pmcvReaiaAURKRCjWLfmZK8r2JnsQ2WCNBps2mRKO3x7VbyfJmhvSYC3wkcxlI1TNrWj5jhtpsGDlOJVzD84gwtpXU8JcBtXvQxaIUarmL3z4BCJspQypXCYWoGpej5RIyHcirB2gcupJR3RLFwsRj0pkldANIahl6a7o+sAgKQyoR6DiBbelap6KHppsULhyAouLLnp4yPN7Z6OHEIBSuZyEGuoboqREHKPoRaxJr4O2+LP8I4XIO6Hr+7BCE7Hvs288fJNk5UfrbIxd8oulRAnzW1FDfXupmpfEDteOmyXvbbOVc5CrzxSpXPqg1nTgQcvtsIsTIA+PJ6v5M0e168nI1QccVVY38WxxXPlgK9yPtjCgCW7DF/KFFH7bAaiNa3+JmuNgGTcMUyam3FvvJXGrz0Iy70t0CKMMPI6U2C44E4BJmJqvRJ7E9gB18w5fgwKme4aN6Oo+GIFQQwrHzkfdtz5VoubOKOBiRvjeLslCrT4yH1j7n1CrwLq08GyUVh3C1txoOfXfuCLX+lgMsFhFIqKm4B9C0LcIgJTI5ajLTX+WRM27of78BTK9XYJafc6XyEDIwdgXALQMSscoN1Gi5slNMKvPLyubd1g5CyHtSVIRTR6C2QjfhpRIJNRrzH3wDRI1L4L6p3K9LYlZfYRMiQz+ArMFvDMt/CSMWodI1fzRXMxrIXJzQaRaf6P6bxU7H7MRXpSWWEIYsIHYCBfEw9fcB/O/NlGut6Y5Kvcj1DwHYShA08LgFmbr2Uyy5ldhVp8iVFTNOwRuCAUCo+yHsznGEWvhFkxsLbwesxauFbbmKOZQEnaU7S3kBWL1aRcPm8H8cWLuANckhs9DAMMZkjXPzUasPveS6lfxB6ocquFFalBMDC/cDjEMW4at+e2Y/Q2VZXtbF3POhEeHzaB4oqj9+8RwNcTWs66GF6mvV4RXkGcTmEtHNG98iGHow9SGoQJiGKqErRmoI7ae95bvTShFrD6bh83AIYB4/LMRtZy5HGL16SBdcyJLzOdCK8InyDtxXfmIwIT8MIBxcsNwCWIYwr/GASDE1vMS+d5+DrH6TA+bQX/E45+VqeXMA+Vz3kG+5o+N8UT51efDivD+0oInIyICJPlhyCE3DGcitiZvD1tzGcTWM4GFfG/ADLE1WS9sBocgHv8sQS1n7iqfczVEzQvJrz77K8KgUf6Rq6gPEVFL+WHIJjcMxyO2JgJz2JqBl7ygCE353iYhtiZvDZtBB8TD327UcuZ0+ZxXQNSMONymx4Wj4WgifwgR0UHywwAOyQ3D8YitSfjvFnimvOCH5XubhNiavDVsBh3kc7bdqOXMreVzFlIRNY+VX30epwjvjzjEUUREbeSHAayQG4YzEVuTeQmErbmMvCCRhXxv+YityXphMzhEPme7BLWcuat8zkI5ombEdRJ/nap5h0KBtCBrM/mIBsoPQw1yw3AJYmsyD5GwNQNIXvD78r1thdiahL/qB/3lc7YrU8uZB8rn/DD5midmya8+IFfVvMOy0qx9rvxn8CKGoY/OYVA+2+c/h63ZSV1eAIp0PMdfKmwG/eVzthWo5cwPRKw+88WjYet5qap5hyE/5NlDpSO6BDEM21MbhqZDEMMQ/iOv5o1fnm1dWba3zbIRq8/VYTNoLp+zrVoiVmK4GmL12VG65imIref1Ur1JtZ7AS54F+2tJRlRYQ/U7d3XWsiZCcGX4i9h9B8Tqs7Jsb1shtIuHzWCYfM42CPlKDAuBiNXn2AzJmodlI7ae95LqTfVMl1tJRnQSgg25TcxvgnXMJ55J1Px3EKsPWO4t19vCmJ+dpFX4DOLZ8oL3/h4tsYTuBIjVZ2/JmtdAsD+uSCwEi7kEEuDso1IR9R+CWQu/n9hauBWCbShRs5CFWX2WlOttEQR7lkQGqDmQIa9oiXwIwYLtyVI118lFyPpNRZLt65Ytv2x/iYh6gwGMvr9BSxHAKQh2fcVH6nqJTG93xrAh9yQyWARzB7jvNFIil6MuSEfDphI1N89BsH2U4Y0QrAUz4T+X9+g+GIFQTQvfEcMuKlHzSAybdUn43sCLLIygeFKKD34D3CYlEquPWn3OvjpszSMvxLDnqZt3uCmGtUMGhyl/0yYowT+h5XOH+BMMu5hEzfEmFpXfkr1T7q3pIhblAVJnMoFaBQYCOlKS72mXzaXJpinXHL9rOxSbwFKuN7nWK2OP4m3rRIY1k5UbnV7R4gRFU6J1H/xtKK2kam6JW31szu//UfLeJv4O9hfHEZKlcvljTAYWuJPCKyaByKUiAJN/qEx8+mzswXFJvmos2fqHLXZxOuBnlx6w9BZLlu6Krs8xRMvXPoD7BFRwW6pmAFmLzKVvv5CX+Ustlb9VNfwvl1VH8ddvWntDlBLmay02v5cLNUKGEHTupkuv8Uh0fUKeys8dXFxucdJSy62JXbtPVL8FE6VqzphgieT35D2kclkgxgJUzeuRwt2sJZJfIiuVnzvYvisRaVVIibwe1W8FyZqfRWX1EXwlc6mAqvnppPDkNCKu+/whJXuTbX0XGuwf0lId1S84uadkzVUyaTj130vmcnQeqmYAEZHSowAS+X2jQknmd5JgDyYl4qhF9fto6Zpb0lh9flQ6l0txxx9ECh9Mw1tuHrNSzMuQMJ6WImmi+k1bTLrmRrkk7jxPl85lchqqZicNSpgb073zRJ2l20oEpD2GlBggofpdH1HzkhRWnymIXHD7KkQkUviyXAK2EZgUi0Xur59dg5Y/z8L0m/USzOqzjX5gcy4il5dkYWo+8RpKmFclsPqcpFykvKNHO7DenRQGoah+t0fVPE7R6qNtJ/I7UTV3IoX/5RHatcpQLhJzqGRqZkcRO+uGnVH9LoX7vkRHq25XZKBymYSq+b1FglMSiyRw0a3filq+d/hBmh1KCwNTVL+NkTX/3Tl67bwlMpeTUTUDiJRIREjTvPpsped7h6NttFodoHXR8koo0MfWvJ5WWWdgcwEQquZnUXvH9bVavTOu6XuHu9fQqEFzYviBmH7vgq95C52rz7b4XETtmJpb0cK8WAONjl0Y1Ruu9f5ltUkfQ01GOqbfxfF9RM/S56A4PpfE7DF9FMSpZT8mXZt9J2v87sHLrtKk33rUIuctMf2CgaiCPo5rowugtFeQS82PYPq4mlr2vF4/Ta5aTetXT+43VM+fAzNyeAymX+CqpI/lX6fHNy2vJBfghumD4CU1HJCuxZxJmr95tHMLDdoBiB4GIKLfGorOuKX9WTq0VDR7qPBiRB8UL7ATMAR7GoDZkdq/ePa/if4pB8bqEcTABNFvF1V9RLdQ/3+0bVxVLrMRfVSnh3lWDeVA73YEvnX8oUKSYvs3pYgBiOn3m5X18Zwj1Bq6qbJcymD6GE4QcwjhVxRbdZCC3pS03radQlXrRknizph+HWPqzm34HUr3QF5xiLJcADAQ00fP5IhNvrvtQxQaciWZ4w48+n7KNJ7MNPHCqH5DvVH4m4C0baDKzjMy1OUC3qH6+E05FGopTri0Mn94NaXjDgQQGFTihsWZKuYc1NrVQWEfw1rmKplnsMJchblcXRXTRyU5RGpZvKESjoHpxI47MAocHojWbulCwvgY1OL+o0r76DklEz3J7EcXU5pLS9Twn0AXc8Yzq+IvX/1TLlDWm8LW4w+/dx7uzycwZRzqNerOLndFtX1sCXwqoWYYC74OHrW5bJ6FGv6ViUq+HcZxHAvFiSw2YWVUn2jm+atsiBh+24Gy2HdgWAsa44r7yADgFMn3Ly7UJJHRHopzif8kStY8CZK2Habf1qL/77hAzCr70PE2yCcghh+YUBaJCG2BpXXKJcWT/g9CZquqKf3RrtVZ51+jIZe74jb+jgbSeFNEv2MV/3IJxL4A9gdJi9wR92TrwOU19bbd5nVGPfOZZeocvJ2mXAAK+baWhG6Sxt0Q/QqhdOj4bX5BMWmxb2mBe7J1vVy/9Gs5CmchCm+41zTh7Ujy+DLE8M+JuvhHZM8+xI2qtEYJzqedQXQOot9/Rh63z0MM/4K0h3paDdxz7WOP2TeU388d+R4ntcV6kzd4/tgdordZ/Nwlzpvy7IE47yJ+xRVmIfrd8POHdMF5h9weMfyLEl/T95EjU0smWNqrywlr7PKCAafPEx2lDKZ13mflo1ZNFxr+4uUnqtrpm5gN8S3gTZhfOdMN5x2yKiJykEYbcy8Fwt02FKq+uzgJGv0C8V8vnZdCv6oIFGKUfuiNEOOG8w5ZFxE5mCaOZ6XJQdZyYuNRGbr7Pe6D9a1V32+PYkkTx5i5IItq6END64/BRP59tDG/Sg6+lhEP19tvHU3nIXQtdT+CyaCzht40tJ5RCxF5Ag/ieDTYUC/J7dk99fXbeWOrx+NDCMRxiDcigzmA2gWY2yA/n4d25DP0sDZzZnc9/QJChUxNgpuoiwkZiAy2dwV+ECLyUzahvsF923cqltKtwboZ6vsFtHWHWl3GFlI3+D6IDLZyBd4AE7lDhvwaVyRIl1L/H8pPHXk46LXaWPo/J11RapgMNnfHeYcUBeuLiPxBLr0Ya6pqESKV7gqaNtNqdG/62f99RAbZ7XX0oaV1oV71JZCgVUvxxPL0CQJHm4NLXb9VWukEjibTz97RiMigsVvOOzjUL8QwgNPK1COP8bM0CuyEBVX1dnolnb3Z99P3MTFlIjJY0y3nHTwdMwz7kMeVwZLORcJW6qmmt85NtJrwm+TFRmEy+Khbzjv4sQWI1g8lj/lcnayt0VRFb90fqZUFnvQxSEZk0K69lt70lPpsROtD25PH0fo6Wbt/Br63wl56NY7Td9xQzIH/uwbvhhkGAJLHvFi2TtbeWsE3m+tVtQp9/FxMBnvrQPAo4GfSx7yuVrbfYdje3piplV3aBfhQTAZVXIP5WMQwgNVC6pIcFokGYS4iBK63rcGQXs9yg+PAOiKDES7CIBQzDB91Ac7oqJO15+F6e41ei0SxyF/iu191EV4WMwwgzAWY99N7HH43Fkkf09uuWVrNzHADfhEmg+ouwgDZGnOMPl/+cJrCf6fgv9N6LF5/gjgk1soX6pT2g3FXKMxBZJA9yFXXHeYYzDAkMpVDsJZEBgfqEwRCIuLb03W6cAy7Ag/AZADy3HXdYdpihkHIdocYA/wy6RofI+TL9naGRtnv38wl+ARMBsDJXdcdZiLmLah9Q/BySNZyyBpDtC0mTQCD5IVdydEGbP3SduwWC6cjMki/RURdvWmL49mYYTjNDZJ/De2ibcCepoeIH5br4xpNVjoGeC/vnpy5LiYDoVhbb9pKDbmGGZorXDAMKdbRfoNz7y7kCjV/cIryI4y8UqaPt6rWukWfvy1khvp55O32Y3ZTzq0wufyMy8QWiKk8Zmhc+hNKTmy+1LJvveTulx7zsk5dVSw6Ox8dvo+3X6XiE0maNOzSceYuLwBuU994iEuvTmJnTC6nfpPLRCICBTOsd6dPwZHG/9N34bccG8fDvpzVGM8xlHQCu7szXQaTi0Byncj/wQxrVwDIcVktFcdtg77jOClczeAR2hGhXj/PAAY1wORypPuuO8zl4AgzrG3NcLkGX5SGfNxQEOay07woG6mHEFUiVjYAPhej77v19aYxjg9jhrWVCZT6lFbJnch6arkxkWHMCPjpmKyELDded8B89VfD0IW1VCAjCBVgCBugsqruxusOWAgWMcM1xQx42l5U3PeTw5gBr4/6CaszXHndAZfBDFe6wGwEzJf1o6HHgw2hQx4mq6N09qYzjnqo4Qr11gyYrychCPXRELgbKqtGGpHdC/bETx3WDLjwLhQ4Ot9mCIkQ16FOvcWluC5quBK6YwbMjbL16/vnpJC9yG97uxQ3zcYM1532M8Vw/b52wQxT5Pe5QzimUbOdJ7oU86qoIbyXuuEi/ybtVXTrFTdFfu9DZfWzrsX/BTWEN0TNMFyRyCtX0qvW202h5h+gspqlC/FLIGFtviFEYudqZe9qCpHE7FBZNXbzdYdO4IaK4wpTYD5Bp2uMoSbuY7fLuPm6Q1d8MmoIH24KPKyrPmB5LVOIfDMqqxaAztXXHbobagjLRQ2BuYw2dnFjGIw7BoQldPemO6IOeagh/F5TYF5SF5BkDJGEPFBZpc9ld1974JaoIexUaAoMUA31GLGZMbxnB1RWl7ocN8J9k9dDTYH5dLCtA9hpZAyx01BZ5S7o+iuPvD1qCJczyDUHB2Br9QqGm8O3HIjK6sOux0vhhvD+xsAMDM5Rbldz4ItwWa3oesxdUEO4Uok4jIFjP/xktcDMwQS45BddABQCvRGIqDpuCIVoc4hEpv0jlSp2Nwg+FJfVrkb43UGejnurxkuMIPl5+QD3HFXmzIgS4JZfdOEuZvjdQXbHrcGNDaLU2zaPAhsqdD0eEMySVX3cqrKPGX53kAv+Fe4h3T7GGMJkeyD2Lp2Gs84vLro1m8UrcMpFKfRL/7o+1wCAHFfXMnr3bUFFpyduGD6r9CbPFypC+TzlDcyGsfVyuDvKfEOIRIQW3CP66+X4p1q2xfnJzxyVKUT+B+4Rfd5IuUXML9VSrx/ucRLQNYYYN8Y9oTs8KreI+aNaoqARZ3+D4Ddm4R4enSa3iPmjWuoinyUVoW4MSa8+PSqiqwR2uUXMD9VSuxaOUGAU/JJc5BWwkFvE/FAtxyAvoF/xpA3zu8M9Grk75xvkFjH/U8sHkbvILjbN7w63Vi3c7pyXS/6G3n6nltpzrDt+0QU6sf0Ocmfu6yTfvuFvaom3QW7Jb0unX0IfALc6irVP9fxFTMfXeyPd9/OHpNMvsWvhg3pvXHO5RczP1FKlHU6QyNRAmEUVAe71h8dJXpRN/1JLtD6SUGYksWN6oFh7ptwi5l9quTVS+eKJGUkkEsofx4LTMXKLmF+pZe00nED4aSiRTxq2BnJi177DPHARo/MkHswjOUZpHdIyrdiAIXZeX68MvyS6MVIw3WC/O/D6ONYu4Rdov/SlK5jsdweei53Xt06RQH9k7TSkBt2N9rsDn4vcVx48YP64/JCr90WywI1av9Rii/eyyI2mo/l5/se0n8RqHDca5tPBPja2H/U9uCV23NpVMZYUz0EPuQP6BX7HVlj2qcbD8TZINm2qvwHANKz948bD/FDHOvL1Bzu0uZ+xGNjEatDBgDiWwB3J2hFN/YvRq6PvtHc3okhEyEGy9vCt/YpBj0NbkmS/JKNcIMYLkazdPsOfyDgBrUVTkv3SjBKAuUjWVvAl+FVoubvS7JdolN+OZYOf8yOWQLPgE9F+iUZZeDJWcOLP+w+Ds9AaZxDNgGqUc/dFCoJT8/2GTfuhla1tVMzD8QeJmTfVX5jeGi13umExH2/R96MFa/sJQL0qmr21cXF0PD7Kqhv4BwcPwY9R4wzjYh6m4Ixlhj7GL1htZ7zl1iKcAeV4H6zgt37LeYw/cFlXvILVKGdAOt6nnIjeAW13XsoP+PE5eFkfJJ0B7XgFXzRrqw73fmOG4NldaGdAO94LqqFZe4dExl6verYCgJxBOwPiLf3mXvgd0EH5xOy83bKtFRhR2diST6TA74F8hafvbM5UYE5/Y0t2t9oaLbBZ3bzbjFwFWm9geMy752IluZpFUY+eZ3Arq0BuGeNjvkQBa+89yItNAzkqxsPO8ADMv6oiXntFd+/VdLYSf+oJOAryFLB2RHOvdfrqSqwfdUMGroj8sUK9AtaC7WW9FYB2VuJkAHNFBu6IfIGY/lgBa9Pu76nvLkpT4umV3ZGBSyKfP7aGKUJELmRe7pVW+VGrxNjRLsnFLZHP7aRCEPxvgdUb1T5cjWM7uCUX10T+9uVUCGylJ3mh4fuqASa38xjM/SupYG1at6jXiV+UpkaLKp6DebF90ZJ9ONUwb9P9dVaNnAU9CPOssmoity3GeJm1wYIiZet5EuZGlZSwNvPMDK+S8YNpirTo6apc3DUMh9TASmEv9L/2JlvWt4qAqf7uysVlwzBv/I4RNaw9Z9wtH+Y94s3aqbL6di7LxW3DMH+coj41SlYiVM4Xj9cYVs2qAgZquy0X1w3DB/ooEgRdy3iLV4ANZVqNdl0u7muz92w5crV0vNo7bAeKrTKlAc7zMK+yvirWVr0owxtEm12lzoeneSDm+N3VDYNtdZgXmHWFVZdzhajnSXZbOVfhaaJ8+yDT23rbTHVyZ7BXYt4nGynl24Ftb3n0Rpc/0KqTDhw8FPOThsqRrUWoLZYSyQwA/El7n1cN9NaY07r1nBrlqgmBCd35EM05D4fNtgrN2cBTMTsEnqBOENwopAks1DK43S6z88L3u2H961eklvPoCmkqrd7TrditOPaxMQoktWf2sNU0SpdxOOQb4kLugpE1JxPKuUjwi4ZYlbbfzLXYtSKRmsLnLGWS/H/MWIVIv0WpdEX+KJ3gvNokKoeK1qyFVSlr26h7cUpc2Pr3FihdM+3AZhkUPgpDyRW8bnwZheMEfO21VqnWwI1djN2M+TGPVCOFW8NRcc39vlWIXUfNY50skPI9ujOt4+iyarVY0dXY1ZiHNZaBPNKWxb/6YTr7vVLhxVs/4m9oPdDdxOyEtkCx8Wt5OOaMbspPJtsxOm49Xf1u1lJhbyVvQq62k+d5z7eJBgLFsrbN8FRy18l3QlIKh+uAGXqODKpnDbW9Bfba5nrOyPYejulAtRwAstdjrn2yHFwtObcepr7f/cCq8t7snLXV99ah23WBcr2G+QDMJaIRPmu4rPJ5ewJ9xb3truU3e0gvozi/w2a2Vtxb0n/NAGJy3FdLIuMHqFwkUnhJEngPUtjbGf10sLbfAIX5DVr69taq763FrmYYcyO0Hon880XkoGtpsIVDQlVvy+ZpkPRPq6vKr94yc6wOIL23GUTkuLKWUZouq9QeIa9/W0VvLynQxdpsJbugJjZ7mbU6gM0r2RAiZpDSxEwNQ1i+2qjjsL0BQg19rB0oMGDzy6hzULbVY/+rjSFmkNbje1fVNIS2LIiaXojpLaOXTtb+ymBMVoXTZ+ZYqyerdovG/YXkt/6NNUj+EGTV6sdJ9/Y7Cmg6vp/2Uy9tYK0ugDKZ/QnmOPBsoFxKt6ErjArByf1KR+doFtxB7mekfPeoKUOt1aZr27hnoHldnS48Uediss7rQ/n8Qtgrh/OZo/p/ugVBaYmfrurFoj/9tPYBcrqzwRhiH4RjXPNiUrZl25S/mf21+tkwv2vNj/yFkHGd5j7eVYc9CL2jl7l7P72LSakdOuvfVC+a5I8vHXBfAmynwiR/RGfdtH6lQPdifOrZNxiPIWrpCUj6pPgwpNqr80UcsYRuapfs6OmPHvDqd+5cMgPthPLiibGBsIGUuj23UxL6h/o+DyHBVs2hkUFw30QmMSNhM2E+rllXuaE2eS3vffHnDGUobBwp3LqvAc68RA8h6hHmGl/TxJHyrfM1J9JfJHaoNkVIFcofRl+WUFg86Yi5sNHiiBVNQ6iivUhcW7dD0n7ni2fHY2nb+MER0zJKLYnAK+iq1SyaUr8Ze4NtukDj2jHjMk0tA8oRVe6QsBeRtSFRD8xnv4c5WubpFBeJVhPD99sUdFH0ZmAT9XlS+Fb2XuQWiQkdpI73qwk54+swG1DMiEq9QwmkgDNai8TD5XrblJbcapuzGUWSMGJE/0JI3pAQQJbtrSIh6Zf2ZFOKlGTMiErEEfLhyaofD6j/RfAASMaBS6zF5hSRY65aLsivmEUCWJJ+++oe19Hw9LbHmXUszfspXi8q0M/2ku9NqCGg6hr1mP2rpLfe64IW3exZ8r0JWdodvvdE9rNSuvXs9ki9DxG3kO9NCNFrQoWXMHshY7xXMYH5kL4a7yRCbsr3dpNGfYXsqRlseuaNbYGY/qxNnq7FJJGlfG/5uvooL5AeVfJnrzI8U8c2se2eVbVsJY6U72NpLdKFsoRu/XYk5ssl+zgR4NIRHKi/k7hYvo811MvuuNMd1Y6bMecdmraWQdUrgGHFDxHv9Jmjku0j/kjFOm1UfRDHzD9u5hbuNk+COwt526h8GLqrbB/TVSqomOQ37fYCHIbZo/z0UMOvL52t6o6jtGQf8dmqFDQGnz7antkrcEo8Icr2k+5cDWwoWXSulOsDeCgxdPutlir1PncPwR4i+S1a77QXPT0de8dxVSOZmkeCXawN/96Fi3aOlhwjv03b5/8VS/FRQvgTUI8bwPTk8DU3BzMoY3c48t1JzvTFG3lHLYkQuN1STT4a9gIzghWU1qUu5mrqC3MX3LMQcP6quSl+6M0ayPMm+8VUGt4N+ywkW0hZ9o9K1Vc5f0o29n8t5J6XiXkZ7t5PwTOJhcaWm6DidYVHeJmIB5+4nY5ahCJPE/E0nE9EkMjC00Q8DcfL0SDqueXRe5qYp2HeiYTgtak4nLE6Bd95QSoOMwAJCKam6jAL+fotksoTmy++Z+gGdq5O5YlEfl4z2zbVJxJbQa9Hex/2PgyQe+lUbmvvw96H+ejl9Gnxdg/EHoh5JFjXBWzN8kLshZg3GKLHVZM8EXsi5sPAsg5NLktFYt7yWPXARPNUJebugKz8p5oBxFQm5k3GnaoSOO0W9W5eVkvRNBzdCn+loxW9dDw8VCR2QbOrFP1EUzMyPHV1lONhtczdop2C3+dL8BWY2FNFvFSS28LX5yB/nLWQrzePmT1WxFsl/67gAukL1S+UPaVizHPFvFayDyvJF0J++cRwsvr8agLLkr+qrofz4MjX/a2djj90T0CpWXPjPVe9fqfDfrNk9r6BR9fyV+/BckOTuq7F7wyNV887TF3XIjc0qeta/qp/Yj5laDx/3mHquhYfMjS+YN5h6roWuWFIVdfC;imageBackground=#E6D0DE;fillColor=#663300;" vertex="1" parent="1">
          <mxGeometry x="250" y="-434" width="80" height="80" as="geometry" />
        </mxCell>
        <mxCell id="8jfeb4-xBnSfNOuZoPy4-29" value="&lt;h1&gt;Pull-based querying&lt;/h1&gt;&lt;p&gt;Niagara (built on top of Airflow) executes queries against TAPS regularly (approx. 5/10 min) to consume change delta since latest execution and produce to Kafka topics&lt;/p&gt;" style="text;html=1;strokeColor=none;fillColor=none;spacing=5;spacingTop=-20;whiteSpace=wrap;overflow=hidden;rounded=0;" vertex="1" parent="1">
          <mxGeometry x="50" y="-308" width="330" height="120" as="geometry" />
        </mxCell>
        <mxCell id="8jfeb4-xBnSfNOuZoPy4-30" style="edgeStyle=orthogonalEdgeStyle;rounded=0;orthogonalLoop=1;jettySize=auto;html=1;" edge="1" parent="1" source="8jfeb4-xBnSfNOuZoPy4-31" target="8jfeb4-xBnSfNOuZoPy4-9">
          <mxGeometry relative="1" as="geometry" />
        </mxCell>
        <mxCell id="8jfeb4-xBnSfNOuZoPy4-31" value="TAPS table-based topic" style="shape=image;verticalLabelPosition=bottom;labelBackgroundColor=#ffffff;verticalAlign=top;aspect=fixed;imageAspect=0;image=data:image/svg+xml,PHN2ZyB4bWxuczpjYz0iaHR0cDovL2NyZWF0aXZlY29tbW9ucy5vcmcvbnMjIiB4bWxuczpkYz0iaHR0cDovL3B1cmwub3JnL2RjL2VsZW1lbnRzLzEuMS8iIHhtbG5zOmlua3NjYXBlPSJodHRwOi8vd3d3Lmlua3NjYXBlLm9yZy9uYW1lc3BhY2VzL2lua3NjYXBlIiB4bWxuczpyZGY9Imh0dHA6Ly93d3cudzMub3JnLzE5OTkvMDIvMjItcmRmLXN5bnRheC1ucyMiIHhtbG5zOnNvZGlwb2RpPSJodHRwOi8vc29kaXBvZGkuc291cmNlZm9yZ2UubmV0L0RURC9zb2RpcG9kaS0wLmR0ZCIgeG1sbnM6c3ZnPSJodHRwOi8vd3d3LnczLm9yZy8yMDAwL3N2ZyIgeG1sbnM9Imh0dHA6Ly93d3cudzMub3JnLzIwMDAvc3ZnIiB4bWxuczp4bGluaz0iaHR0cDovL3d3dy53My5vcmcvMTk5OS94bGluayIgdmVyc2lvbj0iMS4xIiBpZD0ic3ZnODM4NzMiIGlua3NjYXBlOnZlcnNpb249IjAuOTIuMyAoMjQwNTU0NiwgMjAxOC0wMy0xMSkiIHNvZGlwb2RpOmRvY25hbWU9InF1ZXVlLnN2ZyIgeD0iMHB4IiB5PSIwcHgiIHZpZXdCb3g9IjAgMCAxMDguNTMgNTIuODQiIHN0eWxlPSJlbmFibGUtYmFja2dyb3VuZDpuZXcgMCAwIDEwOC41MyA1Mi44NDsiIHhtbDpzcGFjZT0icHJlc2VydmUiPiYjeGE7PHNvZGlwb2RpOm5hbWVkdmlldyBib3JkZXJjb2xvcj0iIzY2NjY2NiIgYm9yZGVyb3BhY2l0eT0iMSIgZml0LW1hcmdpbi1ib3R0b209IjAiIGZpdC1tYXJnaW4tbGVmdD0iMCIgZml0LW1hcmdpbi1yaWdodD0iMCIgZml0LW1hcmdpbi10b3A9IjAiIGdyaWR0b2xlcmFuY2U9IjEwIiBndWlkZXRvbGVyYW5jZT0iMTAiIGlkPSJuYW1lZHZpZXc4Mzg3NSIgaW5rc2NhcGU6Y3VycmVudC1sYXllcj0ic3ZnODM4NzMiIGlua3NjYXBlOmN4PSI4Ny44NDUyMjIiIGlua3NjYXBlOmN5PSItNy44NDQ4OTU4IiBpbmtzY2FwZTpwYWdlb3BhY2l0eT0iMCIgaW5rc2NhcGU6cGFnZXNoYWRvdz0iMiIgaW5rc2NhcGU6d2luZG93LWhlaWdodD0iMTAxNyIgaW5rc2NhcGU6d2luZG93LW1heGltaXplZD0iMSIgaW5rc2NhcGU6d2luZG93LXdpZHRoPSIxOTIwIiBpbmtzY2FwZTp3aW5kb3cteD0iLTgiIGlua3NjYXBlOndpbmRvdy15PSItOCIgaW5rc2NhcGU6em9vbT0iMy41MjA3MTQyIiBvYmplY3R0b2xlcmFuY2U9IjEwIiBwYWdlY29sb3I9IiNmZmZmZmYiIHNob3dncmlkPSJmYWxzZSI+JiN4YTsJPC9zb2RpcG9kaTpuYW1lZHZpZXc+JiN4YTs8ZyBpZD0iZzgzODcxIiB0cmFuc2Zvcm09InRyYW5zbGF0ZSgwLC00Ljc1MjM3MTJlLTUpIj4mI3hhOwk8dGl0bGUgaWQ9InRpdGxlODM4NjQiPlBhZ2UtMTwvdGl0bGU+JiN4YTsJPGcgaWQ9InNoYXBlNDUwMy0xIj4mI3hhOwkJPHRpdGxlIGlkPSJ0aXRsZTgzODY2Ij5RdWV1ZTwvdGl0bGU+JiN4YTsJCTxwYXRoIGlkPSJwYXRoODM4NjgiIGlua3NjYXBlOmNvbm5lY3Rvci1jdXJ2YXR1cmU9IjAiIHN0eWxlPSJmaWxsOiMzRjU3NjU7IiBkPSJNMTA2LjI1LDBDMi4yOSwwLDIuMjksMCwyLjI5LDAgICAgQzEuMTUsMCwwLDEuMTUsMCwyLjI4YzAsNDguMjksMCw0OC4yOSwwLDQ4LjI5YzAsMS4xNCwxLjE1LDIuMjcsMi4yOSwyLjI3YzEwMy45NiwwLDEwMy45NiwwLDEwMy45NiwwICAgIGMxLjMzLDAsMi4yOC0xLjEzLDIuMjgtMi4yN2MwLTQ4LjI5LDAtNDguMjksMC00OC4yOUMxMDguNTMsMS4xNSwxMDcuNTgsMCwxMDYuMjUsMHogTTIyLjY2LDQ2LjE5Yy0xNS44LDAtMTUuOCwwLTE1LjgsMCAgICBjMC0zOS4zNCwwLTM5LjM0LDAtMzkuMzRjMTUuOCwwLDE1LjgsMCwxNS44LDBWNDYuMTl6IE00Mi40Niw0Ni4xOWMtMTUuOTksMC0xNS45OSwwLTE1Ljk5LDBjMC0zOS4zNCwwLTM5LjM0LDAtMzkuMzQgICAgYzE1Ljk5LDAsMTUuOTksMCwxNS45OSwwVjQ2LjE5eiBNNjIuNDYsNDYuMTljLTE2LjE5LDAtMTYuMTksMC0xNi4xOSwwYzAtMzkuMzQsMC0zOS4zNCwwLTM5LjM0YzE2LjE5LDAsMTYuMTksMCwxNi4xOSwwVjQ2LjE5eiAgICAgTTgyLjQ1LDQ2LjE5Yy0xNi4xOSwwLTE2LjE5LDAtMTYuMTksMGMwLTM5LjM0LDAtMzkuMzQsMC0zOS4zNGMxNi4xOSwwLDE2LjE5LDAsMTYuMTksMFY0Ni4xOXogTTEwMi4wNiw0Ni4xOSAgICBjLTE1LjgsMC0xNS44LDAtMTUuOCwwYzAtMzkuMzQsMC0zOS4zNCwwLTM5LjM0YzE1LjgsMCwxNS44LDAsMTUuOCwwVjQ2LjE5eiIvPiYjeGE7CTwvZz4mI3hhOzwvZz4mI3hhOzwvc3ZnPg==;imageBackground=#663300;fillColor=#663300;" vertex="1" parent="1">
          <mxGeometry x="850" y="-420.5" width="109" height="53" as="geometry" />
        </mxCell>
        <mxCell id="8jfeb4-xBnSfNOuZoPy4-32" style="edgeStyle=orthogonalEdgeStyle;rounded=0;orthogonalLoop=1;jettySize=auto;html=1;entryX=0;entryY=0.75;entryDx=0;entryDy=0;" edge="1" parent="1" source="8jfeb4-xBnSfNOuZoPy4-33" target="8jfeb4-xBnSfNOuZoPy4-9">
          <mxGeometry relative="1" as="geometry" />
        </mxCell>
        <mxCell id="8jfeb4-xBnSfNOuZoPy4-33" value="TAPS table-based topic" style="shape=image;verticalLabelPosition=bottom;labelBackgroundColor=#ffffff;verticalAlign=top;aspect=fixed;imageAspect=0;image=data:image/svg+xml,PHN2ZyB4bWxuczpjYz0iaHR0cDovL2NyZWF0aXZlY29tbW9ucy5vcmcvbnMjIiB4bWxuczpkYz0iaHR0cDovL3B1cmwub3JnL2RjL2VsZW1lbnRzLzEuMS8iIHhtbG5zOmlua3NjYXBlPSJodHRwOi8vd3d3Lmlua3NjYXBlLm9yZy9uYW1lc3BhY2VzL2lua3NjYXBlIiB4bWxuczpyZGY9Imh0dHA6Ly93d3cudzMub3JnLzE5OTkvMDIvMjItcmRmLXN5bnRheC1ucyMiIHhtbG5zOnNvZGlwb2RpPSJodHRwOi8vc29kaXBvZGkuc291cmNlZm9yZ2UubmV0L0RURC9zb2RpcG9kaS0wLmR0ZCIgeG1sbnM6c3ZnPSJodHRwOi8vd3d3LnczLm9yZy8yMDAwL3N2ZyIgeG1sbnM9Imh0dHA6Ly93d3cudzMub3JnLzIwMDAvc3ZnIiB4bWxuczp4bGluaz0iaHR0cDovL3d3dy53My5vcmcvMTk5OS94bGluayIgdmVyc2lvbj0iMS4xIiBpZD0ic3ZnODM4NzMiIGlua3NjYXBlOnZlcnNpb249IjAuOTIuMyAoMjQwNTU0NiwgMjAxOC0wMy0xMSkiIHNvZGlwb2RpOmRvY25hbWU9InF1ZXVlLnN2ZyIgeD0iMHB4IiB5PSIwcHgiIHZpZXdCb3g9IjAgMCAxMDguNTMgNTIuODQiIHN0eWxlPSJlbmFibGUtYmFja2dyb3VuZDpuZXcgMCAwIDEwOC41MyA1Mi44NDsiIHhtbDpzcGFjZT0icHJlc2VydmUiPiYjeGE7PHNvZGlwb2RpOm5hbWVkdmlldyBib3JkZXJjb2xvcj0iIzY2NjY2NiIgYm9yZGVyb3BhY2l0eT0iMSIgZml0LW1hcmdpbi1ib3R0b209IjAiIGZpdC1tYXJnaW4tbGVmdD0iMCIgZml0LW1hcmdpbi1yaWdodD0iMCIgZml0LW1hcmdpbi10b3A9IjAiIGdyaWR0b2xlcmFuY2U9IjEwIiBndWlkZXRvbGVyYW5jZT0iMTAiIGlkPSJuYW1lZHZpZXc4Mzg3NSIgaW5rc2NhcGU6Y3VycmVudC1sYXllcj0ic3ZnODM4NzMiIGlua3NjYXBlOmN4PSI4Ny44NDUyMjIiIGlua3NjYXBlOmN5PSItNy44NDQ4OTU4IiBpbmtzY2FwZTpwYWdlb3BhY2l0eT0iMCIgaW5rc2NhcGU6cGFnZXNoYWRvdz0iMiIgaW5rc2NhcGU6d2luZG93LWhlaWdodD0iMTAxNyIgaW5rc2NhcGU6d2luZG93LW1heGltaXplZD0iMSIgaW5rc2NhcGU6d2luZG93LXdpZHRoPSIxOTIwIiBpbmtzY2FwZTp3aW5kb3cteD0iLTgiIGlua3NjYXBlOndpbmRvdy15PSItOCIgaW5rc2NhcGU6em9vbT0iMy41MjA3MTQyIiBvYmplY3R0b2xlcmFuY2U9IjEwIiBwYWdlY29sb3I9IiNmZmZmZmYiIHNob3dncmlkPSJmYWxzZSI+JiN4YTsJPC9zb2RpcG9kaTpuYW1lZHZpZXc+JiN4YTs8ZyBpZD0iZzgzODcxIiB0cmFuc2Zvcm09InRyYW5zbGF0ZSgwLC00Ljc1MjM3MTJlLTUpIj4mI3hhOwk8dGl0bGUgaWQ9InRpdGxlODM4NjQiPlBhZ2UtMTwvdGl0bGU+JiN4YTsJPGcgaWQ9InNoYXBlNDUwMy0xIj4mI3hhOwkJPHRpdGxlIGlkPSJ0aXRsZTgzODY2Ij5RdWV1ZTwvdGl0bGU+JiN4YTsJCTxwYXRoIGlkPSJwYXRoODM4NjgiIGlua3NjYXBlOmNvbm5lY3Rvci1jdXJ2YXR1cmU9IjAiIHN0eWxlPSJmaWxsOiMzRjU3NjU7IiBkPSJNMTA2LjI1LDBDMi4yOSwwLDIuMjksMCwyLjI5LDAgICAgQzEuMTUsMCwwLDEuMTUsMCwyLjI4YzAsNDguMjksMCw0OC4yOSwwLDQ4LjI5YzAsMS4xNCwxLjE1LDIuMjcsMi4yOSwyLjI3YzEwMy45NiwwLDEwMy45NiwwLDEwMy45NiwwICAgIGMxLjMzLDAsMi4yOC0xLjEzLDIuMjgtMi4yN2MwLTQ4LjI5LDAtNDguMjksMC00OC4yOUMxMDguNTMsMS4xNSwxMDcuNTgsMCwxMDYuMjUsMHogTTIyLjY2LDQ2LjE5Yy0xNS44LDAtMTUuOCwwLTE1LjgsMCAgICBjMC0zOS4zNCwwLTM5LjM0LDAtMzkuMzRjMTUuOCwwLDE1LjgsMCwxNS44LDBWNDYuMTl6IE00Mi40Niw0Ni4xOWMtMTUuOTksMC0xNS45OSwwLTE1Ljk5LDBjMC0zOS4zNCwwLTM5LjM0LDAtMzkuMzQgICAgYzE1Ljk5LDAsMTUuOTksMCwxNS45OSwwVjQ2LjE5eiBNNjIuNDYsNDYuMTljLTE2LjE5LDAtMTYuMTksMC0xNi4xOSwwYzAtMzkuMzQsMC0zOS4zNCwwLTM5LjM0YzE2LjE5LDAsMTYuMTksMCwxNi4xOSwwVjQ2LjE5eiAgICAgTTgyLjQ1LDQ2LjE5Yy0xNi4xOSwwLTE2LjE5LDAtMTYuMTksMGMwLTM5LjM0LDAtMzkuMzQsMC0zOS4zNGMxNi4xOSwwLDE2LjE5LDAsMTYuMTksMFY0Ni4xOXogTTEwMi4wNiw0Ni4xOSAgICBjLTE1LjgsMC0xNS44LDAtMTUuOCwwYzAtMzkuMzQsMC0zOS4zNCwwLTM5LjM0YzE1LjgsMCwxNS44LDAsMTUuOCwwVjQ2LjE5eiIvPiYjeGE7CTwvZz4mI3hhOzwvZz4mI3hhOzwvc3ZnPg==;imageBackground=#663300;fillColor=#663300;" vertex="1" parent="1">
          <mxGeometry x="850" y="-328" width="109" height="53" as="geometry" />
        </mxCell>
        <mxCell id="8jfeb4-xBnSfNOuZoPy4-71" style="edgeStyle=orthogonalEdgeStyle;rounded=0;orthogonalLoop=1;jettySize=auto;html=1;entryX=-0.085;entryY=0.472;entryDx=0;entryDy=0;entryPerimeter=0;" edge="1" parent="1" source="8jfeb4-xBnSfNOuZoPy4-35" target="8jfeb4-xBnSfNOuZoPy4-68">
          <mxGeometry relative="1" as="geometry" />
        </mxCell>
        <mxCell id="8jfeb4-xBnSfNOuZoPy4-35" value="PostgreSql DB table" style="aspect=fixed;html=1;points=[];align=center;image;fontSize=12;image=img/lib/azure2/databases/Azure_Cosmos_DB.svg;imageBackground=#663300;" vertex="1" parent="1">
          <mxGeometry x="1220" y="-523.5" width="64" height="64" as="geometry" />
        </mxCell>
        <mxCell id="8jfeb4-xBnSfNOuZoPy4-72" style="edgeStyle=orthogonalEdgeStyle;rounded=0;orthogonalLoop=1;jettySize=auto;html=1;entryX=-0.068;entryY=0.512;entryDx=0;entryDy=0;entryPerimeter=0;" edge="1" parent="1" source="8jfeb4-xBnSfNOuZoPy4-39" target="8jfeb4-xBnSfNOuZoPy4-69">
          <mxGeometry relative="1" as="geometry" />
        </mxCell>
        <mxCell id="8jfeb4-xBnSfNOuZoPy4-39" value="PostgreSql DB table" style="aspect=fixed;html=1;points=[];align=center;image;fontSize=12;image=img/lib/azure2/databases/Azure_Cosmos_DB.svg;imageBackground=#663300;" vertex="1" parent="1">
          <mxGeometry x="1220" y="-328" width="64" height="64" as="geometry" />
        </mxCell>
        <mxCell id="8jfeb4-xBnSfNOuZoPy4-53" value="&lt;h1&gt;Middleware Application&lt;/h1&gt;&lt;p&gt;&lt;/p&gt;&lt;ul&gt;&lt;li&gt;Consume data from hub private cluster topics.&lt;/li&gt;&lt;li&gt;Map the events to PIMCO compliant Avro schema.&lt;/li&gt;&lt;li&gt;Produce the data to Public cluster from where PIMCO starts to consume it.&lt;/li&gt;&lt;/ul&gt;&lt;p&gt;&lt;/p&gt;&lt;p&gt;&lt;br&gt;&lt;/p&gt;" style="text;html=1;strokeColor=none;fillColor=none;spacing=5;spacingTop=-20;whiteSpace=wrap;overflow=hidden;rounded=0;" vertex="1" parent="1">
          <mxGeometry x="2010.5" y="-250" width="450" height="114.5" as="geometry" />
        </mxCell>
        <mxCell id="8jfeb4-xBnSfNOuZoPy4-54" style="edgeStyle=orthogonalEdgeStyle;rounded=0;orthogonalLoop=1;jettySize=auto;html=1;entryX=0;entryY=0.5;entryDx=0;entryDy=0;" edge="1" parent="1" source="8jfeb4-xBnSfNOuZoPy4-55" target="8jfeb4-xBnSfNOuZoPy4-63">
          <mxGeometry relative="1" as="geometry" />
        </mxCell>
        <mxCell id="8jfeb4-xBnSfNOuZoPy4-55" value="TAPS table-based topic" style="shape=image;verticalLabelPosition=bottom;labelBackgroundColor=#ffffff;verticalAlign=top;aspect=fixed;imageAspect=0;image=data:image/svg+xml,PHN2ZyB4bWxuczpjYz0iaHR0cDovL2NyZWF0aXZlY29tbW9ucy5vcmcvbnMjIiB4bWxuczpkYz0iaHR0cDovL3B1cmwub3JnL2RjL2VsZW1lbnRzLzEuMS8iIHhtbG5zOmlua3NjYXBlPSJodHRwOi8vd3d3Lmlua3NjYXBlLm9yZy9uYW1lc3BhY2VzL2lua3NjYXBlIiB4bWxuczpyZGY9Imh0dHA6Ly93d3cudzMub3JnLzE5OTkvMDIvMjItcmRmLXN5bnRheC1ucyMiIHhtbG5zOnNvZGlwb2RpPSJodHRwOi8vc29kaXBvZGkuc291cmNlZm9yZ2UubmV0L0RURC9zb2RpcG9kaS0wLmR0ZCIgeG1sbnM6c3ZnPSJodHRwOi8vd3d3LnczLm9yZy8yMDAwL3N2ZyIgeG1sbnM9Imh0dHA6Ly93d3cudzMub3JnLzIwMDAvc3ZnIiB4bWxuczp4bGluaz0iaHR0cDovL3d3dy53My5vcmcvMTk5OS94bGluayIgdmVyc2lvbj0iMS4xIiBpZD0ic3ZnODM4NzMiIGlua3NjYXBlOnZlcnNpb249IjAuOTIuMyAoMjQwNTU0NiwgMjAxOC0wMy0xMSkiIHNvZGlwb2RpOmRvY25hbWU9InF1ZXVlLnN2ZyIgeD0iMHB4IiB5PSIwcHgiIHZpZXdCb3g9IjAgMCAxMDguNTMgNTIuODQiIHN0eWxlPSJlbmFibGUtYmFja2dyb3VuZDpuZXcgMCAwIDEwOC41MyA1Mi44NDsiIHhtbDpzcGFjZT0icHJlc2VydmUiPiYjeGE7PHNvZGlwb2RpOm5hbWVkdmlldyBib3JkZXJjb2xvcj0iIzY2NjY2NiIgYm9yZGVyb3BhY2l0eT0iMSIgZml0LW1hcmdpbi1ib3R0b209IjAiIGZpdC1tYXJnaW4tbGVmdD0iMCIgZml0LW1hcmdpbi1yaWdodD0iMCIgZml0LW1hcmdpbi10b3A9IjAiIGdyaWR0b2xlcmFuY2U9IjEwIiBndWlkZXRvbGVyYW5jZT0iMTAiIGlkPSJuYW1lZHZpZXc4Mzg3NSIgaW5rc2NhcGU6Y3VycmVudC1sYXllcj0ic3ZnODM4NzMiIGlua3NjYXBlOmN4PSI4Ny44NDUyMjIiIGlua3NjYXBlOmN5PSItNy44NDQ4OTU4IiBpbmtzY2FwZTpwYWdlb3BhY2l0eT0iMCIgaW5rc2NhcGU6cGFnZXNoYWRvdz0iMiIgaW5rc2NhcGU6d2luZG93LWhlaWdodD0iMTAxNyIgaW5rc2NhcGU6d2luZG93LW1heGltaXplZD0iMSIgaW5rc2NhcGU6d2luZG93LXdpZHRoPSIxOTIwIiBpbmtzY2FwZTp3aW5kb3cteD0iLTgiIGlua3NjYXBlOndpbmRvdy15PSItOCIgaW5rc2NhcGU6em9vbT0iMy41MjA3MTQyIiBvYmplY3R0b2xlcmFuY2U9IjEwIiBwYWdlY29sb3I9IiNmZmZmZmYiIHNob3dncmlkPSJmYWxzZSI+JiN4YTsJPC9zb2RpcG9kaTpuYW1lZHZpZXc+JiN4YTs8ZyBpZD0iZzgzODcxIiB0cmFuc2Zvcm09InRyYW5zbGF0ZSgwLC00Ljc1MjM3MTJlLTUpIj4mI3hhOwk8dGl0bGUgaWQ9InRpdGxlODM4NjQiPlBhZ2UtMTwvdGl0bGU+JiN4YTsJPGcgaWQ9InNoYXBlNDUwMy0xIj4mI3hhOwkJPHRpdGxlIGlkPSJ0aXRsZTgzODY2Ij5RdWV1ZTwvdGl0bGU+JiN4YTsJCTxwYXRoIGlkPSJwYXRoODM4NjgiIGlua3NjYXBlOmNvbm5lY3Rvci1jdXJ2YXR1cmU9IjAiIHN0eWxlPSJmaWxsOiMzRjU3NjU7IiBkPSJNMTA2LjI1LDBDMi4yOSwwLDIuMjksMCwyLjI5LDAgICAgQzEuMTUsMCwwLDEuMTUsMCwyLjI4YzAsNDguMjksMCw0OC4yOSwwLDQ4LjI5YzAsMS4xNCwxLjE1LDIuMjcsMi4yOSwyLjI3YzEwMy45NiwwLDEwMy45NiwwLDEwMy45NiwwICAgIGMxLjMzLDAsMi4yOC0xLjEzLDIuMjgtMi4yN2MwLTQ4LjI5LDAtNDguMjksMC00OC4yOUMxMDguNTMsMS4xNSwxMDcuNTgsMCwxMDYuMjUsMHogTTIyLjY2LDQ2LjE5Yy0xNS44LDAtMTUuOCwwLTE1LjgsMCAgICBjMC0zOS4zNCwwLTM5LjM0LDAtMzkuMzRjMTUuOCwwLDE1LjgsMCwxNS44LDBWNDYuMTl6IE00Mi40Niw0Ni4xOWMtMTUuOTksMC0xNS45OSwwLTE1Ljk5LDBjMC0zOS4zNCwwLTM5LjM0LDAtMzkuMzQgICAgYzE1Ljk5LDAsMTUuOTksMCwxNS45OSwwVjQ2LjE5eiBNNjIuNDYsNDYuMTljLTE2LjE5LDAtMTYuMTksMC0xNi4xOSwwYzAtMzkuMzQsMC0zOS4zNCwwLTM5LjM0YzE2LjE5LDAsMTYuMTksMCwxNi4xOSwwVjQ2LjE5eiAgICAgTTgyLjQ1LDQ2LjE5Yy0xNi4xOSwwLTE2LjE5LDAtMTYuMTksMGMwLTM5LjM0LDAtMzkuMzQsMC0zOS4zNGMxNi4xOSwwLDE2LjE5LDAsMTYuMTksMFY0Ni4xOXogTTEwMi4wNiw0Ni4xOSAgICBjLTE1LjgsMC0xNS44LDAtMTUuOCwwYzAtMzkuMzQsMC0zOS4zNCwwLTM5LjM0YzE1LjgsMCwxNS44LDAsMTUuOCwwVjQ2LjE5eiIvPiYjeGE7CTwvZz4mI3hhOzwvZz4mI3hhOzwvc3ZnPg==;imageBackground=#663300;fillColor=#663300;" vertex="1" parent="1">
          <mxGeometry x="470" y="-518" width="109" height="53" as="geometry" />
        </mxCell>
        <mxCell id="8jfeb4-xBnSfNOuZoPy4-56" style="edgeStyle=orthogonalEdgeStyle;rounded=0;orthogonalLoop=1;jettySize=auto;html=1;entryX=0;entryY=0.5;entryDx=0;entryDy=0;" edge="1" parent="1" source="8jfeb4-xBnSfNOuZoPy4-57" target="8jfeb4-xBnSfNOuZoPy4-63">
          <mxGeometry relative="1" as="geometry" />
        </mxCell>
        <mxCell id="8jfeb4-xBnSfNOuZoPy4-57" value="TAPS table-based topic" style="shape=image;verticalLabelPosition=bottom;labelBackgroundColor=#ffffff;verticalAlign=top;aspect=fixed;imageAspect=0;image=data:image/svg+xml,PHN2ZyB4bWxuczpjYz0iaHR0cDovL2NyZWF0aXZlY29tbW9ucy5vcmcvbnMjIiB4bWxuczpkYz0iaHR0cDovL3B1cmwub3JnL2RjL2VsZW1lbnRzLzEuMS8iIHhtbG5zOmlua3NjYXBlPSJodHRwOi8vd3d3Lmlua3NjYXBlLm9yZy9uYW1lc3BhY2VzL2lua3NjYXBlIiB4bWxuczpyZGY9Imh0dHA6Ly93d3cudzMub3JnLzE5OTkvMDIvMjItcmRmLXN5bnRheC1ucyMiIHhtbG5zOnNvZGlwb2RpPSJodHRwOi8vc29kaXBvZGkuc291cmNlZm9yZ2UubmV0L0RURC9zb2RpcG9kaS0wLmR0ZCIgeG1sbnM6c3ZnPSJodHRwOi8vd3d3LnczLm9yZy8yMDAwL3N2ZyIgeG1sbnM9Imh0dHA6Ly93d3cudzMub3JnLzIwMDAvc3ZnIiB4bWxuczp4bGluaz0iaHR0cDovL3d3dy53My5vcmcvMTk5OS94bGluayIgdmVyc2lvbj0iMS4xIiBpZD0ic3ZnODM4NzMiIGlua3NjYXBlOnZlcnNpb249IjAuOTIuMyAoMjQwNTU0NiwgMjAxOC0wMy0xMSkiIHNvZGlwb2RpOmRvY25hbWU9InF1ZXVlLnN2ZyIgeD0iMHB4IiB5PSIwcHgiIHZpZXdCb3g9IjAgMCAxMDguNTMgNTIuODQiIHN0eWxlPSJlbmFibGUtYmFja2dyb3VuZDpuZXcgMCAwIDEwOC41MyA1Mi44NDsiIHhtbDpzcGFjZT0icHJlc2VydmUiPiYjeGE7PHNvZGlwb2RpOm5hbWVkdmlldyBib3JkZXJjb2xvcj0iIzY2NjY2NiIgYm9yZGVyb3BhY2l0eT0iMSIgZml0LW1hcmdpbi1ib3R0b209IjAiIGZpdC1tYXJnaW4tbGVmdD0iMCIgZml0LW1hcmdpbi1yaWdodD0iMCIgZml0LW1hcmdpbi10b3A9IjAiIGdyaWR0b2xlcmFuY2U9IjEwIiBndWlkZXRvbGVyYW5jZT0iMTAiIGlkPSJuYW1lZHZpZXc4Mzg3NSIgaW5rc2NhcGU6Y3VycmVudC1sYXllcj0ic3ZnODM4NzMiIGlua3NjYXBlOmN4PSI4Ny44NDUyMjIiIGlua3NjYXBlOmN5PSItNy44NDQ4OTU4IiBpbmtzY2FwZTpwYWdlb3BhY2l0eT0iMCIgaW5rc2NhcGU6cGFnZXNoYWRvdz0iMiIgaW5rc2NhcGU6d2luZG93LWhlaWdodD0iMTAxNyIgaW5rc2NhcGU6d2luZG93LW1heGltaXplZD0iMSIgaW5rc2NhcGU6d2luZG93LXdpZHRoPSIxOTIwIiBpbmtzY2FwZTp3aW5kb3cteD0iLTgiIGlua3NjYXBlOndpbmRvdy15PSItOCIgaW5rc2NhcGU6em9vbT0iMy41MjA3MTQyIiBvYmplY3R0b2xlcmFuY2U9IjEwIiBwYWdlY29sb3I9IiNmZmZmZmYiIHNob3dncmlkPSJmYWxzZSI+JiN4YTsJPC9zb2RpcG9kaTpuYW1lZHZpZXc+JiN4YTs8ZyBpZD0iZzgzODcxIiB0cmFuc2Zvcm09InRyYW5zbGF0ZSgwLC00Ljc1MjM3MTJlLTUpIj4mI3hhOwk8dGl0bGUgaWQ9InRpdGxlODM4NjQiPlBhZ2UtMTwvdGl0bGU+JiN4YTsJPGcgaWQ9InNoYXBlNDUwMy0xIj4mI3hhOwkJPHRpdGxlIGlkPSJ0aXRsZTgzODY2Ij5RdWV1ZTwvdGl0bGU+JiN4YTsJCTxwYXRoIGlkPSJwYXRoODM4NjgiIGlua3NjYXBlOmNvbm5lY3Rvci1jdXJ2YXR1cmU9IjAiIHN0eWxlPSJmaWxsOiMzRjU3NjU7IiBkPSJNMTA2LjI1LDBDMi4yOSwwLDIuMjksMCwyLjI5LDAgICAgQzEuMTUsMCwwLDEuMTUsMCwyLjI4YzAsNDguMjksMCw0OC4yOSwwLDQ4LjI5YzAsMS4xNCwxLjE1LDIuMjcsMi4yOSwyLjI3YzEwMy45NiwwLDEwMy45NiwwLDEwMy45NiwwICAgIGMxLjMzLDAsMi4yOC0xLjEzLDIuMjgtMi4yN2MwLTQ4LjI5LDAtNDguMjksMC00OC4yOUMxMDguNTMsMS4xNSwxMDcuNTgsMCwxMDYuMjUsMHogTTIyLjY2LDQ2LjE5Yy0xNS44LDAtMTUuOCwwLTE1LjgsMCAgICBjMC0zOS4zNCwwLTM5LjM0LDAtMzkuMzRjMTUuOCwwLDE1LjgsMCwxNS44LDBWNDYuMTl6IE00Mi40Niw0Ni4xOWMtMTUuOTksMC0xNS45OSwwLTE1Ljk5LDBjMC0zOS4zNCwwLTM5LjM0LDAtMzkuMzQgICAgYzE1Ljk5LDAsMTUuOTksMCwxNS45OSwwVjQ2LjE5eiBNNjIuNDYsNDYuMTljLTE2LjE5LDAtMTYuMTksMC0xNi4xOSwwYzAtMzkuMzQsMC0zOS4zNCwwLTM5LjM0YzE2LjE5LDAsMTYuMTksMCwxNi4xOSwwVjQ2LjE5eiAgICAgTTgyLjQ1LDQ2LjE5Yy0xNi4xOSwwLTE2LjE5LDAtMTYuMTksMGMwLTM5LjM0LDAtMzkuMzQsMC0zOS4zNGMxNi4xOSwwLDE2LjE5LDAsMTYuMTksMFY0Ni4xOXogTTEwMi4wNiw0Ni4xOSAgICBjLTE1LjgsMC0xNS44LDAtMTUuOCwwYzAtMzkuMzQsMC0zOS4zNCwwLTM5LjM0YzE1LjgsMCwxNS44LDAsMTUuOCwwVjQ2LjE5eiIvPiYjeGE7CTwvZz4mI3hhOzwvZz4mI3hhOzwvc3ZnPg==;imageBackground=#663300;fillColor=#663300;" vertex="1" parent="1">
          <mxGeometry x="470" y="-420.5" width="109" height="53" as="geometry" />
        </mxCell>
        <mxCell id="8jfeb4-xBnSfNOuZoPy4-58" style="edgeStyle=orthogonalEdgeStyle;rounded=0;orthogonalLoop=1;jettySize=auto;html=1;entryX=0;entryY=0.5;entryDx=0;entryDy=0;" edge="1" parent="1" source="8jfeb4-xBnSfNOuZoPy4-59" target="8jfeb4-xBnSfNOuZoPy4-63">
          <mxGeometry relative="1" as="geometry" />
        </mxCell>
        <mxCell id="8jfeb4-xBnSfNOuZoPy4-59" value="TAPS table-based topic" style="shape=image;verticalLabelPosition=bottom;labelBackgroundColor=#ffffff;verticalAlign=top;aspect=fixed;imageAspect=0;image=data:image/svg+xml,PHN2ZyB4bWxuczpjYz0iaHR0cDovL2NyZWF0aXZlY29tbW9ucy5vcmcvbnMjIiB4bWxuczpkYz0iaHR0cDovL3B1cmwub3JnL2RjL2VsZW1lbnRzLzEuMS8iIHhtbG5zOmlua3NjYXBlPSJodHRwOi8vd3d3Lmlua3NjYXBlLm9yZy9uYW1lc3BhY2VzL2lua3NjYXBlIiB4bWxuczpyZGY9Imh0dHA6Ly93d3cudzMub3JnLzE5OTkvMDIvMjItcmRmLXN5bnRheC1ucyMiIHhtbG5zOnNvZGlwb2RpPSJodHRwOi8vc29kaXBvZGkuc291cmNlZm9yZ2UubmV0L0RURC9zb2RpcG9kaS0wLmR0ZCIgeG1sbnM6c3ZnPSJodHRwOi8vd3d3LnczLm9yZy8yMDAwL3N2ZyIgeG1sbnM9Imh0dHA6Ly93d3cudzMub3JnLzIwMDAvc3ZnIiB4bWxuczp4bGluaz0iaHR0cDovL3d3dy53My5vcmcvMTk5OS94bGluayIgdmVyc2lvbj0iMS4xIiBpZD0ic3ZnODM4NzMiIGlua3NjYXBlOnZlcnNpb249IjAuOTIuMyAoMjQwNTU0NiwgMjAxOC0wMy0xMSkiIHNvZGlwb2RpOmRvY25hbWU9InF1ZXVlLnN2ZyIgeD0iMHB4IiB5PSIwcHgiIHZpZXdCb3g9IjAgMCAxMDguNTMgNTIuODQiIHN0eWxlPSJlbmFibGUtYmFja2dyb3VuZDpuZXcgMCAwIDEwOC41MyA1Mi44NDsiIHhtbDpzcGFjZT0icHJlc2VydmUiPiYjeGE7PHNvZGlwb2RpOm5hbWVkdmlldyBib3JkZXJjb2xvcj0iIzY2NjY2NiIgYm9yZGVyb3BhY2l0eT0iMSIgZml0LW1hcmdpbi1ib3R0b209IjAiIGZpdC1tYXJnaW4tbGVmdD0iMCIgZml0LW1hcmdpbi1yaWdodD0iMCIgZml0LW1hcmdpbi10b3A9IjAiIGdyaWR0b2xlcmFuY2U9IjEwIiBndWlkZXRvbGVyYW5jZT0iMTAiIGlkPSJuYW1lZHZpZXc4Mzg3NSIgaW5rc2NhcGU6Y3VycmVudC1sYXllcj0ic3ZnODM4NzMiIGlua3NjYXBlOmN4PSI4Ny44NDUyMjIiIGlua3NjYXBlOmN5PSItNy44NDQ4OTU4IiBpbmtzY2FwZTpwYWdlb3BhY2l0eT0iMCIgaW5rc2NhcGU6cGFnZXNoYWRvdz0iMiIgaW5rc2NhcGU6d2luZG93LWhlaWdodD0iMTAxNyIgaW5rc2NhcGU6d2luZG93LW1heGltaXplZD0iMSIgaW5rc2NhcGU6d2luZG93LXdpZHRoPSIxOTIwIiBpbmtzY2FwZTp3aW5kb3cteD0iLTgiIGlua3NjYXBlOndpbmRvdy15PSItOCIgaW5rc2NhcGU6em9vbT0iMy41MjA3MTQyIiBvYmplY3R0b2xlcmFuY2U9IjEwIiBwYWdlY29sb3I9IiNmZmZmZmYiIHNob3dncmlkPSJmYWxzZSI+JiN4YTsJPC9zb2RpcG9kaTpuYW1lZHZpZXc+JiN4YTs8ZyBpZD0iZzgzODcxIiB0cmFuc2Zvcm09InRyYW5zbGF0ZSgwLC00Ljc1MjM3MTJlLTUpIj4mI3hhOwk8dGl0bGUgaWQ9InRpdGxlODM4NjQiPlBhZ2UtMTwvdGl0bGU+JiN4YTsJPGcgaWQ9InNoYXBlNDUwMy0xIj4mI3hhOwkJPHRpdGxlIGlkPSJ0aXRsZTgzODY2Ij5RdWV1ZTwvdGl0bGU+JiN4YTsJCTxwYXRoIGlkPSJwYXRoODM4NjgiIGlua3NjYXBlOmNvbm5lY3Rvci1jdXJ2YXR1cmU9IjAiIHN0eWxlPSJmaWxsOiMzRjU3NjU7IiBkPSJNMTA2LjI1LDBDMi4yOSwwLDIuMjksMCwyLjI5LDAgICAgQzEuMTUsMCwwLDEuMTUsMCwyLjI4YzAsNDguMjksMCw0OC4yOSwwLDQ4LjI5YzAsMS4xNCwxLjE1LDIuMjcsMi4yOSwyLjI3YzEwMy45NiwwLDEwMy45NiwwLDEwMy45NiwwICAgIGMxLjMzLDAsMi4yOC0xLjEzLDIuMjgtMi4yN2MwLTQ4LjI5LDAtNDguMjksMC00OC4yOUMxMDguNTMsMS4xNSwxMDcuNTgsMCwxMDYuMjUsMHogTTIyLjY2LDQ2LjE5Yy0xNS44LDAtMTUuOCwwLTE1LjgsMCAgICBjMC0zOS4zNCwwLTM5LjM0LDAtMzkuMzRjMTUuOCwwLDE1LjgsMCwxNS44LDBWNDYuMTl6IE00Mi40Niw0Ni4xOWMtMTUuOTksMC0xNS45OSwwLTE1Ljk5LDBjMC0zOS4zNCwwLTM5LjM0LDAtMzkuMzQgICAgYzE1Ljk5LDAsMTUuOTksMCwxNS45OSwwVjQ2LjE5eiBNNjIuNDYsNDYuMTljLTE2LjE5LDAtMTYuMTksMC0xNi4xOSwwYzAtMzkuMzQsMC0zOS4zNCwwLTM5LjM0YzE2LjE5LDAsMTYuMTksMCwxNi4xOSwwVjQ2LjE5eiAgICAgTTgyLjQ1LDQ2LjE5Yy0xNi4xOSwwLTE2LjE5LDAtMTYuMTksMGMwLTM5LjM0LDAtMzkuMzQsMC0zOS4zNGMxNi4xOSwwLDE2LjE5LDAsMTYuMTksMFY0Ni4xOXogTTEwMi4wNiw0Ni4xOSAgICBjLTE1LjgsMC0xNS44LDAtMTUuOCwwYzAtMzkuMzQsMC0zOS4zNCwwLTM5LjM0YzE1LjgsMCwxNS44LDAsMTUuOCwwVjQ2LjE5eiIvPiYjeGE7CTwvZz4mI3hhOzwvZz4mI3hhOzwvc3ZnPg==;imageBackground=#663300;fillColor=#663300;" vertex="1" parent="1">
          <mxGeometry x="470" y="-328" width="109" height="53" as="geometry" />
        </mxCell>
        <mxCell id="8jfeb4-xBnSfNOuZoPy4-60" style="edgeStyle=orthogonalEdgeStyle;rounded=0;orthogonalLoop=1;jettySize=auto;html=1;entryX=0;entryY=0.5;entryDx=0;entryDy=0;" edge="1" parent="1" source="8jfeb4-xBnSfNOuZoPy4-63" target="8jfeb4-xBnSfNOuZoPy4-5">
          <mxGeometry relative="1" as="geometry" />
        </mxCell>
        <mxCell id="8jfeb4-xBnSfNOuZoPy4-61" style="edgeStyle=orthogonalEdgeStyle;rounded=0;orthogonalLoop=1;jettySize=auto;html=1;entryX=0;entryY=0.5;entryDx=0;entryDy=0;" edge="1" parent="1" source="8jfeb4-xBnSfNOuZoPy4-63" target="8jfeb4-xBnSfNOuZoPy4-31">
          <mxGeometry relative="1" as="geometry" />
        </mxCell>
        <mxCell id="8jfeb4-xBnSfNOuZoPy4-62" style="edgeStyle=orthogonalEdgeStyle;rounded=0;orthogonalLoop=1;jettySize=auto;html=1;entryX=0;entryY=0.5;entryDx=0;entryDy=0;" edge="1" parent="1" source="8jfeb4-xBnSfNOuZoPy4-63" target="8jfeb4-xBnSfNOuZoPy4-33">
          <mxGeometry relative="1" as="geometry" />
        </mxCell>
        <mxCell id="8jfeb4-xBnSfNOuZoPy4-63" value="" style="shape=image;verticalLabelPosition=bottom;labelBackgroundColor=default;verticalAlign=top;aspect=fixed;imageAspect=0;image=data:image/png,iVBORw0KGgoAAAANSUhEUgAAAL8AAADYCAYAAAC6GzLkAAABQ2lDQ1BJQ0MgUHJvZmlsZQAAKJFjYGASSCwoyGFhYGDIzSspCnJ3UoiIjFJgf8bAziDEwMvAxsCamFxc4BgQ4ANUwgCjUcG3awyMIPqyLsisxVymz+4kKm3bVPXMSulE7iNM9SiAKyW1OBlI/wHilOSCohIGBsYEIFu5vKQAxG4BskWKgI4CsmeA2OkQ9hoQOwnCPgBWExLkDGRfAbIFkjMSU4DsJ0C2ThKSeDoSG2ov2A0+wcZGjmYGBqEEHEsqKEmtKAHRzvkFlUWZ6RklCo7AEEpV8MxL1tNRMDIwMmJgAIU3RPXnG+BwZBTjQIgVpzMwWJoBBTkRYjHWDAzb4hkY+N4gxNRNgF7KYmA4bF6QWJQIdwDjN5biNGMjCJt7OwMD67T//z+HMzCwazIw/L3+///v7f///13GwMB8i4HhwDcAnqJd5toU3kMAAABWZVhJZk1NACoAAAAIAAGHaQAEAAAAAQAAABoAAAAAAAOShgAHAAAAEgAAAESgAgAEAAAAAQAAAL+gAwAEAAAAAQAAANgAAAAAQVNDSUkAAABTY3JlZW5zaG90fVdUJAAAAdZpVFh0WE1MOmNvbS5hZG9iZS54bXAAAAAAADx4OnhtcG1ldGEgeG1sbnM6eD0iYWRvYmU6bnM6bWV0YS8iIHg6eG1wdGs9IlhNUCBDb3JlIDYuMC4wIj4KICAgPHJkZjpSREYgeG1sbnM6cmRmPSJodHRwOi8vd3d3LnczLm9yZy8xOTk5LzAyLzIyLXJkZi1zeW50YXgtbnMjIj4KICAgICAgPHJkZjpEZXNjcmlwdGlvbiByZGY6YWJvdXQ9IiIKICAgICAgICAgICAgeG1sbnM6ZXhpZj0iaHR0cDovL25zLmFkb2JlLmNvbS9leGlmLzEuMC8iPgogICAgICAgICA8ZXhpZjpQaXhlbFlEaW1lbnNpb24+MjE2PC9leGlmOlBpeGVsWURpbWVuc2lvbj4KICAgICAgICAgPGV4aWY6UGl4ZWxYRGltZW5zaW9uPjE5MTwvZXhpZjpQaXhlbFhEaW1lbnNpb24+CiAgICAgICAgIDxleGlmOlVzZXJDb21tZW50PlNjcmVlbnNob3Q8L2V4aWY6VXNlckNvbW1lbnQ+CiAgICAgIDwvcmRmOkRlc2NyaXB0aW9uPgogICA8L3JkZjpSREY+CjwveDp4bXBtZXRhPgpt1CKBAABAAElEQVR4Ae2dB3xU15XGL6AuBBK9994MGAwGbDCucYljJ7bj9DjxZpNsNsmWX3azKU7Z7GbTe9lNT5ziuHfH3dhgwGB6R/QihAqoS/D2+9+ZN4xGb0YzajMjvQOjmXnz3q3fPfecc889t5cjMj75LdADW6B3D6yzX2W/BWwL+OD3gdBjW8AHf4/ter/iPvh9DPTYFvDB32O73q+4D34fAz22BXzw99iu9yvug9/HQI9tAR/8Pbbr/Yr74Pcx0GNbwAd/j+16v+I++H0M9NgW8MHfY7ver7gPfh8DPbYFfPD32K73K+6D38dAj20BH/w9tuv9ivvg9zHQY1vAB3+P7Xq/4j74fQz02Bbwwd9ju96vuA9+HwM9tgV88PfYrvcr7oPfx0CPbQEf/CnV9cQPc1/RCubHGIvWMolez0j0Af/+trdAXWOTKa2uMycqq82xMzXmWEWNOV1Vb8pr601NfZNpOn/OnBe2e+lfn969TXZmb1OYl22K9BpWkGuGF+aZEf3yzPD+eaZvdlbbC+I/aVvAB38nAqGmocHsLjlj3jh82rx56JTZc7LcHCs7a6oF+HPnmsy5JscQLdJ9URRHwIcCf/WuD731p3ef3qZ3Rm+Tk5NpBvfva8YN6W/mjB5kFoweaGaNGGgG9c21z/l/4m+BXn6szvgbK9qdVlARiBuazpnKugaz7XiZeX7nMfP89kPm2KlK01DbYM6LpYcEGhBtpRf7R8nqu4v28ExC9wR/5E3XejFEeO+tGSKrjynqn2/mTxhmrpw2yiyZONwM75erWaOPZg/mEK+EwzPpuZ998Lez72slypw8U2t2nCgzL+89YdbsOW4OCPx1EmVcwFv23SIesGApXAZeAYj24kuQArhnVjAShQLvwRETvOPCvXYw6GofAX5gUYGZN36IuUIDYcHYIWb0gL6mf44vIrntGv7ugz+8NRL4XFUvkebUWfPa3uPmpZ1HzdZDJ01lZY3EmfPwZaFaqHX0Dnr11lsyfJbAidiSLzDy6pufbQpysvU5w+RmZphMRBvdd/78eXNOM0WdZpKa+kZzVrNJVU2Dqa6rN9WaRWpqG02DBl2TfrczSHDQBN7IvZfJVj7jRwwwS6eOMldpIMwYXmiGFuQlUMPuf6sP/gT7uKah0Ww5Vm6e2X7YvLzziNl7tNTU1jQG5HaYMWDXf/5kZWeaQimoIwcVmDGD+pnxgwqt0jpMIBxckGMV2fzsDJOT0cdkCPTI9hbAeh5u36RXY9N5UyOgVwj8p2tQlmvMCc00B06fMQdOVZijGoCnKqpNrWaawEAgbwrCX8f0UdrDB/U3l0wZYa6fPVZi0VAzMC/H/t7T//jgjxMBTeLEu0vKzYMbi81zAv7+YxJtauoDWHdBr3sysjKs6DFrzCCzUHL41KGFZmRRvrXW9M/NMll9+lhswp0BegCmsQsRHEuCckD8YVBUaxCeOlsri1Gt2VdabjahVB84ZQ5J/KpVuUIylZJmEsrQrDO4qK8dBO9cOMksUdlyNNuQdjxliF3C9PzVB38c/VYpceMBgf5Pr+82uw+L01t5PogaARFw5fXNMTMla6+cPtosHDfUjB1QYAZJrMkR6Fygx5FVQrcAXGVvGiUmnZE4xKyw42SZeW7HEfOqXqWaHdA7JEvZdClnpsyng1W2a+dOMB9fMcuM1oDoqeSDv5We33ys1HzzqTfNqq0HJWvLagPiXE4v+T5P4stls8aZOxdNMReL2xdKpMiS7J4cbupIVzBWTDpcftbct36f+cvq3aZEJtZefVQiDQIGAIQlaLR0gs/dvNDcNHt84GIP++uD36PD4aYV4vb3byg2P/7bRnO8pNIqoPZWMKQP+fk5ZsmM0eauZTPMfIG+QPI9MrsXBfHm9VOnDRLq0KAZ4bj0gd+s2WXuf32XZoKzth62PHbGkl4ixfvtS6eZT105184CDIqeQj74I3q6Uaxzv8SFn720zTy2breplFztYLXRf5hnX3H6+RNHmDsXTzHLJw83/XJy7HUAxWKVGK85p3fAJ+wZrdlabuzK69YWY9kvwpDEEA0Yq+hqRNl3Xetjr3WMLE65GlSnnSfKze80Czy7pdiUqH5NUqQD2rXKoBlhturysSvnmJVTRmr1OFNPdX/ywR/Wx/Xnzpn1Won95aod5vmN+02NLCwW90Iylpvp44aYWxdMMjfOGWfdDAB7o9DVJHDV81kyUaOsj41yU9DirQW/tdGTh74DxBAFxpMGgMAv4DMQMsR1MzQwMntnmGyNtCy9uJallzswQs+34QNrEq/tP2F+s3qneXXbIXP2TB0jzqYkIJjhUs4/dMUc8y7VcYD0lfB1hzZkl/KP+OAPdhF+N8/vOiqOv9Vs2H3M1MvXxiJS7HuAlMIbFkw2ty2YaGZLTu7Vq4+p1UCpO+eYetnaGQDY5dEHXIAHIJVY/4c/y/N9BP5MgTNboyNHrg25MhRlYxaNIl7Fm9uRiirz6OaD5revbDP7NNhdhZjpqr9Wh99+6VQrBg2TmbY7kw9+9S4c/8FNxeanf9ts9hw+ZW3rwBiuPGX8YHP3CokDWijKycoU6LX4pPsb9S6sWDGnLUBPFFRw/ow+jgZCH5Mvi00+C2YosG3MnMG+WSvRP3x2s3n2jb129rKJqVI5muWWXzTefP0dl2qGy0+0qGlzf48Hf21Dk/nLxn3me09uMMdOVgrMsG+JObKBr5g73srBowcWmjor0pwPWHuS3L0AHnEoX7NAoRbJ8jOtMbVNpTp5tsb8SmLQz5/eaKqqEIMkg6kJ0G8uvWis+c4dl5mxcpnojtSjwQ/3++Mb+8w3Hn3dlJZWBTv+vHVDuHnpDHPX8lkmPzfHcvk2MthOxQxKNLDPl3PbENwmNCMECAEq/hLXqx3uf3O/+eoDq01pWbXVA3ha4DCXaFX4R+9ZbkbLk7S7UY8FPyukD206YL771AZz6EiZcYJKJ743l8pu/0GJOqPE8VBqU51cqPfTIBio8udKPwjqsXEXvUm6zaNbDpqvPbzGHD5eYcU5HkbnuEorwl+6aZFduGurmBV3Qbrwxj73iLowv5TIqkaizjNaAf3xc5tMsdwCzovNwenytGnksjkTzLsvY+UzfaZ6l8ejgFdJAW/SjIBYFHBpjq/J0SmsK4b8kLbKLFqhzTbMK44sokdKz5hKpTtn1AA54mUlMKfEl3ey7nLnyWTl3+X51sss+VrxCfOLl7eZPYdKrU0eGT9XfjfLteT/7mUzzbiB/bq8XB2RIYMARbyspskcr24wlbJYseYQLzEAbpg11txz62IzftQgvOusqbeurtE8una3+eWrO00FDnTdhHoU+LG575CF4zfqxE1yRW7EKK9r2bJuLJ0z3rzz0hnyf08PUSca/hgAwL268bw5Idfnk/I4ZcDHS+gQV08bbb76jiVm5LCi4ADoZZXhe1dtMw+9WaztlvGnF2++ybivR4H/VFWtuVertqu0wGPt+IJJpiwmC2aMNe8Rx0934IcDiEFwjllA3P9olfYDSNSLlxgArPR+UTPAwIFSdO0M0MuUldeYHzyz0aw7WBJvUil9X48BP96Nj2w+YB6Xs1eNNpHDH9kkPm3SCPO+5TPNWPnbp4NymzCaNA1Uy5XhqGaAMm2MiVcIYnX3Wvkufer6BVYXYoZktfuYlOEvPPy69hcE2jDh8qTQAz0G/K9oWf+3r2w3p6S8OepY/o0YPsDcvmS6mTZsgDkvLtldydUFTlQ3mlLrmRpfXdld9o75E83tl0+3jIKRgxK8VTvXvvT4+rRvrh4B/oNy7/29FnL2BpfysV8XFeWZ6+XDsmDcMCsepH1PxlEBxndJrfYc1xEmJb4BMEAWsA9eOl3m3zEaAAK/fI/OaQA8tHqXeUguEuhR6UrdHvzVmuofUye9tPWQ9b+BC+bkZptF08eZ5dp4whbCnkLUHcyXSQQqkTIcj+LKM1Pk8HbX5TOtAsx3YV8behrMT17YbPaXnuVKWlK3Bj9cacOR0+ZxWSjOyG6N7wobxMcr3s3V8swcWpDfPeX8GFAEvPDqMnH/EplE4zGF4mK9fPIIc8vCKSZXdn6Itt0lxfeP6/YY9jWnI3Vr8J+UL/4zsuzslLiDcQ43+v6KdrZi5lgzdXiRdRNOx07rqDJjCcIUGo8E1Fd7k+9cONlcNGm43cwDI6nT7PH05v3WDbyjytSV6XRb8NfJtr324CnzggJHuZEN+khovUjWnSV65WVm9jiu7wWscg0ARKDWJHesP2Nl9vyI/J36ar8y1h8YysFjFeZhzaxElkg36qbgdxTeo8aGFznMFkR6Vp01aHA/s2LGGDOisG/7gI/s0JGvJKJGzWJFoDKt4rY2AKz4M2W4ecvFkyX3nLdN0CCR5yVFs9h0pLR9bZqENuiWsTrZobftRIVZp1XcOilm9GqGFNtLpo4280YPtuJOe6wUdgeXMrGREdrQaZhZM3E+wx9fz+OdmUyiLUqlA7B7rK/Mm7EoT+LPJ66YYZ6WF2hFOZ6wvawr+NOaYeerbQtlTEgXil3TdKlFWDmBEVxsozw1S8pk01fHBmz6RWbZlFGmnzqnPcA/rgjLT2qxbNOBE6ZG+SS61Y/yYWodP6TQ3KqID1OGamcY829y8a99vhoAMoMSPCsHm2YUoi3HDSoy75Lt/6ePrLOizzlt7nlh62Fzx8VTxFy0/THKs6l2uVuBH/zg2bhbG7TfPHDSKmTIJ5nagTVXcv5MbUFsK9GhhA18YtM+88irO7T/VdajdlCxyoel5ZPXLjD98rKSzv2pH/5AFXKDGCy3aEScaJSpGeJ2LX499Ppec0xBshyN3mMnK8wLu48qYvQAG7ol2rOpdD36EE+lUsZZlkaB6bTEnO3HK82eY3JVDsqlQ+W6sEgRF4hK0Fauz3NbFaXtNblC1xARDe5oXwIJ254SfemRMwqP0ojPsNJOBUKBrag/Z6rk8BerRAyLMXL5vmbuWCu6UXacBJkROWsgXajbcH62H9JpJ6vrzTbtwy2VGwNEmL5JowbKhaGozcAnnTINqpd2HFIMn4qQbTxTaWciI8fgkjzrRQO1N3a5HOqiHjIhhAGyjiQL6BioJr8mzZxlEn9ypSMRNSIaIftfI+PBo/KVOq2FLvx+9sikvP5AiXWLjvZcKl3vNuCvV6dVqtNOna2z4G9k4UWg7Ncvx8wZO9QqYjH6PWqf8AzY3igxZcMeRXUgXXHqPoq5uVIRHRZNHmmjK8edtk3QmKF988wYmQ6J7hap8JIfsnXAoB61aAn/oBQDSnorhcURjjWAYbnR4/fg+z9Fesvc8UPNcwqGRSPVSyx8dHOxuV57Asgr1albgB/ZuaJB07Vs+0QvLpbIA3ywpgwbXGima0EroJi20usevYVceFpizlNv7jXlOlUFCYXox+N0IsrbF00zkwf3F6IS11fd8kQCH9SslRPeLu07qG8Khk/xKFeil9QaCpjb11w6aaQhYG4sD1ZaqUy2//7aFpkbQ/kdInv/Ei16rdqCizimUse8tvO4ZUBDFNwr1SntwU9H1UncOStFjfedAn6VQnjDibIV2WCSrClDbfiNxIFP5/XJ6GWe2XLA7BLnJzgVMM9RPM5r5k7SnlZ2fGko2Ahs3B0/tQC9Hs1QXo/IhPjjh9aYGu096GjKlKhy7dLp5iMr5pq+clOINgDg2gTdKtXq7+iC6KZL9kJwJNJwbX08cPS0VXxLT1eaVfuOmVu1Ky7VKe0VXrj+GVkp6CwUyB2KouygRIr65ueaScMKTZ4U3bYQIu8u7Wd9esNeG4OfNNgDMEeWo8U6/seKLEwFHUDktf/UGfP757cEVqRxuOvgF6EYX9Mm9XUayK0p/sxuVTJhViuyQzRC9JmohcNJNpCXKqCmOK88CP7VWvrR0uzK62kNfmBXJ9RXseAkmb+kstYcVIjugMjTyxQV5pvR2o/LZu5ESf1qO/5B7fw6ITMenQkgBii95fINGqZzsOjsjiBKVysR5z6CyZZW2FmLdBGNeqvs7X5RmUCCpry82opwp6pqmByjEjoHE115ffRYRTw+SAF7p2lfRLZmFQg/IfSjChYXU5zSWuwBkDUSdTisgYjEB0srA96bAgxWnpEyxw2SXBqjj2N2z5p9J8zaHYdNQ3ALYKZmkIsV0HXe6CFBJbfj0L92/0mbV8DNOLACPE75jJSZtj1E3WulpL8hBz/MkZR4ixT3VxWS8Zb5k+AT0Qexbq4W968Vc7kQE6h5aTj4brpm1wLF9qyT3M+IKpFutE8H8Q3QmWCpTGkLfjqxXmymWiE12E/doI7dLw7dBFAlmmSJE43QYWwFOq8WDpeIdALHPaql+2fe3GcqdFYuZjymyBGyblw2bYwZqDNxO4oQHU6chRvLXaBS7gJCIyvAgwf2Nx9U0Fhk6kTKHlku6k47fVmr0Vs0kHFHqFUA3kfX7jKXSnTDz8lGqYt8MPgd0+dZtW20WEA4aEzQAC1SXM9TmlUobL3y2nS0zCz0wR+lVdt5GfDXiSNh4oRqGhvNIXF+ixRdIiLDcFk3srHDB26x98Xz55xG08u7jpid8lfngDm4Iwe8LVZUg5kjB9lATgkmGTVbOP0qceHtcpewYcN1J+sHSyVaXawTXrJlUo2mmEZNNOKH/hoB71wywxQfPWWqZApmABySI9pf5Yv/6evmB7ZwRqkQA69GDKbhvGKDelh+GFwjJV4Ol/K/V/oWjOic+mWnDsRIdUpbmZ9teDVSdFF4AccZcZsSHK3UG3RIrsA/SLZ0Ys9H6VfPvuHZ4zreZ/3eozZcR4DrO2aMQH/FdPkGKd1E0vPMJHhRGDQHyyrNi1sPCJQ6B4DrGsxDhxSZGxQolvO7EO247vnS85TPvqLdY5N0zDxx4aWzx1kpR5dsuk+s2a5QLuXWn4dr0aheYK4V949GhQrpOEazbB/rpBRI+5DCPyJupTKlLfgbkEX14uAIgFEm8FRiHgT8+tdXtuxC+cwAsESIkw9f33/cFMtnBa5P6jnax3q95ONxg7Ve0IEtVq2FpOcli7O32PUQzczqbW5TnFAbRsXWrGXp4cYEjzoi2bqCQ/HEbUOobnm7vcKK7U3zJ5uREqMQq2inOkWx+P5T60yVZPXAuoP3wyixNWoLdCsvypBrxxjFO8JTFeL+E2JEp2yUDK8nUuNaB3Zl11WILsCBjehkdDqzQLlAwNm0Fvy6lpelc24l7/M9XiLdYpkbX9t5OCAe6FFM+BdLzl+k0wsDps14U2v9vl0SDV7R3uIGnekL9VI95k4fa5br7FwLRgrUgnrp5JgK84On3zCf/f3zAu96c0y6Qi/YfytVnagZZbnCMWazFVFA7qVw5zslcj2pVVko2gCgGLa9QbUH0cQjFRAAcc2lag3O01Wp7eeTluDnIIhamTiD2BenOWcqxGXOBadmOjFHCi+vRAivzdV7jwVi9CstOORAnWF7ozwYEaEATEcRgXKf1hFBx3WWrsWU0h4wsMDcKa7fL7hP1iuvag2Uh9bvMasUVv2IHO1eUWz9dcUnW53hKDnc/wrF4pkwRnsaNCUyXtBvUH73SV+KNXawpnGOgVcLMNMO0UKi9XOi0KoLjOhkdccv1Hm1SVuvpSX4WdBq0NE/LhGZ7Iyd/pn/RQI/dmeO9VFP2Eut/eGuncdPm9e1QFNDnHo9x4rolfMm6vTygYGwHa0lEufvnLiyrrjErNUGkCYGrMDCZpuV5DVyoC2/V1I8t/FwiXlNOoI9fV36TK8E5Dr0h/EaYCvF/fNkmoSIYXRMM9ATGkw1TYg/XjlLlFExa3UEDWlEEs8USczEyOASZlVm41SmtAM/6l+jrA/1GgFuPzETVGknkiX1DYDIll8Ke3bjIWYKOupluSsf0QAgPa5NlEPclXLS6itLj0efx5N0i3vAaqXyelDc9ow2xgAl6jFuzBBzlWLhZ+Po5pEZ3PWsZPMHdBZwpTW/6indN0qD5SLtoAocqtEiuxYXMK1eoVNmZk4IbkTXHQB1tQbiJu15DpSmxWO2nDAcZlsvwqTMTIuORM9gxapK8YWu+NDhVdskXUPBrZXyZUWFYBmQ+Wtl6nRBw5SepQ3qvdFOo3RWePG5fwNemxJ5sFFDBTqb6qqLJthQ5R5YDH88oc8MzId12N2e4uMBICnxPK2SXi3rDkqjFwF8GX7ME1oL2C4rlJ3fVK8ccdvr5k2yDmtxVNMmTV1Y+Lv1kqk6ODvI/fULkeyekT9+mQYmA6QF6RLrBZ6cXzfnSlHP1aYhK0vpXsSpKjkbpjKlHfhpfK24NwM/Hc/GlRCp8dmJBPeOBxT16qQdcsw6LQsF9/eSljtFnJhFGg6A6yiiTHu0of6RNTsCrtFKmIE3U4tNl8pfKCfDe4bRLTKJnjV/1vGoDbIQQbpkZui5y2R+zcLKEk9F7ZMCptg3m3uWa3D3Yh1D1CR5/o1dh816hW/HfOxFmnADRgaPHzM1OrM027rkoCPE8Aty70vmewZmLi+KrH5ke1z4/cKn8HRaXI24EPE1/NHQZ3tPWMaAGe6C4kXnh1PYbRcu24uRd1742f2EdFQoLoioxD4AHjstW//JqmozStzYDiLPDNwU4ntnsegvAn653K4RDVCoi5T+Sp0Eg6+QO3OFpwbXb1R97311u1yqtYjHSNBz/bUye7XAy76ARIAfSltc/P2XzzKvK+5mqZRuVsUJ7PWUZP85OlR7WGRAL7UJCjLcnwOKIluVgzA4MTJQGDEd3U+0vL2nZI6trbNF1KN61z/e9Udv1kwbusZ397reGZZ8h+HZe913/RB6xk3T3sv9Yb+F0gtLg2eD6WR85qG1gYSDN/IllDDXwhII/BZ4WJdDiQSdKAP32qf1m2rKs4Fn9Nl+4Rl76cKz9nvgx8A94fcGFt4DzziygmSbb9++LCAuhLU+HzUumpObYfOrnt/w1FwkGXjDvuNmq0x/bMg+rJngeZkhJwwq1Jm07XdnoHhr5Or7xs4jkof1RRcytPo8b/IoM1+6BceLBpuoWRmZhV7TusPqrYqLGfwlIyPDzFcI8QVaAQZ0CVQ1lDaAGlFYYN6l45d++shq+S8FRJTtKiO6zzsUnS2yScm/gcKTYUSD25lW5we7xC1H5O7w6b++ataqHVORMv6qE0rShTj9nNB45yTLh3cMnBkAu8TIRjEDTNzHeywCCOO16WWZ4ncelZ3/NCeUn2syawjHoUC2KxTTk6gGpNsWAifHKqoV7qPYVNqwiWK0SmiYNsJcJYV6oGRwr5Rdv5/HZM6sCi3gGTNEvjRXabV2oHSFNhbJVgPDwVuUziptz9yoxTYsP+g8j+kUFly2x8qDlbZxiTWPRokzXAlvf35HVDqvNnOJOgeORYq8070j+e8XEJP8ssRVApRbps9wonkzJbuEmlm/o3C5fv3h90b7zH7VRROGmFniplkobkqNuDSPSQw4qkOb6XE6tC2Ee8AqRTbYIf8d6yukRFz/nVmy1kTrhAbJ4y9rptghOz4WKIjnlmjv7EWy1V+osP0p4T/gOlcbfm5dPM0UFuGiHajkUW0Iuk+u3C1I9SdIQKAkzX+lvamnpUAytk+a35Va36K1e2qVMlga+sbl6OEFtPImC1qgU/+5r0H+8dZlIE7A0qHs+FomM+AQ7UxiCyTXtu89IjHgsGFRqi1oI/sDWkB6ZfvBgK+QvlOJ0QL9NQqWm6eBRj6RRFWKtSvqxW0H7WEa9h4NgJE6S+AtkvXz2uCwF5kH39kHMVfnby2eSQhywUH5wu1f3LjXnJDOE275oQxweC+FuF7mUo52DZBj24/4/qlMaQV+GtKG+oiACybNfK2KupwZfaOxQU5vlhHFiX6ljfvCbEVwnq+IxJgRSbBR1pWnN+wze0vKm1uU4uhVcq6VaIGH6D55UcIdGZksnt28aKoZI5kbkS2S7HMC0ssSR/bL78cFW4bK9zZx6fEanF4DJjKdeL9nSodArwmVRQVgoz6cPHwRjXLBWCJnXsrCjq/aMOMJYmK+1kdSmdIO/HUepmNWPonJo54KtLV6iM3fLMq0hFb07qATB+XnmcvkWzNYXopYWrCCnNTusKe1j7dcizYhgERPJvQLY2+P9hi8rGfrgws++O9cLHflKxQ6kUU4Lz2CcuyVSfRF2d2JiGBJI3mWZqWrp4+xg7Kj0E99jpafMS/Iv6eJDfOQyjhDptAx/QtCYpq9HgS+a+Cw1/ij6+zcIoIdegNtzop1IQwkhUlGhgh4xP4aVhXdGHEvP3pcCnvG+4bAM1GeDLtMgwY8LcMuquXZplgkpbGPfmeTOYCqkw9MnTa2OBJlEyFm/qlDi8yMsYPNCSm/RCWA8+KKMF92/8sEWrsKG0einIL4pEJ4n1CsHzsJCVSFci9497LpVtyJlgRbGp8WGHkOMMFuCySTf+iKuSZfMrrH+I+WVMzr9P15IfnB9XvNcbk2M9BtXjK73rX8ImtVRcyMJC0x6tIFvokKXKKgAa6DHjMm7iXDFA6eSBEsGMZDF6B4Ie3I58J7PjbYLtwZ+hT6EEg1Y7GW1LlGQ9jf9Md+118KEyhQ4GLousoW+BxIhCdhuvZasAbBN34JpMOtQSuNTbfZdZ7ln971x33GPuKmpy9sRM8Ous3ymyV1Dk1VKMsH0RrqBXpWgWskrmBntmwpcGdcf4UzG9lg6ZQx2mBySibPMjvNV56ptu7HEzQwxsdxTq/Go0x9Z8x6KaznWB1SPTK1jnC1IhxP0Z5X2tuL6/PcRok6ayTrsxmc5zJU52vmTzEox9a1zAOQcVUu4iawvkF1fGHjHsGXRJWXZqMr5GM0S4G+XHGr+WMXTNHuddrsmPZPN2p/hSXVIVcizxy5Ty+WtezMVXMCvWv7lioF+1o3W9zY6+H9HwCTLjfDBG3DlXCs2UtcddOw7/Yue5FnLJ5cfNokAnllPPSRa/iaFgQX2lNRa12Y3QLTZShl+O7314LPGZkUnd7y9dEgwNcdMZuGSYiU6Hxx/qWKqPaQLD41igLHdj52W63eM9hu2ibgrRd4L+QjrirwAibrY6RCTB4/zPrvZNJ7ICaCKCcxgh7URvYK/H50QXea8WOGmhvmTQg8k2hdIvJwv9JmpXLg+9ULWwKhXjQSSHqslN8b5k60+bYsYfDpiDLQNgcVuKoxKDYBrUHi+qO0w6tIeyFSlWjbtKLAmI0osjqyn3YTDZOcDqjotFo5up3SVIxdOlHieQ6vuE7WmMlyc4DzkmiVbPSrdhw0u6X84iIAB4tGWExGSqF9y4IpZprk53naAnnb4uny3wlsSPcCFookptVt+O/wRWn01X7hGxQZjoBT9hmvB6MVIsp1Sn1O4s7DUuR37DkaEnfy5el5rd200z+Ql+fzLetc3digYGGVVuSkzAysMdqDHMs12zPpLr6Y2raoiMag2fuIq7uza/jPeZL3R8v3fl0QkMifJ7TJA/+S7D5EQU6MAC+7qa6XL/8RufyWabUSa82Bo6XmVbk9j1PnDu6bGzPdfIlpb7t4ovSEkYp72dtufOfdi3Bc26Lzw55cv9sekK3sNWv0MRfJ8nSJNtKwjhEzM69Eo1zrLQPB1sPKa90uDTJEMs1OKtcM5bNU4RdxBSf/aBSYjwK/ct9xeZkeFecP7EbDCU+hDIf2t4tc0dJIhevePZEKJfMqg9CPo5kXL2ej+gRFV8CMCLGZ4picwaL5Lnkl3+KaOvZyKbjz5EqAvI70WK8wfmu002ubFoJc1+cWz4VdwNV3nHSEEWymV9m9iPFKOVE8TynkB7hjoA/Uc1fNHm+GEC0iBhi90ox2LZSXFrHK8DES8Fm5LSzM0yF9480I62MU5WkVinIxDl1C2S1WO5/GzTo4YoicMUf6SapTWDVSvaiBhs/0KDGNninNZozs39ayIJGBTSLHJK+Xyi0gfIk+kVqCtzwp0bdISR0qHx+mcxzSSmSFeU6Rz05rqx6MnOvteqnsr+05Lr+fgxJHAiXM0GBbOE3iksQu/GY6irDbr5EP0xsawG5ecOq5GuBLNMtYdEfJjKLZeobdhN/+bplzKxUEC6KFiuR0N02cP9UprcQeGjNTQPCCAp0yWJ6IY7UCWqaQ2QC+TMrvIX0mohjPtYUIwzFJ4c2Xyyr20JkqU63QH7hPb9h9yLw0dpBZOH54u6Z3SsVm9CcVI6gquOGbayO03/aqWRNMQYyYmonWhyY4JleNJyXrW18hJQDXHyQR7qZ5U+yeZ3SZWMRg11ixxJ3s02UWrCdeEn2jtpkppXkw3qYpTmkHfmz6MP/ILuJ7P4XUnq4QI5vljmB3d+mEwL3iSkunjGjXWVHI6ZdrgWnLoRKzXdHOJFGZallK7n9th1kt+d9ac4JTfqL9jdJ8VuBHlzjH/kwRJttlcngjurQrSiSabuT94JWjh16WC/NObdyxvkLKm7KvuGicmY1psxXgM1DwPnUVfcqGyLNHJzIGfJaUnlaLV0wf2S6GEFn2zvqeVuCnA9koB/hZiwwyINs2dESOFMQpsi33VfSwSnH9BsnR+7U6e1JmwyJMk/bOxP/wHFaay+VQdlQrr2Uod7p4QkFseXUICVSWlPB4hSlcOUObVFSfjgI/dSiW3z4xgqqZYchPeY2V7/5bL55klVT8fFojxEuXGrR+sU2u30eJLypC5Okv3eEyuYenA4GjtCLkU+LEeBEWC5TLMRJ9MFfAyY5rex4hQryUZK80ol1jVfcS2eln6zCGTHHmAFGODnqBO4ExV3bxG2RuHF3UT1BqHYzBgsR8A+d1ssG/oCND9+vUGjugYBZafb1j2UyZZBWyMA7gU1UWGd1xyprE69r5VWNDlATE0XlyhR6nVex0ILcX06GstowwHhzQ6uyqafNiAxaiBiNz7tQGkEbJofjPb9GK6eU6iZEFF/V5m4jHhssScqX830sVIOuQwobgGtBhpAxYT1gmj03MjZg2w8vKELMDLfAhoWx5ZI+OZn1RLhN2G6TQiwhziXaQrZSvkBswK2aiSgRO6epOlG2f3D/e2Kdw55LzMZdm5WSYG+eMbVNU7Jh5d9KPaQd+LB/43rvcJ7xd6BBcIGbK1/1FRWg+IY5P4No98qjco89s0GhNrg1PL/IzSvVCcX/s+4d0zKn1X28DGCPTdb8zOGeNGGQKxJGbA1+Z6H+TbPIKUZQw8ciD63fJSiURjYZT4sQIeteS6QJqSy/NaBmwPoD+Q5WJbPeyFshKNAAwebElc/SwgWY5FqM0obQDf2+xrBydYEIHCOstCGVsvBa7JsnOXCKbOVzppPzp1+09YeZIlibYqtdzLRKKcoHYn1MlVs2QYk0ZOo4kpqlkrDmFy/nUFEey/dI1dmq2qdeMZ53d4syYmZJQKas3HwzUW5Vn8exarRpzBnAiZuAspeWKnMe0x/nxjfIERftXm3BG2dV2V1p8TmxxFr9Tb0s78AOGLIXZy8zA39wyxGYNBHAGaJl+hmLZbJAfPX45DXJ12FB8zCzVSus8zQrhXLXZw3F+ATDnEbu6gGDUxdoE/v0n1pudCncSl4jSrFyooRo+aOhKjG8TiBE0c7z9nAgjIGI0y3R4qz6uPcUHpexi90SEGjK4QGlKSddASBdKn5KGWlTekWrwbA2AaJQjc9skrfYOkXsCoUHQBY7KZXeVBkO5YtN3LMeOVoqOuc4uNQ6n2ycza6O4LCbFRF/MJpourGiSL5HtajnJjXJ9heIsZh+1Wi5A1/37ZUS497XtgahxuoKr+VLtgZiqfdAM1nShNAQ/zEYdIWE1WuHpgFGSafHJJ64+PYJf/jrZ6LfKnp7IVJ/sjkSlHiwPyQECK4G42MNLTMz4X9zPq7e17syT4r9EMYKsr1AClcMzA86PrP+HtXvMwSM6/glZX2mw7fMabYMskmdtOlHaiT00LnIsXIgZgIWbSEKsIbLBggkjzDZ88rUCCYjYHPKquP8ERU3gRJJw2ToyjVT5jlv0TOkYdy6fbTbqiFI2tbeVBorrX8F5YloHSajuau8cAR1ms1qWs4cV3cEyEDEVBtZiuUYsFKNh62I6UVqCH26TJVaU2+e8wMByV0vCHDpHcv+lCjtyWt6d1TJPYvpcp6hkeH/eJJ/1AhuDs+XgaZla8q5QOk47v1J7CxbLNdoFXVtKhDyOpykzYyKE6MVMW6zQ6D9+brMpDR46DROaIMX/9oWTtPk/9d0ZIuucluCnEtibczN7mapGBUUVq4/sT7j/AJkOl0nJ3SlT52Y5csEzK7Ty+7IiKYzXEZosWmG+THViADCYs1SfZFC2UE5U6L++UWzWKwSLu8MrV35H188bZxaJ63ek811X1TG95qmwVgGzuZJBs4NKWNhPoY+YPScO6W8u11RfqF1FmHnwaTkouf+FbQfsoXOpD/1QdZLygXYmBsNqLRo+8saewBnB+o7BeNaEoebtUp4Jv5KOlL7gV2tny94f7ZRAOgO5NlfBXxdPGmYWSvzJ0pSvqzYq2QYt0Lyg2aDMRmTgbp+8WkATjnZpVZjfy4nvmJwEmWMxbaKAf2DZNDMxjv3MXummwrW0BT+Nx1SbJysGim80QkYm6Oq1chuYqOgLGTKRIkZwxCjL/a8rNiWnOsLhfGreAoiEFfJevW/dXok7x+w2RVZy8Tq9ZfFUc9XUMTL4pC+E0rfk6ifwylE7eRJ/YoGX+2bI2/M6KblDJOujqGErP6pD557YsNdslrMXRpRYaTSHRff/RluwN/eJTcU2aFetjTsUiO5wqcTIu3V8EmFJ0pnSGvw0PC62fXUwQrirbWSHwOlxa1gih7HLtARfoG2BLNcQqHWPfNsfULSEnRoIdhE08uEe+B2OT1v8TdGVH1i90xoJYDUwjUnjhpiPXTHLjNUCYrpT2oMfrg737yt7cyyiMwfKWnK1vDLnT1HgKbiWVj0bFJZv0+4j5j51MtHVGCik2VMJIwGi4osyCf/xpa0ya7KnOLCyO1TGg7sun2kWaQB0h1ky7cEPSOH6/QX+kJt9DOQSdeFGRVSYLjMnm90JcFWnkIBrtx8w963daU8ldDs7RjLd8icAjZv2SzIG/PLpDdYL1G2L/lplvnPpdHOTmEe0jfjp1ijdAvyW+0vxLZI1hwrBvaMRU/pMuQ3frMMXJsrJzcbk0bU6ybRrtMvpz6/uMLs4gFrcrycRwMdh7XltAf3VsxvtCY2u92jfgmxzy6LJ5r2Lpti1E2aH7kBpu8gV2fiAukCcvEYnjJzxCuwT9gC7shZo6q6VyHO/5P4DWgQjxiceoGs0AxDQ6TZFQ8blFzm3J9AZDf6XtB/5fjmsHVGIRoBP1fPlr3OddpZ9SPFFR4j7dyfqNuCnU9jkUqTdRA1Ooz2kOhpu4eks8y+TAkwgqgfF5XHPZQBUawC8rqC0bOy+WSFLJsuvhhXO7joP0EYnFXbkWZ3M8qRi+ZyQ3kMsHhYE86QjXaugXR9dPstMwmOzm2lDMtt2r/kdP7dyeXCW1jY1i+nJ4IgkZu8qhdV+Rd6eD67ZqRnglHUbZlpnL+3sScPN9TKPztOZWR0ZQiSyHMn4Tt0xAuzTpvbHdDTqq1uLTbniHFnfIV3PE8e/QaLhR+VQN2N4IGZRMsrZmXl2O/DTWJwYWFrTaCq020X9GJPgfDVyeFutxa6HFSpwt44Aqg/uksmUFWm0YvZwCvvl8ldnDy9OXunOLhDliBC37kCJeVwuC9vkLVqn8CmWD6rBCgtzzY3a6fUxHVY3gVNqGCndkLol+AF8teT+U5Jja/Te2gCgX1H2Nh48aQfAZs0EKMCAHLAXyGNxoQLNYiadqfg2BLFNxwkTDFOnw4q185xEu2d1qHUJ+5y5qP8Id0Pk7n3Hkmnmg0umSsbngI7uS90S/HQX03elOHipXvXBYFCtdSPP7FYcnkcUr36VXB+qFZJDmBApHKJ2h40T8FfOmWBnAav8KWJBugwCXEGqtGK7rrhEZ+3uNZsY4Nrbay06qiQ+POMV9eIDsuPfJlNwkV297c7Q12BX5wX6tzVkpOHvcDREnzLt4W1gAMTZl5y++ND6PeYlnapSLhdoN+ID4gKxQGdpk8wyzQTztF9ggI5HTeVNHGzhrFYb7FbwrlcUrW2tNvOUaDM8ir4rzeQp0t1CiXXvkx1/xeThNmxhGnZ3wkXu1uCnNVCAAzNAY2AAxNlEnPfLCSnoATsJzKS9v64yiCiUk5dpxg4fZJbKW/RiHV9K4CfCpjBAkslOLKBVZ3Z8lSlI7xaZcV9SsKptOlij6myNLFour5ODmkzD6DTvEejfNneCdnjldlv53qvbuz34AwNAM4CUWmaAeEUgQNQooBytOGsjna3SBpijMgMSAtHCR38I45GTl2NGK6bmRbIIzVLov/FaQR4g3yH2GsB1u2IgUFaiLxNUt1Kr1QSj3aGtm5wov/NwqT1Uo1GDwS04p8UM1B7n5Qq/eMeCSWaOxLn+2pjS06hHgD8wAIw5owGAGbS2EVi2TsKUve+sALX9+Gkb/WHj3uM2hj47m1j65z9gYq/AQHH/cTqza7JiBk0dVmjGyVJSmJenDTeBjd52961GQzx5xyod5cIcK5XDrk1USjk/LvFsn/Yo71I59ylSxXHFKrLHKVHO4GjFatO/f66Zr+2QnDpzpXa5we1TWWyL1Q7t/a3HgJ+Gwq59VtEHyjUDVItL8h0gxUOc/H66utZsEyddve+oeVODoNwGrAVZAiLjQH9YHMuRDD1QB1qP0MLQODmDEURrjDjtYFmNOKqHwFe92IMQHAgWm4GRYQdUYEmNkml4iaPzib/cZxfiNIBPK9gsVptigbz4ZKU5roMmTmmWquL8MJ1NQLAumy7I18uuWyhi3bXyal2hqGqc5Wv38yrNnko9Cvx0MoCvFfDLpASelStEYDUz/u7H54cDL3YoetpqKZAb9h/VIDgTCgrFKAiAVVv9JPpkZWu/gQDfX5ETijQghiqK8VDNEEMK8nRMUY584rO1FzlTYUkUEEoP2pPfVUhEcw54qxWQq+rrbRz8EsnsJeLwJ7URp0yRpyuqa0yVwrCzLnHOmnSDYhYFEPgt6BXFAie+lTpf4CqBfqJAX2B1E27q2dTjwE93wxHrBY5yrQJXaCaQZGABGy8UEB8YBGd17tdu2cnX7D5u1mlj9wnFwmyUohycBgLJkVmQiHXZR7JKhjbeZ2p7ZSb7EBSDJ0Nm1EwNFAYLG6N4xFGhkNMJA96kQdrUKIVdkSqaBHI24tiwhgHefqHwcHkNHGaLftqzfNHEkbJKjTJLJw410wC9FFyfLrRAjwS/W31EmTMCf5mOdWcrY6JEuPRzGjgce4qSuV2zwRYtlO3SwXLlEkEIlYKFCEzaMWD/KBf3nQyD04Tlw8FZI/BzkIu795KIvT/IscPesDBxAHe+uDwn08yW8j1bp8ZMHlxkxhXlmmGy2WOh8ql5C/Ro8NMUgLNW3LW8/rypgsuGTIHNGyrWN2R9lkswL6IccxjGXtnStx0skVx+xpQpTHqt3AcIN9hkdQ0JW1YqcZGt1MM+hvIKx6vyAL+EX+QcAvYiZEt86SdxaoQOzuBQjikyW47ScayIUwMkag2Qk1+BZhbEKZ9atkCPBz9NYoEr8FVLvj4j+bkWmbtNg4DUAjuhUEzPymmurKbWlOg84BMaECc1O5QoujFRk6s0SDgtvkF5Nkm2J5Csu45gUwkCnZVlYmGyaTw/J1vhy7PNICnOQ+VePEy6A9HXAHtBVpbJEdDzJEoV6DA7draxdZP9DT55t4AP/rB2AXx1Wgmu1gyAVahWn4XJhPQBNzkxasvNEaYYXI1KCPm9RrJ7jQZYtSw2NbwkGtXqO7MGZ+K6wpfl7uLyuQBaHD5P0eXyxe3zFSMnR99zFEGNsOC4LcDZCWqVr2sFAn2uNvZw3Wf4bm94v/vgj2gXpI/AINAAkIhSJWVT/62C21Yw2ef0R2MgSNj6ucD/wADjnd/dWxg8wBdg24Fkv+lxfXeJ+DmZAjygZxtnjg96t2nievfBH6WZAKGYsTbGnLMeotUaAcwE1gNSv4VhMEoKHX/ZDgz9EZO3Io0VcSQWEbzL5/SJt7cP/jjaDNGn0YpEsrlrELBAhusDYe9ZeupcASMwSzDYxNhNvji8lef1zs41X6aPowOj3OKDP0rDeF2G8yISNWg0cB4XVqJaDQK+c5ohv/NqNyHqKKqERHqTJZkH9wiC8uZI8eW75fLJmHraXbHUSsAHfxv7g9kAuDMjYL5k9xhnBaDYsgCmj3b1mPsCi62BweFmZ2cMAZlFLTx/kOuJPMQhz/gKEYAXzs4hElxjYU1fferAFvDB3+7GFKjtQAhwfUDPd6JBY7lpkkFfY8MOEmz7LgFkZHdiDtmDtaW9YsPvrRVgfkOcAeusIfjUOS3gg79z2rVZqhoLMcmHd8zm6bQffWePTmvaCwn74L7QFqn0yTcWpFJv+GXp0hbwwd+lze1nlkot4IM/lXrDL0uXtoAP/i5tbj+zVGoBH/yp1Bt+Wbq0BXzwd2lz+5mlUgv44E+l3vDL0qUt4IO/S5vbzyyVWiBlFrnshg9t9KhXpAJ2NvGqra3VvtT8wAZvRTjIzs62GzhSqQFbKwv1qqqqMi+//LL529/+ZrZt26bw33lm6tSp5sorrzSXXXaZyc3NNUePHjUPPvigzgeoNrNnzzY33HBDa0n7v7e3BdQ5SSd1uPPqq686n//8551ly5Y5Q4cOdRTRwFEYD6ewsNCZPHmy89a3vtX53e9+5+zevdvRAEl6meMtwPHjx51/+Id/cIqKivByaPbq16+f84lPfMLR4HBefPFFZ9iwYfb3a6+9Nt7k/fva0QJJ5fwqtzlwQOdg/fnP5re//a3ZuXOnnMKae8JUVFToKMwKs2fPHss5L774YvOOd7zDvPvd7zaDBg1q79jv1OcbNZM9+eST5ve//72tw+DBg83o0aPlwNbblJaWKv5njRHg7UzQqQVJwcSZ4c+ePWsd98TgkjKjJxX8r7zyivnWt75leC8vL7ddJK5vATF8+HAjbmkBcvDgQVNcXGwqKyvNqlWrzObNm404qvnXf/1XxZwcmIJdGygS4g7gZ/CKy5v3vOc95o477rBiHIOZet1444090nPz9ddfN7/61a/k7n3e/OM//qOZP39+l7dD0sCP7EulATLcvm/fvlb+vfPOO83EiRMNXBLAIPcfO3bMbNy40fz61782b775pjlz5oz55S9/abIUsYABUFCQmgciw932799vR8LIkSPtjLVo0SL7nRmMmYFN6D2Rdu3aZWd8+hfdZ968eT0D/A0NDeaf/umfQsCHy3/4wx82H/zgB82YMWNaAGLcuHFmwYIFZuXKleZf/uVfzBNPPKHDoxvsIIgUk1IJSIDbndEmTZpkZ7Tw8mVKifeJ/Q/NRd2uapOkcP4//elPZv369bbSWHNuuukm8x//8R/WmhOt4nD56dOnm3vvvdeKD7feeqthlsAClMrEtA5h0aEOPqVOC3Q5+M8pvh8ARnSBJkyYYP793/89bhD379/fPProozFb0OW4+/bts4MMEYtBJquRkTXJjB071n5H8YwkyrdlyxbDs+S1dOlSq5xu2LDBpkW5GYSXXnqpnaW4Jzyd06dPm7Vr11pdBaUWPQVCdEP+HzBgQChLxDqm+3gU99WrV9s0qMeKFStMTk5OKB33A2WXNcxs377dtidl9NKJGJDUAz1q3bp1tr6kN2fOHHPJJZfY9vFKn3wwSuzYscPWmfTJk/YlnUOHDlmRletTpkyx7Rc+4DHnrlmzxhaX+xF5INqWeoXvWiN/Znt0wE4jTTldSgKWM2PGDGvSU8M43/3udzs0/5MnTzpSpJyLLrpIx00R2aa5eVHgc971rndZ06Iav0XektEd2djtcxK3nK985SvOiBEjWqRD2kuWLHGeeeYZRyJYKJ0XXnjBkXzf4v7IcvBdAHGee+45+2xrpk7MvTyjgesIZKH8wj8I0M5nPvMZe590JlvH8N/5rMHoSGx0li9f7kjsalFOiZ3O5z73OefIkSORj9rvt912m31OYHU++clPOnPnzm3Rzpiop02b5vziF79wpOyH0tGM3yI/r3bhGuZuMbnQs53xocs5P1wDKwiEsnf55Zfbzx3xB272hS98wfzlL3+xsjYiEZwP7ozyWVZWZl+IXXDHL37xi+b6669vJo6okUMyKGbYL3/5y3bBDQUc6xNc89SpU5Zzvvbaa+bv//7vzc9+9jNz1VVX2SrAzTVYrEWHezUYrX5CGfgtfJbAzIk4FA/BYdtLcFra5r/+678s16f9mQ0pGzoUFrTDhw+br33ta/bz17/+9RYzhyvGsRj3ve99z3JrTJXMXnBu2pgZjxninnvusTPDe9/7XjtTMesx60KUhXakveHukTMNacbbNm1tly4HP2IBDQ0x1bHS2VH0k5/8xJrPEHsA1nXXXWctSFhaGHCYF++//35rMcJqROeiiM6aNStqEUjrmmuuMTfffLPtOL5jeUJ0QzQCLD/4wQ+suAC4ARMDEHBQVwYPA4A8WJuIFHvIvysIkFHnn/70p9YCRTluueUW87a3vc1a1urq6gzmR9ZbsMSwNkHfYE2LRog0M2fONG9/+9vtqjSDCYbxxz/+0WjR0rYNnzVD2vswZ9Lm0PPPP2+td2CB5xEvwy1fMC7S7lTqjOkkVprf/va3nSFDhtjpb/z48bFuTeg3ydlWJFBjOUz5X/rSlxzJ2Y44VSgduUw4zz77rCOrkc2faV/cqdmKsQDtaDYITc+SXx3NVs3S0eKUndIR28iPKV4yeSgf9wPiCaIT98i+72iguD+1eG9N7JFuZNNpq9iD+PHP//zPjkBlV89ZWT5x4kSzciAGIjKOGjXK5iWTs1NSUtLsHgE1JC5p4FoRKlx8pL1Zrec36o34IreNZmnw5ec//7kjzm7vkQnb0czW4p7OvtBS41OJO5OYzjiMAWLxh+mvI0iytp1uSRuljTUETKjhShScBWXx7rvvtiutcPG//vWv1t4erQxf/epXjcDdLB2mYyxNcHkILo+yl8qE4o2FDfEPZVR6jxETalZkRI/bb7/dclzaUYPDLio2uyn4Bc7MzIq4Fy6y0N5weLmj2DuZ/XgJyF7JJPVal4s9iCM0HMRUi6UArb69tGnTJgti0mbVlEHmRQwALCxYbBBZEF0YBF6EvrBw4UKvn6w8ShqUH3kcV4VUpvABim704x//2KD7eJG4vb2MfI8I5EWsUcBkvNYquIZzHoSDIv1MWuFijVeaXX2ty8GPbwuyPgRocG1gtTOcQ7elETDbAWK4MqCMRYAaBRZi5oHDeQ0W5OJYHeamESuvVPkNAGJuhWTJMXISbLVoKOeYJ72IdkGx9yKei8d86/VsV17rcvADTBQZ7NGAVTKmkRejkfkz7nrTeQDPnUF40LUnM71icYhFAIEXhHsx1o5UJ9dKRP3cskeWGe6KWANxfzhD4TviCb/TdjAht80i03G/A3DpZe7Xbvfe5eCnQZE3Zd+2MjocW0qwNa9FyqBerY2YIdu7teJgJUCMgqRYGhaC6FxmE2TOaFybPPfu3Wufw/SGX1Gqk1tGGAYOca6+EV5u6u5yambXcHADfECP7I+FCbEHXaY1itaGrT3X2u8MTHdwuta/1p7p6N+7XOGlAjgyYV+HMEE+9thjRtYZg9wO9/IirmMewycIF2hMiN///vdDK8WkichDQz711FNRFTWULzaNMAAgRC4vudWrDMm8xuCG0C1gHF52f2ZEzJmQLDbNRDlmN1cOZ9bFrOnOBgyM8BegxAbPtc5qG9KmvyD6wqs+9sdO/JMU8MOVAC+uBhB28D/84Q92wYhZALdl1yEMmZzFJFwgPv3pTxusOhCNRTqu6IN/EFYMxIIDsjV/9rOfNQ888EAzEQHZHhs8tmeUPpzocDN207AJp+gflHiIcjN4qUO4Qa7qywAAEPJJREFUkg2gmREBEuCFq4e7NvD5LW95ix0QMADa+b777mthhdm6dauRGdS8733vswaBzmoOFgxZF4EeeuihkPcr/YcRgr5zZ7HOKkOXiz1uRRA3tPxtPv7xj1tOxnSMTwzWBTgCgGSqR77FUsGLjqdxmM7pHDrJBS4KKws46A+sMOI78rGPfcwCHLkVsyqLXHQ86ZAHXqQMQHf6dcuWiu/vfOc77WIasyPgwLuVlWXakbYDtDARrCvoVCxghYMfDg74tZ5gQU9bMIviGo5pEvEGkZKVWVZ6YTragWYefvjhTmkORC9ENwYrZWHbJtYjNriAASQCuVmYD33oQ6E+7vCCCExJJXF459/+7d8cTct2wUMVjPkuGd9RhzRbdAqvgGzZoQUWNy2Bu1makn0duTY45B1J4Ytc6hxHgy7yltD3j370ozZdfH9YHIqkjlzkIm0WpfAHcuvFe2TdWFSSOBh10UjAsr5LYiChdEgjMh0WIp9++unIKjnuIhf9xYKhF0lEtX45bjl/+MMfOiwwRtKPfvQjuwjm3hdZhhUrVjjSbyIf67DvSeP8qrAlOPZ//ud/2qV/ltTxfETkQazhBUdiwQXvT7gZLgLhHM1Nx31Hhkc0YhZAl2AWcNPBsiOHN/ORj3zE6h1qbPex0Dt54WvCbMHLtbKEbgj7gDmPe3j32lBDWpgDyQcXC3eWCksi9BEZmHuYkXj3IsqFMo9PjYBp5XIUYNJnNmS9BPEQTh6NEA0Rd+D4iBZwXtdCRHkx71599dV2kRC9IZIoA+Ii+SG6RCPqQdtAXm3DdfqBvvzmN79pzc3MWvQ34hBlkOOczYt7O4NSLj4/QGWRBXmP6ZzGAUC8J2p5QCYmHWR9AMpU21kKXGd0Tqw0MQAgnqDfoMzCHBjciRLiJKIO6SFC0U6xBnyi6cdzP31OPVDYGVzjpNzDDDqbUg78nV1hP32/BdwWSIq1x83cf/dbIJkt4IM/ma3v553UFvDBn9Tm9zNPZgv44E9m6/t5J7UFfPAntfn9zJPZAj74k9n6ft5JbQEf/Eltfj/zZLaAD/5ktr6fd1JbwAd/UpvfzzyZLeCDP5mt7+ed1BbwwZ/U5vczT2YLJN2rM5mV76i88azECQ/nMDwYccry8hjtqPz8dDqmBboc/GzEwIMPT75ohDssbq24O+Nl6EZ7iHZ/sq8Ts4ctlbhiE9mNXVeu+7LrfYnrMO7CbODoLp6lyW739ubf5eAnVgx++64PuVcFAD9Acd2QCRdIyLtUHQS4FhMGEfdpykwgJxf8/MaWQQ6jYwM5vuvEDfIp+S3Q5eBnqx2cMnz/aaxmwEedDekEhGXrYrSNEbHSSOZvzHIMDCIuQESYUGTjlBOL6A/6BnGNSHfu4E1m23V23l0O/vAKsfMoMiIau3nYZ0s0NSIR0CnsLf3v//5vu0EdrppO8jSzGJtNIGYuxJ5ULP9LL71ktJ3UxlJiZ12s0C/hfZjOn5MKfiIuREYB1gZNqw8wCOgQxZu3Aa7Y5UOAq8WLF6cV9yc6s/aq2q2VDHTO3U1FQl9hIzkb15kB0FUS3TmXivWKVaakgp99oHDGaMTgINLCpz71KatMMhMQzSGdRB/qSIQIN0xLtLr617u+BZIK/taqC+dhPydR2eBMbEaHI3kRMwYiEoMFZZpBxSDhPZqYgYmSwcSziCTkhxWK8BlumBTMlijf7bHQEEiLfEgfHSZaeaiXmz9l4DPhWxCbWsufOhDug3LzHHXnWfc5rkMMRnd/LPexhxeC47tty2fud5/ld8rMc+HXuO4SbemGlyEd2h2LXSzmxrPkxbNsnqdtKBNhZkiL9iIN6hGrzdwyJPqe0uCnMgAHEQgCoJGNQKejTBLoilNfMKUyUAh9iHzN+VDRRKUXFcMG0YrBQgwfAMqhCqTBi47AekNECNLASgN4EiE6F0sPURcYRH/3d3/nGX2CMhBFjfOpOL6UOlEeNpUTh4eIDNFiDCGuUA8CV/EszxFhgfqjVxEPh4BWEEehIs9TD+LjIEpCtJ1rgcPAgJgZvpGdtufw78iDPKgfZX7jjTdsCEhMuvQZG9GJFEF+iHtegYDpJ6Lv0dbEDuWQwccff9xG7sMowmCA+RF/ifcOJ4GnS4lDEVQpGzNGx+PEzJsDFYjpo9Fv71dAqmZnPKmz7JlWHPyg6A6hODRqJPtZXMpRYFx7AIU4SYu8KIu4ir33rrvucnQ6iD28wX3efRf3cgR+53//9389Y/0I2KFzuBRVrlkZibUjK5XNQ6E8HAG0RTmI7/M///M/jg6Ea1EHyiCg2jPGOL9Mi2mh5wVye/CD1hVCBz24ZeZd3NSmSdru9fe///2OuLpNQyFMQtfd36O9E+tIQA3lzQfqppNWHDEFz3aTxcjR6S6O9DpHVq8WsZYUgMvRwLBlEPgdBeYK9YdbDg1ARyfhNMu3o74klfMzTaNchZNr7cFESFwZuCZTMJyHwxDCp1Gil91zzz320AU4EFwSDsk9cE6sRHA0BU2yXOzzn/98eFbNQvWRF9MtUyyHYBMuhVVbuBJRn4kmR1nV8NbkGq8pkPt5RSPyRCGGAxMfE4Jru5wOTkroFerKWVqsd7gWMs4jJsYp9aTdEI8oOzMMIiLPcsi3wO+ZPXkwM1A+6sqsgchCvB1i8oTPsqRNui4xu3zrW9+yxxjRLswSPEeafKb/4N7MLv/3f/9n10B0GovtRzeN8LZx10roO+pH/lwjH2awzqCkgp/ASdjAw4kGoSOZggEdcjyNyVRN0CpX7MAcSox5QMm9rKpyli/TJ/IjAwZAA3ymcAI9cepItDPA6HyeRblmkDHYmL6JaU+6iEMMKIJhEfAVMai9RF0Z3Ez9xCpiQH3gAx8wigRnZV3SB8SEdSQ2p7h2qPwAlQHDwXq0F6HfOUiOd2RzQIMYhbjjRqSOLC/1IEYqRIAv4pvSlpQBEYd2dInPiDIuETSYctFHiIacVENAMfceyk1wrN/85jeWaTzyyCO23TCnehF1YBGQGK4EHaYt6HvKg/jTKaQO6FIKF3tUoVanXcQZwgKqs5tNm4QldEUdpl2vqRGxQPEmQ2KTIoQ1qyu/uWKPZFJHJxW2CKsnTmjP0kIkorxMw9/4xjcc0nYpltgj7uXoNEL7bKTYo8Fkw/+Jw9rfEQ/C03XT5xrnggkI7iWHEIDijvY5RAbNGi1CFEpnsc+5YiPlDxd7QonpgwZBSHTSwX7NjlcNv8/97IZNpP0QTb3ESs3G9mw0t5waGM3qJ+udo5nH1oGycQSqBoGbRae/J9WrE6WUaZoVxXAuw0EVcB6OCiUsH7HkmVLdaZipGSUP7g8R7pw04N7hL4HG/sYUCsGt1KL2c+SfK664wuiM2Ra2bfJEBCIwLEobeaMow9naS6SBWEWZUGoJ2uslTnGNqMvurAdHhPOjMFI+uCXclxkynPjOc5FrKeH3tOUzC5Ao1xCr1RgLvLgzMxCBZjEUUE7Eo2iBbykrbYyFp6vowrzWVTmG5UPIcRaxOJWbuIwc8cn0h4XgO9/5TmhlNOwR+5F7kHNdIr4nUYq9CF0AEQgCLAwOL8sDDmnRiI4hHCAvLBvIokzH7SXKQ1oQdcasFw8xaBDBIMI4rlixwn6O9geRBEbCwO0Ick9RZzDCvLDqRCPijsLMEMEwXyKmeRH3uSvhXr93xrWkgp8KwRFQupC16SA4IbI8jUHQVS+OAqd0QUMaAJJXa0TnI1t7gR9lORahiLnP0YkMwPYSAxOFF0LedTl7a+mSv/scZQqfNb2eZVaECzNjdAQx60CkyeBrjZiVqBvlZsB7UVcDnzIkHfwUgoUTVnMPyEKAYgpAsYDQaMSIj5wKGTBuY/EsEX3dU0dILxrF6iwsE7EITs+sAdHh8QI1VpqUncFN2lh6ULBRtFsjxCDX6sUgYJEoFsEoSLujyBUjESsRPWFG9Ek0YqZyy9gak4mWRmdcTwnwUzFWJD/84Q9b8xwWCDoVSw1cCytNODEYEEEgFqIwbyIves0S4c/xGcB5EZYhrBWRA417yQOTKaZDiLzjAam9OcYf6swAhxvi7QlIXGDFeMwOfPcsMqwt6EV4vUYjTlVvbaZCtOMFwaGj6Ub8jgwPMaCQ/WmbaAcK0maIqO6s0xFWMpt5B/wJ1LYDEuqIJFCAUd5YUaXxmQmwJWNmDCcAyj0ooogymEtRgJn+AXfki9/o/GjAJ23ywJzoRXBld7MKaRDjH+C2l7Dnu7H0MUcy2L2IOj7zzDN2EPI7AwQAMnD4DY9XzLlehB6FwaA1gnG4daK9XE7t9ZwW40IrvcjwiKkMmEhiZmDvBmsUlBNR1h04kfcm43tKgZ8GgNPfe++91p8HwHJqOBtAGAjhBPfFHgwRX54lcPcwNvc+xBQG08qVK63Vwb3u9Q7XxSrCYKPTXIJr4UbN4GBA4i7BOgAiVHsJMCCyIe8DNkCKlcuV50kfywr7GJj9sKpAcOgVK1aEzhtG+UVhxlbvEmUFeKx/ULfWCDHSnXVgJq4ORToYEzBAuMoqYhf6GOWgjRm06GzhC5YwDGz6bORhduJeRFpXXGutPF3yuyrXpRRu54/l3iBzoiPOZm3AamxH50c56sRmZdVBdY78Vhxx49B9y5cvd3TUqaOB4WhmsHZ5NaS19Yt7Nns+3M6PvVpyq70fe7RmFge7PNd4Xp3nSF51tDDXbL2BBNtq5+dZAd2hTQS8UF6URaZP65rhrkNQBu7R4W08Zgl3A+ztlI3fNfM5Ok3F0Wxi6853rgvY9p3P0ez8WsxzdDifTYP7BFJHA8qRLmXbjrSw5wvsNm9s+GI4oTUUnmE9QbOidXeQIm7zpP3IXwPX4ZlwCrfzy2co/Kcu+Qw361IKBz9+IdFIXN8R1wgtZGlp3RFnbLbQo6nUkROWo22O9mwnKaGhTqYzAAWdAEDEqVo0fjj47777bkc2a3u/CybSoPMAHb49Wq1skQblDwc/g9QFCL9J2Yy6yMXvEMBjgUvL+CG/J/J26wB48FES9222+MQiFotT+MfQPu4zbrl5jjS1OSU0QAC/3EoCGUf8lbuEo5nNkT7TLC2Az1loWvm1C37uYzJM2HYlD4DvMorw/PHt0Qq5o1nBfSz0Hg5+/Jq6mrpc4cU3BeUHkQa5PRoh12tl1FpCEGsg7PUony6pse3piyzk4A3I9Ixlg/uQYfFFwbqAaEG+XsqsmxanAeJWwLGYKGmuvwoiCccZsQ6ArO9FiGoskKG4IhaFW4Ioh2YjO+2z9O+aS8PT4Xl2TyHK4O5A/sjQGoRWJEI3wL0jUlnkdw70ZqGJciPfU3eByFqkxsnPBhGNMmFCpu0oSzTdh5MsKZ9Wum0ZEGkoP+XG34YyIKq5RNvg+oFYiU6CCRSRzS03bc9veKN6iYlYzbDyscDnGjDctLvivdsdS4R8i4zJghHgDwdiZINqFjK//vWvrR/8o48+auVj7sH+DvgZLFhVooElMr2O+o68DIjJH+DFKyfzjLvqzXMAty2Ecko6vFCC41mD4BkGC20PU2JAx1vutpSxI57pcs7fEYWOlQYWEF7tIToNrpksAmy8EiUGPK/2ksu5EykDz6Aw80oXSjlrT7o0nF/O9G8BH/zp34d+DdrYAt1O7EmkHVw3AWTrrpbrEymnf2/ntECPBj+LVyh0WJ6iWXI6p9n9VFOhBbqdtScVGtUvQ3q0gC/zp0c/+aXshBbwwd8JjeonmR4t4IM/PfrJL2UntIAP/k5oVD/J9GgBH/zp0U9+KTuhBXzwd0Kj+kmmRwv44E+PfvJL2Qkt8P+FUmIowuKBJgAAAABJRU5ErkJggg==;" vertex="1" parent="1">
          <mxGeometry x="660" y="-439" width="79.58" height="90" as="geometry" />
        </mxCell>
        <mxCell id="8jfeb4-xBnSfNOuZoPy4-64" style="edgeStyle=orthogonalEdgeStyle;rounded=0;orthogonalLoop=1;jettySize=auto;html=1;entryX=0.5;entryY=1;entryDx=0;entryDy=0;" edge="1" parent="1" source="8jfeb4-xBnSfNOuZoPy4-65" target="8jfeb4-xBnSfNOuZoPy4-1">
          <mxGeometry relative="1" as="geometry" />
        </mxCell>
        <mxCell id="8jfeb4-xBnSfNOuZoPy4-65" value="Schema Registry" style="shape=image;verticalLabelPosition=bottom;labelBackgroundColor=default;verticalAlign=top;aspect=fixed;imageAspect=0;image=data:image/png,iVBORw0KGgoAAAANSUhEUgAAAHYAAAB7CAYAAAChOXTPAAABQ2lDQ1BJQ0MgUHJvZmlsZQAAKJFjYGASSCwoyGFhYGDIzSspCnJ3UoiIjFJgf8bAziDEwMvAxsCamFxc4BgQ4ANUwgCjUcG3awyMIPqyLsisxVymz+4kKm3bVPXMSulE7iNM9SiAKyW1OBlI/wHilOSCohIGBsYEIFu5vKQAxG4BskWKgI4CsmeA2OkQ9hoQOwnCPgBWExLkDGRfAbIFkjMSU4DsJ0C2ThKSeDoSG2ov2A0+wcZGjmYGBqEEHEsqKEmtKAHRzvkFlUWZ6RklCo7AEEpV8MxL1tNRMDIwMmJgAIU3RPXnG+BwZBTjQIgVpzMwWJoBBTkRYjHWDAzb4hkY+N4gxNRNgF7KYmA4bF6QWJQIdwDjN5biNGMjCJt7OwMD67T//z+HMzCwazIw/L3+///v7f///13GwMB8i4HhwDcAnqJd5toU3kMAAABWZVhJZk1NACoAAAAIAAGHaQAEAAAAAQAAABoAAAAAAAOShgAHAAAAEgAAAESgAgAEAAAAAQAAAHagAwAEAAAAAQAAAHsAAAAAQVNDSUkAAABTY3JlZW5zaG908cHa2gAAAdZpVFh0WE1MOmNvbS5hZG9iZS54bXAAAAAAADx4OnhtcG1ldGEgeG1sbnM6eD0iYWRvYmU6bnM6bWV0YS8iIHg6eG1wdGs9IlhNUCBDb3JlIDYuMC4wIj4KICAgPHJkZjpSREYgeG1sbnM6cmRmPSJodHRwOi8vd3d3LnczLm9yZy8xOTk5LzAyLzIyLXJkZi1zeW50YXgtbnMjIj4KICAgICAgPHJkZjpEZXNjcmlwdGlvbiByZGY6YWJvdXQ9IiIKICAgICAgICAgICAgeG1sbnM6ZXhpZj0iaHR0cDovL25zLmFkb2JlLmNvbS9leGlmLzEuMC8iPgogICAgICAgICA8ZXhpZjpQaXhlbFlEaW1lbnNpb24+MTIzPC9leGlmOlBpeGVsWURpbWVuc2lvbj4KICAgICAgICAgPGV4aWY6UGl4ZWxYRGltZW5zaW9uPjExODwvZXhpZjpQaXhlbFhEaW1lbnNpb24+CiAgICAgICAgIDxleGlmOlVzZXJDb21tZW50PlNjcmVlbnNob3Q8L2V4aWY6VXNlckNvbW1lbnQ+CiAgICAgIDwvcmRmOkRlc2NyaXB0aW9uPgogICA8L3JkZjpSREY+CjwveDp4bXBtZXRhPgp8E5yTAABAAElEQVR4Ae2dW6xtV3nfx76cfW62McaYQBwuNpRLAuQiIDRqFBpCFSWhF/WmVpVaNa9VVal9jNTnPKSK8tqXPFZNKzVRc2kubdKGJsSkibkTYwcMNhiwzfE5Pufssy/9//7/7xtzrr33MRAQVSPPfdacY3yX/3cbY8y55pprna1jbeOMDeLWmi7CsQhNQ2urOpFdaXTTx+NxLK3WC2QLrA1stk9JiPCi/a8//9udTtK/3rZO1ntVVMttLfIp2qp0zfNxVdRWoULemqCivWi/cpLDN5v/7c7nKv0h1XRcT+ilDIycLs7JEtEXz8KLzEa3yMzkF+1XIVf5TK6SpL9o/rdXeLKQ0q3LsdXrrXgLPc50UegtvGBkUqqd7oqPmZWdRREGUCtZ2XzRvnNCbjZSBbVyS3PhheileBkVsGG0hvpustva4Ijgc94ia4rlaMWQ9hOyMWGGixzbi/Y7NzNZSQzJ+4vmX0nN6a3Ohy7h2k6Z+FqHDZWNzmnNU2wIL9onCa5jX6LU7DidwDMoGzlVZ9sET6DMIkPTdBduqWweJnTIWSY2HApc5CS0vjjCRthFdSeUF+0rWaTC6SC7yfCJw9fMvy6+joyEek2aqdQN87rzFzhu6NNhSx3VCNf7DUFLeXcb8iLwNVob+nTY/pLb1zk2Ed6uqM5Bv/VRUjovTs7XsVuSupqdM6lGN8qL9pWGjbwsyZ1vfb6B/G8d6Rx7Jh7FNONMbs2zxfhGa139M9Wr3Dgq/tkiL9r/ZvK/ndN1lWWjIKR7g6t+CXTO1/LryjL9pN4j5pRYM1zUFXfVzJXzi/bXKflG8r/MWBCoZR05fPXmrfHlW4fj3KpICLQotdxSkY4pZE89mtC9tlpCBFH8FqeZRQdLepi1FjJW7i62xEctQma0CFrfcvtHY5zTcL/3/LlxfmfemMPU3GJ/7cVkuXGac5Ky9GerG33chNzoReT2gnB2Z7664YIwU47GjcPDcWX/1tglvplZCUoG8Vx2pZ+bDlBjkHJ5CCwk8URTkZW3iJeswVBDQthG71OBB4yY3yb7impc2N4ZLz2/E5tzQBKnHJQreRtOfCHhtxkl0EM1dPYoZosOCVDfeSxei1T+I4AODAk7D2l+PfbrliJWepsWPJtMFajzahZG+JfSZTqhL6YscqfIrrhAwa0SS0Za4lOzY7zbyoxwiuhHAqZaeh3XjPm22scLbJcPdNV3N01Tilrtit899LIxiKtFyryZ6/jpYodjc4vGAZ5faX+j9n1LMfMPAG3TBtRwbMJ0tVw4HKpxqWOKJJJkENNq5npvUTjryYyOHow1Ez2iKvAjvO4kILcI41FCNA72iyB5e/Atts/SvkUEcVbGMJxcqOF20xIbrisH8meGYF+JA2dRqVyl5xiK43ayXMzSjY1WsNjSma2gtP7a/i4y04ja8kF90JV6zyoWZRVm6yixiretPxbx46OdsYMC4tarZpFE1SbmnI1qqmvxItsZyWdLgtp+HCNhSoztw0Fb9gWEGr0A2oU0vwn7R0Src+sug3LtdyyVrbLsYPDgSD7ujG2psHU906tA1UHSKlIHobd1e8n/QrVeB0nCNg1MrCZzdGHbAKYztsQBAETjiC6LFHpXJ8jnVdAbV54bB4eKRPeurIW8uvPNkyuGDzgIkDY3KZ7auecV/DAswm7iWVdJwyt01E9hgQpOn5P9Xu+btG+3ZOa8irqta4tz9qXsqz3tSxA/9FZxXD6/N+69fEkstM/aOv5kllChnL05UrEk4XiRWtHoKQetTx5JkUWnPDqnCkviyjDaRhAQCRWD5fPRLz43fv5X/nB89qmnxT8nyqHFMMhylAKAwgZAHPPy7HYoSFBbX1FHrDxUx94qdRpMvtAyX8I13CMOAv5W4OJ5ZpvMjo0pdMJ+ycENHLgWi311mHm6dJKmR4r4Emhcn/dVbJFYre64dG68/wf+yviX733ruLy3B+wZW+fVIOY3nG1PjZYToU1uCqx6ioucRzQxTJxVYVuAGHujTeJ99eulcHv85w9+cjz8sc+qpnvj6Oh5Xf+o3CjrlVFrLQdeOztT6ZdYHEIJGls0guG+COFSLCXX9dHQIJuqtFypwMESGfpt7Uv++FCqGenxQ/K2gLWVffciQUxo4IeNcNQ/RqPeI6qxI8zD8eVnjscv3RrjnQ/eN977xu8yQgSxsWzpxW4jBzcyIMJda6WdTKxKWPDBSlSLnUbTUhzICdgWKhCW4O0MbRfwmSs3xtGWzifMzllUxvctaUjZI1rHSn7wxaaQKsqx6Rjp15Ron3yxvLWthVDCx0fy7OgwPLSOuqoJ2DCFlbdfiLZ9ojrIYIAsv7f0Fo6RQeF6WzWlKh9R8+hJonN1K6IEfWtd59OxLT/0tuj48HjcvHVrPHv1hr1A1VqApqMGiuoAoSODcWFGcC0avQbo0k2JqZohCBZbDwDaOmVOqXar9IHlxf6I0Y5DdHc4KijTtscdd+6O3V2WoEt6IeHyqpU2tLhY9MY3XhXHmuHv7++P69eVfM0yFC9e3BnnL162hM+jBWtM7xpfIt427XOquHbt1jjcPyCSsbO3Oy5d3FNNdu3hyfjjkQazpLepgGYoY4v4XWzsa6BdvXo09m/sq4MTktYgh8VWbqXjvrIhZujep22JDa3pTqQQaI8svLFjvk2jaqyRfPHkZUeW1xBdSOJBO1elGqGoQ9TsY9b+s/e9Y7znLa8e+yx36s8AjCZNyQbDmtHXvlB99CgW3q2Dg/FbD39m/OKvfNCzgRsj73rb68a/+vF3jhsHN+yHY9HumCURbBDp46d2a/u83br6/P742V/+4Pj4J57QhN0ad991afyL9797fM933TMOvBIIAWX0hUV5zqv9iosXxwUcYNUwlSOx7IzPf+W58bO/8aHxP//4EfnJeULvGOyEmg0FnDTaJ3o2sbGHKhGJ5XyJhZKaPqVvLPEk6ngtZhY2IKrjY+y4sNDYGjRtyUGXsNNnPZKoRFQQHC7r4uEVd98xrh9o9CIrvsKk7nbYDuC5kpMKFB4M8NnQs2PH484LXJCVjGgXd3fGvXedH9f3lfIOFh+wgWpjgKNtbR/mBenvgM06vaMScVfpony+6+K4ecCyri0G457aF/RW7pWXztt2BFZCEr6xfzO3G5nKnIUIFhv6B9gsT/vbBiZMGaSvDVUfZ0LS732xS0YHJd42DNN2oSMSngtLt6Nrk50wRn2AAaiWhKYzah9y3qOgpcxAIGXzrYjUeH+4GtS2aJsy5HEo/QO1rIc3mEJBtK1DhoqkcMGO40A89pghTDl00v6O9H0awVlmuGabcbVDlhRAaPtHipVBaz+1i3WcwQ0cUlPt7ThiH+wwRL0QgxhJmlY0rVtRnRIo1BaJluv4LGnipo577MxbdNs+g346RGNDvR0W0UlDgH8GrMCVsG0lhIsmzkmOpbzyFS3y4DoikiuDFgoWxaeYx8YQX3/ssVPZl3wVTUSw1klGVATRWSU27R/JJ65gY5+rdwYIm0F8OG2/CiSRXP0a3hrWFN3xYxNqF09Eh4YQGybKmlvuO7JmlkwfEnP8QwNoKxmmWqdwY2LRbX0X1h1HH8Ds42iCWNE7ECFaQlXhjToGSJwN0Q1oQyUJBRZksYQ1rxKnLiHwkpRnULs6ocxzTjEiUcMa62vZ55IIde/Ptp8RLJ6w9SrJGEfV7mA3gxDGUuCVtOWmWk2GJtax/HDvVP5jbIUYsIZYoCsmCIu0C2uZeBxx87UzTUf9a8GeU4HRBYUMucSISwr/HCrHdgJet+Gq7yUvZ0njTwEEpy5KSpvqtdgXqQR6ILE0kqMXti+s/JM6DSIBFWd0aAc37FvFfDxhi2udBRsVSnNPD4RoFU6L2WSQmj/tt5FiWCVmpujSAKOwqxXKki+TO8bpp6sUb6yAASWEtkMgoWn5LQGLqguwCqDz5WqiayAKwfnUnbhUxcnohy+el061BWJJdmDriB/pJNlcx5xl3/KogFe+q3umfXBBjQ067rUZOG5HRsWlIb99KMc6dMuWekAj1aTOm+V6J6b5DXKW/ZblKNu9BZcBly0TYbE2GZBMZkcEaOjlGwZqcCfHfZMD6AIgV+JzFFoUZY1t+MKzurHVN14NGGjaQMRvCnLMzQDrmVF8HaCxgceBAUDjtvZRwQ5CuZgLBnoxXIfI2FmJAtibXAmKqG2/EKFvbN31kR3l9MFibWvCi2m+uLZ4lv2VK1N4QrZ2z9ilb4PAbs48ZhDWYtniNZrWztlmPCrXlET1/ZKSS2cc0rraBNIuJPSljxQ2NuwjXDj4RLHqX+hGKwFYNG3faJb3wKTLtrJPFz8z4umxTWU37SuYbDq6n17ZL0bRVqIthdqiuAEAYzP+k/aRmJuB2oKo1ZT/SX4Lhu5UKd4lzdS0RzWBt2nLe/oVaEUN31fCSEKToG9NqmnxcoCsO/HlAEsqgcCmGVVm1Mq+mPRhIucyRDAKopy0b4pHhxSkOK84T9gHt4YKgt7satmCABa2LQe9A4SpfrZudKZgGcns5hptIZfEwkX4pP1Jg2fRlXw1VVi5507QE3vaFNIXOYxokVJop2yzSJiOBZkSGHh6ZSAY3ASugI0ceLe58vXNDM9hYevWrpdJ20aeZVgvXa16oKgQIHpG4ZMkjHqmfSPFjmTRYWk/EDYf7uPGYj9OEaekEHQMtB1Bd72EayiVnK+zdffTDwugemrr+GHEpkUw4cbt82/2KfutFe4aPZTsnZ8NEUtW0CTLr0iki4AS46klOUTkMLccS6o8NsOy5Cgjg0QCmWS5TYDwARLSXXeeGzv6AOBId4W2bh2Ml955XkrKnMpiESkhnkRKR/9on2V/6/jW2JMtPi89Pr4pn4/H+XM74+5L+jAAr/Flw76AcQNbNDAUAg0PPd4N7e3tjHvuOK/b2Ye6bXwwds8djft0B25u1lPPR8/vyTI8DDXSblb1fEiM4SxSgU3fOSvV0LM3Sc1558lL1cpUL1UE701H3rBDJ2iuSuGpJXZoFYn7zC6HJCEkMhMkgRKDwoTFGa6Qz8mdd77uVeP973nT+F8ffny85YGXjb/3zreMm4d7us97U3o1Dm1ShZ/OtX17Ou1zv+/8hZ3xj3/4Tfr05blx7cbB+Fs/9KbxwD33CFMutFPWcFRu4ds6tUaVzcz4Me5TUf/Ju18/nn3+xvjc01fH333HG8YPPvgqi0WWuDrGxG96kT1CiUExW86ttg+d9Ig344PQkmYjEOKJvbn4r4+hQNzYUCFVTz1/czyhTzDO+UaBsJTYn/mPvzc+8EePjC2NWh5x/Df/6EfGT7z99bpXfEswKk/bK7/cF2cj9dij8HZAbZxmOuKKbqqf0zp3U4+97sjGsW7UHx/pkxitCIeemThdKYmKfUe9E+94JONzup722NqTrQMtwUcHuv+7O27JDrMXnc5PD0TeG1/c2Rn333FhXNIxH2xIUBuh2UcakOTTvnD3hNkkRLydIJzoLiJnMNakk/bjSdlYHdY6kPuzqxIJG2VavIiABDggUTz+jK7EaOZpZGgpTLITrZZkva2hkEGQjLMXLM94qi0MyAxKUHM+lpbw9g+lowIf6R6xb0sqgQ4Qb+IMYLiUrbAMyoJZ9n1ykG7O25q/wrypT5BsVIZP2SeO+ov76s9ZE150y64GjT4F9OaUuIVTyZn28gXn4lkktXf8WLLoJIthwhrrlP2VdImbstbBmtc2kpYNNu2lHwX6OceZW8Nc+Vs5LUmSSCLERy9FUHhW0k6NxGmuJMoaNyKQyZyTjAopEa52kYxU7ItjHgxjoWhdEV7APjHaDxU3KV2QGUwn7YeAkbbvMqVrn8RK9qq3yNEKOj6pA4aNw9E2B0u6L5T/F7RvI3YwQBaOZbuWQCPgkjirTYWedl8JJgnlfFWXGaf0lB8BB8ZRcXTB02UmMcuTF7ClZ1CKJqoVUVJf+7V9Q0GUjCVkv/W/Efu9AgRnbV+oXAPE+QoSS2mm5a7tl4D9zHAWz/5FxnuUVsU8zUYgkS75L4oNxqphTsDezv4ucLHZyqKYwAiPMWySYhstB/2ICI+GoHZ8oMv/zDLbVZGoU2m7wUzztSgF8SBI0SiGC+zZiQUkVSyqL2x71Uk2QfLyy9iic2QPdnWiVzz8wZcj7TocX/jJBjgxgxW8CK5XHdvQ+d0eLNj0+0SDvbbvnNEHSi8O8NjaPkMwtGghQfwz/zjo3EjJ7zrElVvb+rixDPXBuOyChFeLjzR5Oljs2ruJS2yIqi2rXMkSDBycdHBkXvRLegb3Tn1wfeNwRxck0BBADwze720NnTJFNpqOR+N53srw5IvewO7o0RUK6RkkmR3Rts/rAopSCYoys7WfdIGnSjaBf/pLYGKah0G0IuyLNAj8g2RmSlpDxKJgIHtBPlw8l8sPYKRSyQeTLbEYpvrrg9uWSgt/PfCgAYYiwNppaviYPUR4Kji3UfWP9/54ynt9tjqkM/unmTr1h2iDG1oKWUTomUUKWu0kAjd0cSOLv/onj42PPfVVPTN2oAJGZlpVw0lnuRQ2A+Sll3fHj775teM+vV+9OfbGLm+h2i+t9Vf0vNMHHv7CePKrz0pXswoMj2QA1GlZNYxtG9rBwNmW4eiNMjIs+ag/bchZJSLB3iZE5KiL6PESPS+ch8ZF482rA1AbM1ZjT8pF0wsbbd8yZT+8yBK/82ytZQeXh/S4YGS77yWXx7te+9LxupddFu6uV0NPXYEt9i16212WYtjxdhFMFe00QTWbZarbJOsDD31y/H6lKaluqJJyJGoz+kismr/9hkfHL/zT947ze0o2YoXJW6af//UPjd/+nx9BUgwp8WQhTW0eVIqMvmc4dPV9flbQ7ooU8exjMxw/4agmMYA/x4ENGH0mnrdZLj9roQQLwfbQpqRRA5CM4ws7NhupJrTkLAM0ZO8lb64DIlbpKZ5drYI/8s4Hx8/85LvGm19xj+EsD2ypB3WFtW6KOZdi09fSCsjnmpjOiHZbkshhguPeBc+HvA/kjIF/cpiE64/zSmZKnIL++ONPj09/5fp462vPj6N9gRhvjGeeuzEefvTzWrf0FKGGnBcqAL3EkxxotWxDR09Hmr3RXuyzBOKLBBkgLPt6L24ZPdhGUMh6GqDnZsWgkwHxH/mKeVqWbuKyes9k+wWAXphy/KwSJ+NHIDKeC5ItozQSj5bgQ73Ne/SJr44/++Kz403fcY9tohaByGVQiVSQZvdO9p0+82xk0Q1IiC5aJQBn47B4XCbrth+jl7tCW3JqGbTo6nko3GJk2hP82Bqv1cPVD7z8wji6pZ5uPvDgNRyuiLe5ylYyh78+IuwDIWhaG80+BLfgJIueaDpC27AvPD32K2QVK9/XSNJ1o+L4ZgrIUCF+YvJANpQwOUUIjGemfH6TEHUkIganH1/1U4yxyWrgFQF/iGbbN71PxA84TB0OsCt8X9VD0yA4pxzyzDJiwjnSxcl8vkoiVtReLOs6YNM3d8TEzaNs3SBJWLYHYfG+0mhi+SKosoprP/SON483vOpunWL1wDjLlvQC1RiMeiB15aog7ri0N97zPa8ZF85dUrr1SCkZL1Fmlj97BUZPFF68eH788NvfMO6+vDUOXPAgI0/LE0bH6K/9LjmxeI/66S9eGX/y0c8gOXb0Le4H7//O8b0PvlL6GVBtH74fs1V8l3S+4wvQ/vxZvjB6jarm87eOxof+/Ivj448+AeI4f353vO31rxjf95pXaLapQPg/QRdfoHpSCD/nbRHAlcKXrjw//vCRJ8eTmqWeBLqr4horb7GrPQ3ZT/prAAHqbYmfutS9sCYi0Y5IkaHBxihssl2DxIXN8fixt90/fur7X6/nfpmt8tLyVnHmeznnCpg/Nm4XHiipW8eZRnaRYMWLnchd0gXMT//1t45X33OHvmcANrNoLRO/fV8V7PaxZEBkFf/lhx4df/yRR8XeVbFUhAdfMf71T71Dd7h4myZh6ZE+sI80iC+oWK/S46c8WdpbLKX3pIrw73774fHxR3TakNIF3X567/fo+ef3vK3Ffcx1AE55PZjuqes47a6Bj8dHvvDV8ZVruoVLYZ3GtfXk3/LexUwyFvwl+Aj4mt5BtUszAqi8SgX67AWMQl3XvdKr+4e6qa5POrgScuZLh2LJyxS0ig6KZDy3jUn9febEQEawG1yg6Jt9GgTXdMW9r5nQgwR21SMeYtPETfs8PXmki6CbXvZ4+6QES+RAvj5/c18+J77SJt8ptE5QNw/1jQHuFYtGtLzYdAa0zVucIvQHn8i44YJPlJDNT0xmarmK3TQTN91oeZ39dV71+dxXk6CAEyxEW77U6hAqUdByTtTg6DudayUCj7uaj3ijpM3vx2rt84UIsABox/mH8yLvT/VO1q6gFpeQUKuiglZ1t4DlFnYwRSSoFLEcth1meHiy6MEhM5bFBP40d9qXT17eXXjFoULHPgpaRNXpZJggBJ82IK62wJcRC4hJjIXrA/btkHw2oQGkZ0ZyAis5Dj9xMhDAVATGSKnYs23Y33TY/EhNMzbns4G53jWURAEAUS8Slgso0a1RhglScr4MoVkWUGvdKMAEJ8bBcmKQY7OCSMLClpnGlnbR2n4uwuJnioBd4WHihH1fNPmEx90QbOuozLIkC1hzr7ZpX0NYS7HRK37HbrGAc6oHTEMk51/3xKuCMygLzlqOpShG0C5Ixa6Dfa98usr4K94p+zVIUMNFH+cuffYnCpu0mh1UNRmBDa+Q5QF/OX84X+pZLJ2OanpPmjgba6tkIUizR7oB1EfSSZ22Q1vb50IcNumremb5DBFGtg37hTt5NnZb+527DJQJZFxfpdrPsm9/tDuRyfJiOhPT2UN0a+maQHcdP/bdLxQOizdL/KYtDEtPd9rGmk+b5caD0VfG9CG63G50EuyplbXroVRuuAi0GSDMGDdFpeFoSLw26Gr1xZC6Ipy2T7AMFuywhNE3QBRMRzVo6mJz9tPGzmn7HrLBwoadwnu22gOkpu2rMa+AMwrELAFUVlvbbxxHHKKlgh77vhYQ9Sz7i3DsrCBW1nwN05BFT1cdNfSPGcp88/KJiJKZkUTAgp0BdQIk0wWLZ9IFlJfC0Vrmq23r2YB5qFhGdOOWLvib9oHBlv6kZGjLvpB9oLHFsex3AUq37fNbEmx9nsTXJM+lSNthZ8nOOwdiq+sLazPo3KidOtXP47vdhRhG7CF3In5ZbPsTMQRpVsOMVfyiz3vFMSDBqdQmuehg9MYACUiIPk0VpA5iUID8uWsAllGuGlka/FGdixLne2baZiokxQRKt1qyTxvHRKmDOsa0jHyDjo2z7ct38f1AgJ9RRoqY0I5uCi+/uMmiy0DOv/jtGw++zUT82Jeub0Zw40R9j4OKR/KHwixUuwt++ll5tnUuIVOZKODJPhtC9sWN6odhX2me2JyqUke3myD4qpj4ch5bILqQ5MxKWoq5KzJnmxwCwCmqKix5QglQkqCD1kvOyU58FSFJNbQxbb8AHCvqYnvHoMrHQU526EmgC4ItyZxln/MIeB0Z/uO3/eMAz/jo+/pf77HHePzKvu5C6tv7lqQUXCJy33prPHP9YDyHkNdhCnY0ntZbvkf1PpS3fYDm0ix+5XwhDwSmm0vjvgvnx517vId3JPab+wI9JDx7pRpu9vE3vs+CmoUNoNTxMXp5u1O6S83DVLwWBo42hk0CWf9iQBROdGRABwrGQPa5DyVXE6Ycn3qFJDZb3EUCgnhgq6mDdpkpbpf9yJBs2AWCrJpr++j6KtYVRwC+PbGl7FALuq90JcPjqRSZ+8r+zNajU7HryCDdV/GOeXxHuHyTvU7045YC5/2ts2SMMlhfA/XbfO0SvWxiVv4TAtREUvGLFa/gLZvbYItKLKUcATPDc2FDtVRsiUBN2L7W92NR8BWyZCkoiUY1NssB0XxGgg+oJUqqCuckiWQ99lRNfWYIAYAabDChg6ONjnbInbSfB9Sladwkjrho5aV92Wc09azJ3SgMiC/lrLbY31Zbs1o2uZWNfx7QNqy25FV56dhD1Xsdv1ZtyOhZEby0oMQ+fmXg+frBfO0Mh7Flc4+ded65CSJkm4FsE2psqDPSHXCKZhRIBuwEkyI5JOLJ76d+49+PjVsg2kslLDcYFvu45ErpkHZ8v519coxcn9MSHyAwgNIKQ08FQdChAWmds+1nlSB+C0kYf5NQ17T8PzN+sNE7cfCglSPOpb1Qm/htY2pUI1EYw03s24vSXI2fRB972cdRF3GDjFOgwQ9gB+h7xbAwwpEGm8XULrAgQ5cmCbGOo5IoOiCGbhVjAWSo7G3DwIE1VjCAaPug0clpIOgT5Sz7VogOcifjX1whivRQAT95oLPYV8/mzBNY4AtFOsVWKlBS1B6toQNfLctN4aXnlmUMuUh7xkahjNExX7tk3P0WdMItgKtaYCWDJucfnyM96pVgjjgqKS4akGEJI1P4nveWoNIBIPbRoO8us4hN+jwyw4ZoKQgnwLf7fixFSZ648FHHDkjd5zlG9Rn2y492wlZltOPHMeKKJo4GFjlsYM+nFRy1ctwFVt4GR0LkLpkTUZvzSLzlUnRLImYiuLHHyGKGVigrfy0hqhnTIXrpmK4dQZnq6pAa/vQBgJzCOX68g98/8ourSD/wxnlHfDltHEJS1jnv9ualUl2jkwXw+WgG++giygt3dMSPdELOWyIG1yRHzokqpZXFF7QPBjYYOCfiz8ysyyxcYKDibpryS40ahPFTfTYF4NwhKC+59HOTrjb8cUrdIT/QkBAgmGdtGK4tWJ4WpuTiqfTXGJAszM4jvUDIoAQTjD7ZuXljPK3nlPgojrcE661hoWKSeM9vH44Lutz31gIE5UItMdhFFcUByj6z3gCtIywnESDa/IlgtnbwGEx5vxV+Eop8EuAVpgsPTX5IDbGKfemDQNC+d207NlrGa7DrCnmLXMlX7Gc1wxlM5uIO+oEG7A19YpW6IajnFfThf/ulru1LpVoc3Qmjmk1auM2o97FrAYTQJt5J74CxJM+sjqMS+cVff3j8h//+YQVBNuQSXlkmwQKSZScj9LI+PP+Jd7xx/J13PeAPpTHTAYHMSAaH5fXq9ZvjF37zQ+OynhjkQ3HKkSU8ptR1wqh6n6s7WfZOftB/8unnPSj4/Im3I3/0yc+Nf3v9up5QEFMYdlluIEtssZFBAhNaBg2DU18Vkd4jn//SHGj7+iX2//HwY+MzTz1jHsWjuhk+AKIfOzwgd0mr2K5uejBoAz7Gs9f3x6ee+HIwddHkQQffWynbkabV0RgNJFo1NWNVAApnZ5pOUMsItoP2IpZqfMqnrfH0lau+elvMBRkZnGvZIGP4ePziM1fGux64b9z/sjvGvoKwbdv3WdtQLO03b9wcf/DQp4RBYigeLARjo1tQF5o9d59ZgjiebOsxlm3NqEM9EPC5z395fO7xp4xiPcH1bEeeUGPBwGmLGPsMefmsB858epH8/i39eOhjT4xPf1o/Eiae8+W9mOu+qwtNL4FZzkfVE1h2woUfLhmmjX9n+CR6QgSztmqqsF3UhJJRRBslwevFuQG6E2V3MnIJ1KcTjb44WeAlw1IUr7CiJgoEonPXvpYj2HwY7qJJ0I+qKElWkgxPXXCrBrktvXHc4iSNI6Bx1D+1vDE4TTYXGbGlaF12GkCaopLhoTb5q1njuOAZigj0h2pfZBU4B18AggcPHSkRjtMOhJ4G4bluywKIBPIt7lMJ5UouPZkUTn5KyWhwbOfYj+yIJlu92qkRszSQs4XYq+bGYXWDokR9wF0cUIdXbW5WUDwtAeeCHhbf1ZMGuW2IoAwjyMAjmUDgizZUz2tZ/RvvesN48L676kGz8EHb3tIztBlqWFeQ+jFOPRQDGLcUj3fIjnAoetvAHrJk3g7K8+YxePTHQ2HHwpaAkERTwvC93AJQPVAmpVAXGXR8lwkR2eepDw/cktyRb9jyEry2rzzYWu5yYMZ5QNYDvQge8+gzmP1BhRiOB8xsmI4NsdRxKUQLPXtLqjkL60LasYDkimxRhuWb3iQVeN0s57man/7x7xs/pAfAD7h3yoUVfsgq50pGW1vHLEnd0/NB9+orirqOtrg9RIU/JZhYMjGPxh137I2//8PfO+6+86J/99Bx2j1KoCIha2IHxbG3PGVPzR5+/Cvjd/7w475FuKsHz7779a8c73nba4SJfHSyV1xVZIUpfIqHDUfsiEjYc/rBzf/9scfHh//sc8Lc1cNsO+Md3/3gePcbv8OP8DDTUhRQnRDtDaQf8t4ePAZ+nlWOossAa8gTOqX92p/++Xj0szpFUDH5gWb0c0jfRPObtyFnFT1+6rjAKRjoDrLAHRQBGi9HYvds1vngrjvvGq956R361fGA8b1TQ3EQrvW0849aFg7P9/i9ZDsvuTx2aiMOdluBc/X8vu97cDzwsrvy8wLGVsBKBgnXP8nWcdWHgY+867qpWbu789j4zQ98SoXS5ZNGw+u/8+7xD9/9lnFLD7M5DgOV7UoIvuN98BucOMa4cnV/fPHZm+PDn9TDbJLZ0yr01tfeO/7BX32zzrca+GUfPxiA/PNOx/Ny6l4NhPk8FTzJffSJr3gAPvoZXUCJJpJxOG356j4IpqupIxLLVjBF4GO7DX7YBpUIPSBwlAgpqwHpK3P8Vq+uRrws6RLXv4XoWcpSYlnxpewLE81mRqZvKoAsDGYEVoyc0WJ7rOIMqGMNgANdxV47vKWjArRa60iot5Dsm+17bunDNynoXZh/mdVLdaqlK+OtcVM/n0sRIGGfvatoFCLFGDTxzBZFR35G4XnpHvJsssYn52P+bikX1/WM9U395LzXCvJV+rHBE8k6LWil29eA4ztPyaVsqMXXYw79VlJ0vSW0UWNgnK1yn072UXW7pRyH8LwU96ysCFaqPS5AULGkTStvB/QRHkuJnE9ixNR5EA1TJOiZRV8OsvGGRd2FXrObYhOmDaAtTL970lDwTEZP/CMvcSTMcKZ6CDn5AJPpKkpM6rwsCb4VJpaXSDVZwtl85lC77fstmwSxDw4xG839xH/E+01RiZT4GYSxqT3m5XP0i65AyIeskEErMNCnDjjkBxHvyJI69lHZhF7+WMSayEpaMvhXwlBm236lfFFzkVzBpkbYYVpEEhG1bS9lwEuAy4eI2CvTbIxuvyRA/B5MOiLEXyfD9sm4XqDx9UeUUaeuhoFkPXAy8tE/y36SiSKaSpma2OdKwduGfQaVR6vxLW+h0/ZxC//wN1yk4x++seUgaxE2s2s4Za0jeccpvxgtjt8QhRE89mmFt1Bj27mDJXByVdItJooRSIK5FiSEyK6gRQg9kOWbnVxJ2Wfkmpa3GfGgUNWpsT+TEGRXYtqRvZ6ueDPplNRmAT1ln0rGfkrg4WdnyoaVyr7LDgFwvTbsqNezDT9VOXKU5f/29i0qKfsoRMePCdGwkMRsxp+BXvYjyj7ybmVn/cZOx3jzS1nQXJhKHP381q8+gRSDq/U4RlrU4gTjb8L5Ol5cadRInU1A9GKGZFlWozeSolicZPY1iOyDZWomeClT24UQg0TSFq5JbqdgmPOmBjLmi0CSkHAaEWKWcxTo2j7yTTHPOJHwzIfvQqrhTbjMcGtxAFSb9dIEcyN+ePoAn629Qt/xiwdEfI83DHiRZvwdkwGgu1HUFVPn2GJZu8TVBs4GMCTXuBPslr9eiEvpH+vb7CSdOeNzIBArA267EgwEMYTHOYZbhttacvy9oDKLLMhxhTKkl/etEQovRjyqi+C3PZ3Ylf2ZJArChQ68lkNX9qY49k2DHtm87YsnUHuLFgqh2NMG6qNYrKo5XXHupiNi27fqSlgpJY7MVnuQbDhGyemYeGLzhfZnfz8WDM3IXUV5ASd010C3DvQskGh958YR6X+U0vuy88jgdG844k20ycsoJbAjDYYdXdQ8T2FF4GIm5USJiwwf2CfRwmb5ApYkIcs5Eou8Yk77aVdEbUi2W75gUTzIrwWtYqEoh4/d9K2B/dKKfRDg69UKahOqyTqwxX4NEAQD6VgsoH4XKn6Cl/ixP23OIBZzQE3TBlvtxJxLcRtqaS5JXq4vJr3s4gWxYuSGHti6pN9eIts9Y+/RDYdXX9b3XFmae6MIeKytnQureuLxmNhnr1z3f+oyoyNQCdppkqlXwVSBsSuaBBxryRu7DelI4ZHkqUQA6PEXDga0HgEgP+EWy8e2x5oFb74tt3rsW17cqWdkvChM4lfbT2UaHmXY8YWvnKbfHkmPzQM9Td4WOH51i6uWnfCh418xSxGFF/p+rGYmZ0/dJ0CS3fK+U10onF4In7b/Q4WSs/mooKatHHKb4PTjXEq6r0D9lk2DokSybFlQtCTSFoyXxFi0qou8i9YmdPSbJ4pWPuTAPhdZvC/xEitZ5gcIbX85Akic+oPNzpL4nRZLi3niWBoTaqztW6t8hWlf8r5IwqFYDUHjAa4OOhW/Bb2z9mK/A1wE3MJKv6XD02wOgCaWeLFhJEcvRQLkz7bNLxm3y/lJp9HggellkZ6T2mzZ8Jv6wgkEiazC2wdZlrxHc7vV8u0juGTffZhtwNbUi+9fy36KeYZ926v47QsWJPd12ncAU9Zg2YnW8fepJ0GIYXmJIdP2V6prAfh1sddaSC5JWLeXJYoA9DIoVmjxWuuZablqTb+QYtXO24YsSU53jb7FDtTCFNF0d2XL/1ye2HdGxWTAedCBj4/4hWdq1YBFi+UV2dyQCJ8+m222MS7bTdy0j7ohwlUnPSBuaz9Asi4sxw9BCqiya/txIzz43so+7Sa5aWW1Yh92C7AOibySbtlYjGyL2/NWRgtlGS39jFiRCsMzE3HJrCzYtkdUCfqXTFtJQUcW1ADRT13UcgfMlf3yCwg0BGF5f14KDft+pdgRN0OSkhdvOi2yZ80csGUSYIxjn63t0yxPuQIGam0/ISjNZY5TQKfRUOgAivMICwR6BqWNqreYdWfujBB90QxRRw/JsCONYzYwI0iPfZwrY8jpRRJaH4fZ+pie5ItuTe044gRytC2PDH11HJSPUfSZETso+SV6yeMUfrHV8uPzyxIHhuDqQkiYyCZpZVecxX6GUvic8GLnlH3gxOqlGsyIxhHOb2v7lmua7QOwbGKVD7KPnP4ob2c2qNnP6i3qCa8x6lhrTUs1lNGLuNDsrN+Ql2GGpog2WXYbaTnidpi08MJjctOExT2aLSum1kuSxTNGFMwXSSJkCY9PXlIFbZqPhln8EY1H7aZ9mtjPnZHyarJFVwnFT3YBxC62Nu0jYlSmKOKAstKku2G/JO2C2cvOuusdcfZD7oAgupQ34Ik/WoxxNh+qHcrq89gQUqS2jWwWhhYnwND8PktDk/eTvA3yqMwwlXBbAYmwkYuTe/pQni8m8bSEvx/VQ6uMIs3S6VGvIx+z41Vfveb7qaCSBGR1Ra5XF1fiKPhFAfWpr7ucTz3jpcctfN7y7KqQmy7biSoumMKxL7GDH/4frrFBHsT3Mk9SFMehvtu0pffoZlgXQVyp7/rrI0S9gffDbNeUM+7n9mze59d3FIxI2YyNmc0KAJtNHOJXx7SFYfbqg/YIrPlpLwsDKAkWWX5q53D8+9/94/Gr/+fT+g1gnnaoj5sQRNnCSmwi0EdVu+N9b3/1+Nv6j3RdbGemSk6F1EeNmcMTGteuXxk/9yt/MC7qC0z8J6bAOGk1O+yZFPo9M2kowzrSkkf6xOnprz6veyzC1l0zfl/4Ax9/Yjzx7O/4yQoLSrI1wbDr3sPt+OMnyTzUR5Sff+qqipT5eEMf1f3GQ4+Mjz72RWVA2sTFUF6SVe3IX1TW/TZSclxIIX1F/1/eI08847eQHneiQV/sLx7GWbgny24F02UiCgExrRAbqEcMElxRZpTDRfUjn/jS+PD4EpyJ5FSI17MoLkhb0/C3/vSx8aq7L48ffOB+Ea57FrUl3t8SKO4yq2/qR8X/5COfXTslXqQpRYcVygmO7cfJLX6Mi2mt2XKoD2ifevIr40meMlxtHb8HiUMVugsTDCfFmFgjFu14jkfbgT7XffzxL47P6ukHBhP3xXwud4HxUjFJzY8P+Vmv+GpMAMTkQs8vVsGyDwuZ+JZ9kXzo+N1Z5QMdedYKOKx2dasn2pJA2tx4mksasjv6OqCKQKJzib0kOAY5XSpcfY55pNuPfHD+mWeujncTtIL091s8o6Uno3z31FfTOADiOdF5XkkfZPt8h03k4LJz8uJ2XLei/NGfksSzUv6RrON9mdONUe66SHtLmImjACE7eINaBuweQOHq1oMervNvNHGerlUGtS2tRsTv7+DqyFdO4w/WyE3ywg9/MV6IkZXJI4QYtPp5aQWTi4eEYT82C4gn2Rg80wg2iw7ZQy7+dQhhe7S6uYjvyan3v/014/f1e/3X9GgoHh7vyCH8sHNygXhthEDUoqgkU4HuqbBvfPXLx7v141kHejqC8wujG14C1dlI95BZxvjmN+dQeuBt+wvJpEexsPNg0BGKifKzjw6RDoPE6Vau9P8KsCKoz3maH1XrrPgzXatLnj/asu+j+raPT1p7qcW2zqPEq6ZofYoQXXp+KkTx2HHxJKg2ScGf2gAWL6UQQg0QLPjCDr9VXFxEJprs054FBcY2YKkTEUlVYW0HnklqnNisLxrJ+Jtvf2A8eO8941P6wSmWjB1PG3Rrk5N2WQTH4qMsaoRf1INk33//y8Yr9f/BXvN/sa2k83hNuc6jmO5pR5Luumtv/PMf+8Hx0pdcQNpb7JSNwK5sI7LwkCVZf/Tpp8av/e7DauXX1n5A/5HxT/7AG/wjYtZQAoLbnqhPHFUAZMLRgFBWn9d/NvybH3l8PKTTCqN2TyfNv/b21433fPer9RhOBoc1CAZgYeU9tVY8dS/rfL/HgBMPb/n3uWevjf/0wUfGJx77QpTERJ2tfZttTwh8hCluC/iY+HOSQMMwNSLoSsh6kxWAbT0S+tb7Xzredv+90WFE1hA67chEEBbl1l6BszSjsn2k/2JbVMqZRMauvdDM3T1/frzrza/RL7PpQwbdOOfeeXwXjgKi7cGDvjp9frQdcHUrcl/PNz1/83j8V/20Hxd3fLfou15+1/ixt75OzzbzMBsBamNSBdE0wsKarXjJxIAokntG33b/2BeujofGY142+bXSN7zqnvGjKu4tXe3aL04DUgAzR8FpJuh/hxn36YOTyzrfr7eP6rz/e5/6wvgEVnGKwpYP2HWAK4VmhWcBNyWov16K0aMbvKnuc1CNiKhKRGL+IUcjWzG7E7qbzlC4OMq5zY911XQmaJY0z9ZUSR1lD6oudG7pavHGwZ6Wbj0khs12RM3ZhkYEhABGGg6Q6/T9W/rfqPXQHb8vQdJ0raNflLuph9o0h6XDKS3ndRqFC2QbMG5kyMkN4d063BcXeb0Umy6Mx62b+gU5nlLE/YovGGARv3gq7gGXxCrsdFVcDTE/z45yTlHB8NBQPLJi19LAydrcxEH8a6LHaSvAWRhuFeCa6gRMuTQwulgt6SkTZgZEiBlT5ENui2GHPCuAAS0jHUzfz+VoarCZBclbjpwSwJpX7AjblFNvDOxzLrWvgSkdMcxT0tGRgG05diUbXsg+IkLaWNZnHPCJhT9jiWC9ts8wBTjRlXM6gJxeJpEGnkmhB8Miyy4OLH21LG166YnG2Mq2LvfCB9uaZ+CFof3Ca8dR2twsU4IUhUSwCFsDe2UfKp6mW6nTDGtH45oVVCgxJM7FEAnxom4BJTQicUIdI0nWLpjHzlMrmWn7Mw/iq93ya/v4DN1lU6NLjLTtwtmwbyj7Ynjx0C1003M+lz4CU3exbz8sud4hWDFVK5QlXyYDaEajxMu1ZuR67yE+VdVIwM0OmMm1cyrUlsPSZRS3I74Kt33tHBwduHKmYrUwvlmkeIWcmcUnoVHhEDmOrbRpb+nJBDKYZMeGDQYOxtM1Lb4UHqLS88EyuZItlWBEXW0DVuEpWK6qwWZb7NMhP9BAFkBjILjeHFcISGKwRTMQQ93AMMnDKwrWO9GcKKIHsGFLurs+siMcDnKAV/kNnRlslvdxMfUQHV7UnSxELG0wdcDiIH+jE3EPEGTFtOVOROmdaR9g8TkYtQpy2r5BJcVW9iV0ln10Y5+5jT/2PvFHPbSKo0jBKk+geYtq2oDVluZCSGGXfonF0VaakUI4KWtDK2uzORt2DdWFwgXiypVVQCl9jXyU2JQt5yIVSr0A8wsNNfKvjIAdAQ96tdMDLFvX2L0N+6JIiYuqGetJ+1YCUZsO2K/emfbxAXtIIdfeTXwRoLHl+M3nX4WVselV+TXNxJjZsrgSm+0kqN2anq0ai5MuQHH8BS+1/aH9CpglNalinz8QnBhXFx29kCufPAzog2N9EshgSNHZw9z4iBEMUQFbx58BJ3tiYq4RNuyjZ8zyq8/VTRZy249dMYTFJzd2r7QRh7HYz8Ua2PiG7dh3xzQ02OCzOQ+Smls1VVipuhPR5K7VrBo1kaJTcoW0gpzYm421RBwOv5znTpBESAVbHgeiLYqc4S1CL9s5DyU5XmrsE301EiEIcRRMB1N9VwbUbJ1Mbhxs2DcjUinm2fbxCTRsVySFfYZ9m5SUANs+jbST/9Pxx3/fd0ZfwkJOQ/u0l6NZq12WYhNK1IeVAxNicQTxTozb1p8ut2Ad22ULGY2EM5h4gZNcxn5mFfYVcDI78eiihCU/9QCa/vmGR0aEOABiSwwfZZ8jutnpEPsWQRy+wcUCUsUu1dDdKREEEPfSkrZKLx08NkdMjuoVSOyrE4EMOLWray3Hipbp2qGbgM1nZ7i2ko55aW4SZmE30y8D9mZi2ou1I16nih36iuvRLKaPCrph2nY/filXewjZvgQRceHbfivraJ8QMK1mkrtotyDG1LMt7ZSpDJPSJ3NZ78u2BaXRR7TjlxGrkMC3fUtSyBmfKC5CME7Zty76OIv9TnvLx2Y8l3ULdkT2Qnr+h0g2y1TTh5KjLd58x75Kf0KsgHwnJ/oVejpreSiLi/RkxITF2EZXhum364j7SYcCya1BEZFTgUGZ8iGLBlX01lHbLtNXw8XhaH69tbKuCFbtciNf9tXEUOtQK94rIw6MPVEnOYXKK5vN0Kexsh/FvLUxC/AABC+K0lxhyXCu8Imft1zZStSdtTyENQ+/cv0dvclembCBsGcZpvQaba2DgAcwAtPxRS2ZKzwrKskE64BxKptzQJKQUcelCLAFUgA1xbdqBG0csxk+4omZRMTL3HaMb4I3QM8SektSonfKvnWE7pxXgCh6AxdPT9hHJ8bEiE6ZjlphEkzHD4jv9BWuRSKdfWDcXnghGmOZlbBhtIb6brJrZ43jXXLcspAiRyuGtJ+Qi1ycbWxpMStgV2G6yBQjpwSYWlyk4psaYKKul5dDQ9NheeaYQZOPwOQ3BehRIHY+WkupbbbtO6UqGOdryS0lPmmfvnCVPYvNfMnuhn24kouR+CDSUixsQJYAMkbDvjoGJn5LmEfTXUjaXij//nRnCZHiNZg041c1yhaItdl2PCiDQZrWIzCdbL3kmSSIovMdgWbG4LiIRYPvK1Y1agQammDtpxtexKXC/Iz9XIiQIOkpaXwiw033rWM9YKNq+MILbBySTLQyuJZnoySQrJqvnjNJhvwwBh/8q83ZrOfYFjf3RefL2v5owxBy1spIA+mONd1SP/EIDwJOcQ3gJ/XIC+qWrL34ta2pKXhJqpMvZVmixXAkbdKXTX2ay6HoTa6UlswpD0SncNNB2q4YiTGs9iRIf04mRVFs+szjGf2I16Vr+gEvfUzjlY9CqFit59lgHegnfFSS+O/Ab/r/z+MJBX1UpicVDg9ujCvX+IRGoKo60aJaU8sgsQAR/5RgCTgtu4f6f4b0CREEOYke30Xcv3VLmLf04yK+3a9VIkewEcrA1U8kKO5dPUVy/Zwe13EcRh9PP69Pm/wJVh4GwCk/NdmRYki0OoDqLf3T+Z9fyrKAd3al1NJek9dchNIv6klmoaxHnT1jDVPRfMO7lr0+Hbg46Enm6tVb4+f+yx+Mc+f2lFg+gINOknK0OWUbXS9vzn54qYKSK/ln9Mvf+S88NVRuHuoJkM/rwbFnJZjCNGjw1JNO8MqWJJmD+IsGP5n3paf1w2XMUDlz88bh+G8PfXo8xI+N6PPeYw2Y2IuzDBJjg6PQ+Z6TH2ZT34NV3Bv6XYsnv3xNLenrL5lFK9e3HlRF1WFuwS30NiKuluJiNdZUWRo+z4EcP6eTi8TtWwtswouDorLc6MDS5PTSNSmF4kNxfvHsET35lzf2GJedqnxpuetC2wULJCSqU5sfj9HMPFI2oT797NXx9FeuFF6EenBYTX4gGbT444FigpgqB884UUR6/ArOF5+6Mr7whafVU+XwcW0fNPqMZzt7YoZBFn97VyuKVpX8F6ctWoPiG8z/2d+PlSE7hte4vhouJsEOB4HTG8zaWhWc1nXgVSCLSohE7mmZuqxHTfXshMxrtiFD8nBBeEuq0yZPzXFL4uQt0GXNnbT7Qsw/xoVNCVvevgldYnnSJ4WI730GFTbFsa+ev9LPfLNz6FIUHXMejc04k9gztKXDDRAJeimWf3CR9l0m2eCxr4t6avASD87pLzYTaqFCtQ5xn9rEnEuxmWvpRHUCoAR0MHstv0avZDa7j1PEb9ABAUfHEniZvo/7Pj2L9EtXHtb/R5crXD/dIMWIkASSEt3Wm7jVALNv31F80p/E1eh3BUU0qHb02aqZnpItnBe2z2BIYQJQmrexbxnkqa2XceKI0Sz9MMa4Y29v/MibXz3erufDEnHQOwv4+bXyr3vxvh0wdRJsA519FK7sZ3+WxGnOJoXz5Q0V59Hn9vXIC06Seh1VhS09YvK5K9fGl65e09WniqhAk6642HvT2EnAo1pSBEvNvZEwNhct9v22yhdtMJglaNZskaIv6GoUlMbkG4qdKNl0xB6nFIolX/H/hewzxM7pJPsS/VenF7mQE4C/TwSgFLn04Cee7rlzb3zX3XeMOy9wpsxVP0t0b+2bHWji6mi+6tqeFitqSwDOnroEIJFmbzZXvZVAIa4P4R6N67rAeFS/cMaFqdc/GDLAA2j8smi+SI25zJxl2skJpqHk1wV1YspB3FwHvfbIpdQI8H/8G0GJqu80rItth76l9kE8L5uvuLA3LusU49lqn+1w7cquDh548s1ufoP5r5/cA2xGWQa6T1cm1DVlRcZwqH2MLHs2kuUlxiWIg6hzavIVsSukQsKv4U6PZ035rcVgZzZP+5hi8/QUz8ey7ySozT/BtH3OZXNmgO/zdycMHyk30w08YaMMiDvfWvvbWjFu8X/t6mf3wPfCkp36bNjW3ofyUf0Zf9iRmT62r9Y0z2/imBVzQ8bbbLi3kig+h1Bbv+d+H1NUicmrDX11uCxglrH5hkErieTzroMNH113QXFHBMkbVdh52xQ4NCgF8lwNO3ZZcx8mdv5f2pdDFI0wvKnR+XMfHzcb7k354uYQauvPFAqDRW0xorYHq7OxQMVWWWztIHvfkhllJHTFBKv6RtCOo/MrOm3LI6OGed7LNRj651msyviqFsUevtaBHnseLGr6NAqv0VxV4ZhWVOm0n99W+7gfdzst82iPp9/lbEUxtb7O/LuwZccQgdO+rasxaUh0NmiXjA9TfkFLC+0wjaOdZ5qOU6UavtNicZgi6kUxKXfemtTsLJ981w0xfPIxFg3Hzg1ChOkxkrFSA8NsVKrx7bCfZBLkNOt2dqtcr5yLdOl8nfk/UdjMGBtJrtQMYFtfenKiZExbGC26OjZue6tzmpLriYQeL7FSwupDEh0aS3pC5j5siy/28z9bBQMcb9MfNGsue7DAxb5wkP1227dznNPLvvu96zzBxEu2Yt9LBwAAAjtJREFUGciJ3hK/JTbFshSjEZBNmMjGiUWiheEm3ehvbo22UINVOjr4goWCIaoKWkN9JHpptY46uR+uM6eEZrFxXcp59yJJAKJgeiybIBZ+qo094ekw7Vvv22kfX7CPV3HPrjr+DiHOJxzkNiTUMQHl2+dfK12/BS+0maDZKMbpw6bETF8EN5jqEIX+eaboqFvd4xl9z+WovzYZP0tO8lR3HflJ99TfMKEeS3Lu+qArAezpwHz1u3WNAl/4YguObZbgt8k+K86du7v+OipeTEfTWXXLr6afcdyU2My/Cus5c8rAIra0TmFvIk/2SXL3c1zvp8qL9nskVkqWrC+tdbbc7sSeYED2OTal9eIwRTLy6Xp464h47dMsljrrsSGZ1rC02N3Pcb03ZKm/aJ8S9vbN5t+FZc1nyxku7fW+CxMZBMsF+yHuAiDmyr1afms4BNI6SwDGfNG+c/OtzP/qqjjJnilXsmfbjXV5axZCMi+S7OsyxY7OqyANmUiIb5hNrAgvGO5LpHXS2NSZMBZadF+0n+GRpXiVyXX6fEMA3gsluTOs3NKc+s717FWN+youhejKpSfZwrA7YPUSH1bIJ3BjcNGdFk/IcS2WYZejwUzrAbRgmKfd/8/2sxQ7VkU5s1KhaYmt2DvW0zLiWMa6K+kTWJ6p8yq3mMl2zFLEEzos8SvE+HBS5kX7Z+Z/dVW81M6S6wSS3XV/ip5mnKZM4aUhoc3PMReWWydBTvan+GnGacoUXhoS+stu//8CUAi0vLGczRYAAAAASUVORK5CYII=;" vertex="1" parent="1">
          <mxGeometry x="660" y="-208" width="92.58" height="96.5" as="geometry" />
        </mxCell>
        <mxCell id="8jfeb4-xBnSfNOuZoPy4-66" value="&lt;h1&gt;&amp;nbsp; &amp;nbsp; &amp;nbsp; Public vs Private cluster&lt;/h1&gt;&lt;p&gt;&lt;/p&gt;&lt;ul&gt;&lt;li&gt;We use a public Kafka cluster (i.e., not &quot;hidden&quot; behind Azure Private Link) and whitelist outbound/inbound topics shared with PIMCO.&lt;/li&gt;&lt;li&gt;Those topics are mirrored back/forth to the private cluster against which our applications are running&lt;/li&gt;&lt;/ul&gt;&lt;p&gt;&lt;/p&gt;" style="text;html=1;strokeColor=none;fillColor=none;spacing=5;spacingTop=-20;whiteSpace=wrap;overflow=hidden;rounded=0;" vertex="1" parent="1">
          <mxGeometry x="531.29" y="-778" width="350" height="150" as="geometry" />
        </mxCell>
        <mxCell id="8jfeb4-xBnSfNOuZoPy4-74" style="edgeStyle=orthogonalEdgeStyle;rounded=0;orthogonalLoop=1;jettySize=auto;html=1;entryX=0.5;entryY=-0.002;entryDx=0;entryDy=0;entryPerimeter=0;" edge="1" parent="1" source="8jfeb4-xBnSfNOuZoPy4-68" target="8jfeb4-xBnSfNOuZoPy4-73">
          <mxGeometry relative="1" as="geometry" />
        </mxCell>
        <mxCell id="8jfeb4-xBnSfNOuZoPy4-68" value="Db Triggers" style="sketch=0;aspect=fixed;pointerEvents=1;shadow=0;dashed=0;html=1;strokeColor=none;labelPosition=center;verticalLabelPosition=bottom;verticalAlign=top;align=center;shape=mxgraph.mscae.enterprise.triggers;fillColor=#0078D7;" vertex="1" parent="1">
          <mxGeometry x="1350" y="-515" width="47" height="50" as="geometry" />
        </mxCell>
        <mxCell id="8jfeb4-xBnSfNOuZoPy4-75" style="edgeStyle=orthogonalEdgeStyle;rounded=0;orthogonalLoop=1;jettySize=auto;html=1;" edge="1" parent="1" source="8jfeb4-xBnSfNOuZoPy4-69">
          <mxGeometry relative="1" as="geometry">
            <mxPoint x="1500" y="-350" as="targetPoint" />
          </mxGeometry>
        </mxCell>
        <mxCell id="8jfeb4-xBnSfNOuZoPy4-69" value="Db Triggers" style="sketch=0;aspect=fixed;pointerEvents=1;shadow=0;dashed=0;html=1;strokeColor=none;labelPosition=center;verticalLabelPosition=bottom;verticalAlign=top;align=center;shape=mxgraph.mscae.enterprise.triggers;fillColor=#0078D7;" vertex="1" parent="1">
          <mxGeometry x="1350" y="-321" width="47" height="50" as="geometry" />
        </mxCell>
        <mxCell id="8jfeb4-xBnSfNOuZoPy4-82" style="edgeStyle=orthogonalEdgeStyle;rounded=0;orthogonalLoop=1;jettySize=auto;html=1;" edge="1" parent="1" source="8jfeb4-xBnSfNOuZoPy4-73">
          <mxGeometry relative="1" as="geometry">
            <mxPoint x="1620" y="-406.5" as="targetPoint" />
          </mxGeometry>
        </mxCell>
        <mxCell id="8jfeb4-xBnSfNOuZoPy4-73" value="PostgreSql cdc &lt;br&gt;source table" style="aspect=fixed;html=1;points=[];align=center;image;fontSize=12;image=img/lib/azure2/databases/Azure_Cosmos_DB.svg;imageBackground=#663300;" vertex="1" parent="1">
          <mxGeometry x="1470" y="-438.5" width="64" height="64" as="geometry" />
        </mxCell>
        <mxCell id="8jfeb4-xBnSfNOuZoPy4-84" style="edgeStyle=orthogonalEdgeStyle;rounded=0;orthogonalLoop=1;jettySize=auto;html=1;" edge="1" parent="1" source="8jfeb4-xBnSfNOuZoPy4-76">
          <mxGeometry relative="1" as="geometry">
            <mxPoint x="1850" y="-407" as="targetPoint" />
          </mxGeometry>
        </mxCell>
        <mxCell id="8jfeb4-xBnSfNOuZoPy4-76" value="Debezium PostGreSql &#xa;CDC &#xa;Connector" style="shape=image;verticalLabelPosition=bottom;labelBackgroundColor=default;verticalAlign=top;aspect=fixed;imageAspect=0;image=data:image/png,iVBORw0KGgoAAAANSUhEUgAAAOEAAADhCAMAAAAJbSJIAAAAh1BMVEX///8AAADz8/MfHx/j4+O9vb3s7Oz29valpaX6+vrCwsLLy8vn5+fU1NTY2Nh3d3cvLy9NTU2Tk5Otra1hYWE8PDwUFBSnp6e+vr6Xl5eHh4dVVVWNjY20tLTc3NzIyMhra2tFRUU2NjYmJiZqamoNDQ18fHxdXV2WlpYaGhpUVFRJSUlBQUEtgZoMAAANCElEQVR4nO1cZ3uzOgwFmgHZOw2B7NH1/3/fBSzZ8iAhTXLbt4/Op2LA+Fiylp16HoPBYDAYDAaDwWAwGAwGg8FgMBgMBoPBYDAYDAaDwWAwGAwGg8FgMBgMBoPB+NfRWKfjdN346WE8C83FzhfYhc2fHswzsPApFj89nIcjmPo6psFPD+mxaPg2/tRyjI4OhrOfHtUjcXAQ9P3NTw/rcWgjp23aW637kmL3pwf2MHwCo7q4bHzB9edNvURhgW9bqKge9/th2hFX86Kz2nc707ECQivZ8mG1VEAg3vnuoEbwzQ9xqc35vXgTvYWqJfqOV7yPIeqRPxHXL49kuBRd0yaY0PMt3dzF8OQ/k6HDcvZE2/GWbu5hSPzx8xiGtAlG65e94sI9DKU1n6HePIHhiDZ1/meGLfFuHHkdGMcTGE5oU/t/ZhgKgqTlGZYmIk39UkvT6HZ7bpd3D8OkeJVGwg9lCIYzUS0136G5GdIJrJaTI9y5h2Hf0piHMgTD6afY0HyHFt3jj32Cr7bZzT0Mh8WrVDceytDD3BCk2J7B9ZQ+FHz5OjZGL/cwnD6ZYUuOOosLk528apFnOr6FaaT1cg/DwZMZyjhUx5I8Ebge0GR8F8P9sxlGrvFrxnXgfKJPO7mH4cuzGbp00O+Q+4mToK7H9zCcPZ2h19gbY99T56TCxlEvCHoj9RR56B6Gx+czNMWke0Kk9Al11KbMddbqoV/P0AveUI77hRG1gPsglgUdzIG8/+sZesjEKrJhiENWply4qumXr0P6IYthKsauxeYTi7XJMBKgGwSd13E47zrCWsGnabUohtCZsu+dVklfF1HCUET+/pi2YQingjeDIaYnMnrvSAM1zAde3/QzbLIhpvWW4JO2crQdDNHU7YBhI3H0ddAjkG8wXNO2tW826gxRs4d4O/YJdh3cJ2lg9iaxtBlGECjvL/dVYT+phOHcN1QmQ/2yDDEGQuNkOdzevIzhxGYIdm0mKFhbEL2wIsMaPHg0i4igkZoHQZVTz2oMIbidgeKsfAuT6gxxzQsX3bS3ICaVGM5pYHbSLCKM74W2vcCTqoUyHMJcBdotF2yGHyZDrMPBmLalfV1k+GpOzLIn79XO0EaKVSButcw0hrgxgIZWBgiDxbrbTTc6wyiCV4NOjobBED/V1b/sH+NWu1s/kb4uMIwmvg3IFhtkPNKsoJ3x5y6GuNmKk5Ti0xjGBkvKMFM88TcdkmTY0t+VSQJa9kjts5QzDGa+C7l8mietKSnULlARHjHQkiESkkYIut+Sh6U1vMYQVzASAhG+k2Ukaw+lDF3bo2JIwZvV9hnHn+qK1HaQYQOLItL0omfUBoBSvMywhStY7i+ACdOMYez6AIG+PeraKy2FZntgMKjASn9jg3GBbiWGKZg/WWeEj+iJAU5DGUO1Bidpo+kFtdDc0y9FzfUdASLdoT1+T6ruZYaAjWxuk7cUPi4ylEWaTzXetbkwt73Qt6GXFDWGG3JDdKbVA9SoqjAkBlusuZ3RV3KRIVYOT7QxImstC5bWnlFLLGAEBhrDGbEqoiXUn0bdrSRDJbLQOVvjSwzR8MVG+1Z2/w511JrG2u+bcS4wBBUn5XLRMDYeP1VhCAquZGaX/68yhD6GZnsTmRCP11VL9mSngcBwdTQZiQazfn6owrD7acy/4DIx+roUeaNq2fvZqJW0IOVF3XncH4171tOqq0bXfHHoHNWuCsM2jg+XvLA0L0Zf/QsMX8W9peOW79auUgRIDNb9AG+c7PGrqb3CUK6iSHvNEMiRMOwk50lCxJKU04CJMVf1dYYoHlQtSLT0QwEY2V1jiNqM63rmUAh0BznDsT8ZjyfErm0MjSKA2bNW6HWGGCS1tRvaxGOCfJ0hOk4QApjglDwqQ9VmrsVrLwqyuFmG0EMiXwPgXE2dr8DQVC00UGr5dqTDvc4Qo0AhBYxTVYTUlBstGYvPQ7G6vIkUzFYbigawGJVPKxCGqBqgWjL/TSBfJOHDdYao0OAyMJXrg5Osq74yhlkK4q/afqclO4PIwlWyggBz6rh1lSHGEaBaKkE5L+YLLVWrwBDTSxEIqjxhOQoXfRp95Qy7nr9//8jEgx3Bt10n2GCiD7Qt6pUfk9YYothggZdHulUY4kIWV3ZwRRm+ev46nGU+AjsCDTDdcY6tuEVMYBvPMB4dDl9naKhWoAVhBSrFpWCrwKfBYoqtvpaS4efEG7S8fVutQ1hsDnOC1TEp3tWWdnqwFFtniDYMXEakvZxP3PgGhui5JtrsSWy6kmE7E6KXL06llfCQ7RCxeIHSspKLlvGCwRBVC822PqyQ1EsrMDTWdfud9tVHs597hLm/XIQfNBlFI2CKRJ5S8s/FGB07iEa2kFE6vgzUrtx68JVh+oV2OhjJ7Lrf8TSGgc3w6B/f9y9KgURnA+xdVQbPPWkUCw6dZDJZUEuBJmGgOwytwDkLo7lNUHe7ldALk34yd63hRqNTu+msp1cbZ32FzgjZAPqXFxrXrF2EbLhCod8H5V/QH3s1V3FRYBeu16rKUTmi+1kQBfxYjNfz5EKZ5lW8Iisf/8hJ8H4poaFxLRcwupLNz436JpQp5SYLIOgJBnLQC6VodtWej+JR+vvWp1uKojbVlhX4LX0FzoBp9m8lNwBmv+53U6nNT3n0Dphbzf9BAEAdhrYBMLvN9j8fwcngF5MQYG5QzgGhIqlTbY0eHvRbiVtQ/xoOt0nZ3YCUugcjLSV2MWyZDM8GwduOwT8GRax7qezSEGHVzIzgxpa87NMLmNPEaT11afX/gqsMoSRiJRoQumuWBnQSHSLUSqBmJ0Ki///Hb99miNVh4i0wrENtFiKV9YCRRj/vYtXuuX1Iw7lea1aWHXUcHXS6rS5pLQzmyXqKoIShPH8qP4uh3gc2iFBfxsFCpDKvhiU+i+VoFqPRKIm8VaHQO8h1VknWmoVN8yJ12hCSjVj45TMNopoxlDCSYp67iaiPbLO+k7KTRGUMZbUHpCgDc/1EDynp5J7xCNkvFsFzvMH9gkMkc04x74X1iiN53Fo6HHUYkkiIZgc5ca26URJzgH08WofUPRnZfIatVii3aPb6m3SLo15DBX6lX8ayTyFzEhG3FEMVKuJUHxwdkKPbORoGQ2cpie5omyFJ23dCToXIj51O3jwrNFcMCab2oH2MJ0DSU5hYoTdYQoAC0OS6DA0O70bWYFd/fLrJJcI1584IuI4kDYFVRBgeWl0Yf0AYhu2WENtZcYmzzqNiFEJxDnIKzvB+N3krwpaSdWhv8RqVm431gL9Rd4sl7nTxQoTiGIaQ9FwxHKu5bUuG+0j26Mu3YDIP+GhDEoQZKP4syuNuW+rawzYoWlKk25TbvMHp/0IpIQ+2bJaSIUxR8cRaMhQGuS0ZFjYAaiyF0cpNdEo+mKUG+0Mqbzv9obUA5LQS6Jv7M+2kYpF/vLu6Lu7gVtFYDnuArPARKUOwXit8tJCWDDbyi1x3+0RaHWlWShm6f4xgJ3+qwDWY63fEqnDtfgyoOgiVrWEzWKahxhAqIz0cQSHM2W4gUHzcg+TNStFKGUoFjHuR12hJZ2AneZ00iePEznBFguky0YXgMWYXU7m6iSHZeQHssNs382NlDFGEMxy4XJWOEbshPJtZI5Z9t7Wr3k0MbRORy7D4w9qLKGOI6a8SAdan1/bDbojxbFSD0IMmcMJ+viPDYu0Ox6FCrvP7m2QINQyarkPgdDGIpQA1UA7xiAMc0K5rciarMyyCM20DLEcRKWOuWxxyv8Rwb6vkrTvc4L6kAxHGOfcLSyrcQpkLt1mdYU0bHJIpTMcX6XUpGTrEIthom/+YO1RmCCERGk0hwtzgCgcBVnYg57g6QyEA0IIQ57Huqw7OklcxCsdPe319/knbDb90BgNcbCx2B0ppRW65KZ4RmtG9kaGIhAorKCa+JbsdNCXZIloVTtROOH0yCADmvNUZqgBb7jAJgYoBDtLeWmiyYHADQxjLKa3HZFBQOdvE9D9CgDmYbo3zQSJW0c77QUr3VZ2hHReh2htpRHArQ3NbG1aCs1HmWbrHhqCa5j5gXivb0hxGdiJNmv7DvxWhXZGhvneJ/dZo4wa/hQ36cV0wnKTQhEdYXm9hqNVcd8T7RyovOaPPnRGG2/zv3GUWufLUZkjjGhUuNlT9UlX18FfaulXBZFLOulxTFX5IpKGZbrYvs+15YWxc1kYf++PXeaHUpJYDz6o1MuR/N/NG1K+8UcUg9c1wt/uajLUR1cLJcDc96/9d7nWU9OOxYW1w2+JTjEDqvXmM89+FOt07OJzUTyGq/FLqX4H7EM7N2/S/GY4axW2G9PfD3kH8O4sQYCrqn1JRgYCKsf+HjAxBMD7kp6leNunf5Af4Y//Uk8FgMBgMBoPBYDAYDAaDwWAwGAwGg8FgMBgMBoPBYDAYDAaDwWAwGAwGg8FgMBgMBoPB+NfwH9WSn+7R9x8tAAAAAElFTkSuQmCC;" vertex="1" parent="1">
          <mxGeometry x="1630" y="-460" width="106" height="106" as="geometry" />
        </mxCell>
        <mxCell id="8jfeb4-xBnSfNOuZoPy4-77" value="Public&lt;br&gt;Confluent Cloud&lt;br&gt;Kafka cluster" style="rounded=0;whiteSpace=wrap;html=1;dashed=1;fillColor=#f5f5f5;fontColor=#333333;strokeColor=#666666;labelPosition=center;verticalLabelPosition=top;align=center;verticalAlign=bottom;" vertex="1" parent="1">
          <mxGeometry x="2430" y="-467.5" width="170" height="150" as="geometry" />
        </mxCell>
        <mxCell id="8jfeb4-xBnSfNOuZoPy4-78" value="PIMCO compliant &#xa;output topics" style="shape=image;verticalLabelPosition=bottom;labelBackgroundColor=#ffffff;verticalAlign=top;aspect=fixed;imageAspect=0;image=data:image/svg+xml,PHN2ZyB4bWxuczpjYz0iaHR0cDovL2NyZWF0aXZlY29tbW9ucy5vcmcvbnMjIiB4bWxuczpkYz0iaHR0cDovL3B1cmwub3JnL2RjL2VsZW1lbnRzLzEuMS8iIHhtbG5zOmlua3NjYXBlPSJodHRwOi8vd3d3Lmlua3NjYXBlLm9yZy9uYW1lc3BhY2VzL2lua3NjYXBlIiB4bWxuczpyZGY9Imh0dHA6Ly93d3cudzMub3JnLzE5OTkvMDIvMjItcmRmLXN5bnRheC1ucyMiIHhtbG5zOnNvZGlwb2RpPSJodHRwOi8vc29kaXBvZGkuc291cmNlZm9yZ2UubmV0L0RURC9zb2RpcG9kaS0wLmR0ZCIgeG1sbnM6c3ZnPSJodHRwOi8vd3d3LnczLm9yZy8yMDAwL3N2ZyIgeG1sbnM9Imh0dHA6Ly93d3cudzMub3JnLzIwMDAvc3ZnIiB4bWxuczp4bGluaz0iaHR0cDovL3d3dy53My5vcmcvMTk5OS94bGluayIgdmVyc2lvbj0iMS4xIiBpZD0ic3ZnODM4NzMiIGlua3NjYXBlOnZlcnNpb249IjAuOTIuMyAoMjQwNTU0NiwgMjAxOC0wMy0xMSkiIHNvZGlwb2RpOmRvY25hbWU9InF1ZXVlLnN2ZyIgeD0iMHB4IiB5PSIwcHgiIHZpZXdCb3g9IjAgMCAxMDguNTMgNTIuODQiIHN0eWxlPSJlbmFibGUtYmFja2dyb3VuZDpuZXcgMCAwIDEwOC41MyA1Mi44NDsiIHhtbDpzcGFjZT0icHJlc2VydmUiPiYjeGE7PHNvZGlwb2RpOm5hbWVkdmlldyBib3JkZXJjb2xvcj0iIzY2NjY2NiIgYm9yZGVyb3BhY2l0eT0iMSIgZml0LW1hcmdpbi1ib3R0b209IjAiIGZpdC1tYXJnaW4tbGVmdD0iMCIgZml0LW1hcmdpbi1yaWdodD0iMCIgZml0LW1hcmdpbi10b3A9IjAiIGdyaWR0b2xlcmFuY2U9IjEwIiBndWlkZXRvbGVyYW5jZT0iMTAiIGlkPSJuYW1lZHZpZXc4Mzg3NSIgaW5rc2NhcGU6Y3VycmVudC1sYXllcj0ic3ZnODM4NzMiIGlua3NjYXBlOmN4PSI4Ny44NDUyMjIiIGlua3NjYXBlOmN5PSItNy44NDQ4OTU4IiBpbmtzY2FwZTpwYWdlb3BhY2l0eT0iMCIgaW5rc2NhcGU6cGFnZXNoYWRvdz0iMiIgaW5rc2NhcGU6d2luZG93LWhlaWdodD0iMTAxNyIgaW5rc2NhcGU6d2luZG93LW1heGltaXplZD0iMSIgaW5rc2NhcGU6d2luZG93LXdpZHRoPSIxOTIwIiBpbmtzY2FwZTp3aW5kb3cteD0iLTgiIGlua3NjYXBlOndpbmRvdy15PSItOCIgaW5rc2NhcGU6em9vbT0iMy41MjA3MTQyIiBvYmplY3R0b2xlcmFuY2U9IjEwIiBwYWdlY29sb3I9IiNmZmZmZmYiIHNob3dncmlkPSJmYWxzZSI+JiN4YTsJPC9zb2RpcG9kaTpuYW1lZHZpZXc+JiN4YTs8ZyBpZD0iZzgzODcxIiB0cmFuc2Zvcm09InRyYW5zbGF0ZSgwLC00Ljc1MjM3MTJlLTUpIj4mI3hhOwk8dGl0bGUgaWQ9InRpdGxlODM4NjQiPlBhZ2UtMTwvdGl0bGU+JiN4YTsJPGcgaWQ9InNoYXBlNDUwMy0xIj4mI3hhOwkJPHRpdGxlIGlkPSJ0aXRsZTgzODY2Ij5RdWV1ZTwvdGl0bGU+JiN4YTsJCTxwYXRoIGlkPSJwYXRoODM4NjgiIGlua3NjYXBlOmNvbm5lY3Rvci1jdXJ2YXR1cmU9IjAiIHN0eWxlPSJmaWxsOiMzRjU3NjU7IiBkPSJNMTA2LjI1LDBDMi4yOSwwLDIuMjksMCwyLjI5LDAgICAgQzEuMTUsMCwwLDEuMTUsMCwyLjI4YzAsNDguMjksMCw0OC4yOSwwLDQ4LjI5YzAsMS4xNCwxLjE1LDIuMjcsMi4yOSwyLjI3YzEwMy45NiwwLDEwMy45NiwwLDEwMy45NiwwICAgIGMxLjMzLDAsMi4yOC0xLjEzLDIuMjgtMi4yN2MwLTQ4LjI5LDAtNDguMjksMC00OC4yOUMxMDguNTMsMS4xNSwxMDcuNTgsMCwxMDYuMjUsMHogTTIyLjY2LDQ2LjE5Yy0xNS44LDAtMTUuOCwwLTE1LjgsMCAgICBjMC0zOS4zNCwwLTM5LjM0LDAtMzkuMzRjMTUuOCwwLDE1LjgsMCwxNS44LDBWNDYuMTl6IE00Mi40Niw0Ni4xOWMtMTUuOTksMC0xNS45OSwwLTE1Ljk5LDBjMC0zOS4zNCwwLTM5LjM0LDAtMzkuMzQgICAgYzE1Ljk5LDAsMTUuOTksMCwxNS45OSwwVjQ2LjE5eiBNNjIuNDYsNDYuMTljLTE2LjE5LDAtMTYuMTksMC0xNi4xOSwwYzAtMzkuMzQsMC0zOS4zNCwwLTM5LjM0YzE2LjE5LDAsMTYuMTksMCwxNi4xOSwwVjQ2LjE5eiAgICAgTTgyLjQ1LDQ2LjE5Yy0xNi4xOSwwLTE2LjE5LDAtMTYuMTksMGMwLTM5LjM0LDAtMzkuMzQsMC0zOS4zNGMxNi4xOSwwLDE2LjE5LDAsMTYuMTksMFY0Ni4xOXogTTEwMi4wNiw0Ni4xOSAgICBjLTE1LjgsMC0xNS44LDAtMTUuOCwwYzAtMzkuMzQsMC0zOS4zNCwwLTM5LjM0YzE1LjgsMCwxNS44LDAsMTUuOCwwVjQ2LjE5eiIvPiYjeGE7CTwvZz4mI3hhOzwvZz4mI3hhOzwvc3ZnPg==;imageBackground=#33FF33;fillColor=#663300;" vertex="1" parent="1">
          <mxGeometry x="2460.5" y="-430.5" width="109" height="53" as="geometry" />
        </mxCell>
        <mxCell id="8jfeb4-xBnSfNOuZoPy4-92" style="edgeStyle=orthogonalEdgeStyle;rounded=0;orthogonalLoop=1;jettySize=auto;html=1;" edge="1" parent="1" source="8jfeb4-xBnSfNOuZoPy4-85">
          <mxGeometry relative="1" as="geometry">
            <mxPoint x="2130" y="-390" as="targetPoint" />
          </mxGeometry>
        </mxCell>
        <mxCell id="8jfeb4-xBnSfNOuZoPy4-85" value="Private&lt;br&gt;Confluent Cloud&lt;br&gt;Kafka cluster" style="rounded=0;whiteSpace=wrap;html=1;dashed=1;fillColor=#f5f5f5;fontColor=#333333;strokeColor=#666666;labelPosition=center;verticalLabelPosition=top;align=center;verticalAlign=bottom;" vertex="1" parent="1">
          <mxGeometry x="1850" y="-465" width="170" height="150" as="geometry" />
        </mxCell>
        <mxCell id="8jfeb4-xBnSfNOuZoPy4-86" value="PostgreSql table&#xa;based avro topics" style="shape=image;verticalLabelPosition=bottom;labelBackgroundColor=#ffffff;verticalAlign=top;aspect=fixed;imageAspect=0;image=data:image/svg+xml,PHN2ZyB4bWxuczpjYz0iaHR0cDovL2NyZWF0aXZlY29tbW9ucy5vcmcvbnMjIiB4bWxuczpkYz0iaHR0cDovL3B1cmwub3JnL2RjL2VsZW1lbnRzLzEuMS8iIHhtbG5zOmlua3NjYXBlPSJodHRwOi8vd3d3Lmlua3NjYXBlLm9yZy9uYW1lc3BhY2VzL2lua3NjYXBlIiB4bWxuczpyZGY9Imh0dHA6Ly93d3cudzMub3JnLzE5OTkvMDIvMjItcmRmLXN5bnRheC1ucyMiIHhtbG5zOnNvZGlwb2RpPSJodHRwOi8vc29kaXBvZGkuc291cmNlZm9yZ2UubmV0L0RURC9zb2RpcG9kaS0wLmR0ZCIgeG1sbnM6c3ZnPSJodHRwOi8vd3d3LnczLm9yZy8yMDAwL3N2ZyIgeG1sbnM9Imh0dHA6Ly93d3cudzMub3JnLzIwMDAvc3ZnIiB4bWxuczp4bGluaz0iaHR0cDovL3d3dy53My5vcmcvMTk5OS94bGluayIgdmVyc2lvbj0iMS4xIiBpZD0ic3ZnODM4NzMiIGlua3NjYXBlOnZlcnNpb249IjAuOTIuMyAoMjQwNTU0NiwgMjAxOC0wMy0xMSkiIHNvZGlwb2RpOmRvY25hbWU9InF1ZXVlLnN2ZyIgeD0iMHB4IiB5PSIwcHgiIHZpZXdCb3g9IjAgMCAxMDguNTMgNTIuODQiIHN0eWxlPSJlbmFibGUtYmFja2dyb3VuZDpuZXcgMCAwIDEwOC41MyA1Mi44NDsiIHhtbDpzcGFjZT0icHJlc2VydmUiPiYjeGE7PHNvZGlwb2RpOm5hbWVkdmlldyBib3JkZXJjb2xvcj0iIzY2NjY2NiIgYm9yZGVyb3BhY2l0eT0iMSIgZml0LW1hcmdpbi1ib3R0b209IjAiIGZpdC1tYXJnaW4tbGVmdD0iMCIgZml0LW1hcmdpbi1yaWdodD0iMCIgZml0LW1hcmdpbi10b3A9IjAiIGdyaWR0b2xlcmFuY2U9IjEwIiBndWlkZXRvbGVyYW5jZT0iMTAiIGlkPSJuYW1lZHZpZXc4Mzg3NSIgaW5rc2NhcGU6Y3VycmVudC1sYXllcj0ic3ZnODM4NzMiIGlua3NjYXBlOmN4PSI4Ny44NDUyMjIiIGlua3NjYXBlOmN5PSItNy44NDQ4OTU4IiBpbmtzY2FwZTpwYWdlb3BhY2l0eT0iMCIgaW5rc2NhcGU6cGFnZXNoYWRvdz0iMiIgaW5rc2NhcGU6d2luZG93LWhlaWdodD0iMTAxNyIgaW5rc2NhcGU6d2luZG93LW1heGltaXplZD0iMSIgaW5rc2NhcGU6d2luZG93LXdpZHRoPSIxOTIwIiBpbmtzY2FwZTp3aW5kb3cteD0iLTgiIGlua3NjYXBlOndpbmRvdy15PSItOCIgaW5rc2NhcGU6em9vbT0iMy41MjA3MTQyIiBvYmplY3R0b2xlcmFuY2U9IjEwIiBwYWdlY29sb3I9IiNmZmZmZmYiIHNob3dncmlkPSJmYWxzZSI+JiN4YTsJPC9zb2RpcG9kaTpuYW1lZHZpZXc+JiN4YTs8ZyBpZD0iZzgzODcxIiB0cmFuc2Zvcm09InRyYW5zbGF0ZSgwLC00Ljc1MjM3MTJlLTUpIj4mI3hhOwk8dGl0bGUgaWQ9InRpdGxlODM4NjQiPlBhZ2UtMTwvdGl0bGU+JiN4YTsJPGcgaWQ9InNoYXBlNDUwMy0xIj4mI3hhOwkJPHRpdGxlIGlkPSJ0aXRsZTgzODY2Ij5RdWV1ZTwvdGl0bGU+JiN4YTsJCTxwYXRoIGlkPSJwYXRoODM4NjgiIGlua3NjYXBlOmNvbm5lY3Rvci1jdXJ2YXR1cmU9IjAiIHN0eWxlPSJmaWxsOiMzRjU3NjU7IiBkPSJNMTA2LjI1LDBDMi4yOSwwLDIuMjksMCwyLjI5LDAgICAgQzEuMTUsMCwwLDEuMTUsMCwyLjI4YzAsNDguMjksMCw0OC4yOSwwLDQ4LjI5YzAsMS4xNCwxLjE1LDIuMjcsMi4yOSwyLjI3YzEwMy45NiwwLDEwMy45NiwwLDEwMy45NiwwICAgIGMxLjMzLDAsMi4yOC0xLjEzLDIuMjgtMi4yN2MwLTQ4LjI5LDAtNDguMjksMC00OC4yOUMxMDguNTMsMS4xNSwxMDcuNTgsMCwxMDYuMjUsMHogTTIyLjY2LDQ2LjE5Yy0xNS44LDAtMTUuOCwwLTE1LjgsMCAgICBjMC0zOS4zNCwwLTM5LjM0LDAtMzkuMzRjMTUuOCwwLDE1LjgsMCwxNS44LDBWNDYuMTl6IE00Mi40Niw0Ni4xOWMtMTUuOTksMC0xNS45OSwwLTE1Ljk5LDBjMC0zOS4zNCwwLTM5LjM0LDAtMzkuMzQgICAgYzE1Ljk5LDAsMTUuOTksMCwxNS45OSwwVjQ2LjE5eiBNNjIuNDYsNDYuMTljLTE2LjE5LDAtMTYuMTksMC0xNi4xOSwwYzAtMzkuMzQsMC0zOS4zNCwwLTM5LjM0YzE2LjE5LDAsMTYuMTksMCwxNi4xOSwwVjQ2LjE5eiAgICAgTTgyLjQ1LDQ2LjE5Yy0xNi4xOSwwLTE2LjE5LDAtMTYuMTksMGMwLTM5LjM0LDAtMzkuMzQsMC0zOS4zNGMxNi4xOSwwLDE2LjE5LDAsMTYuMTksMFY0Ni4xOXogTTEwMi4wNiw0Ni4xOSAgICBjLTE1LjgsMC0xNS44LDAtMTUuOCwwYzAtMzkuMzQsMC0zOS4zNCwwLTM5LjM0YzE1LjgsMCwxNS44LDAsMTUuOCwwVjQ2LjE5eiIvPiYjeGE7CTwvZz4mI3hhOzwvZz4mI3hhOzwvc3ZnPg==;imageBackground=#FFFF66;fillColor=#663300;" vertex="1" parent="1">
          <mxGeometry x="1880.5" y="-428" width="109" height="53" as="geometry" />
        </mxCell>
        <mxCell id="8jfeb4-xBnSfNOuZoPy4-93" style="edgeStyle=orthogonalEdgeStyle;rounded=0;orthogonalLoop=1;jettySize=auto;html=1;entryX=0;entryY=0.5;entryDx=0;entryDy=0;" edge="1" parent="1" source="8jfeb4-xBnSfNOuZoPy4-89" target="8jfeb4-xBnSfNOuZoPy4-77">
          <mxGeometry relative="1" as="geometry" />
        </mxCell>
        <mxCell id="8jfeb4-xBnSfNOuZoPy4-89" value="&amp;nbsp; &amp;nbsp; &amp;nbsp; &amp;nbsp;Middleware application" style="shape=image;html=1;verticalAlign=top;verticalLabelPosition=bottom;labelBackgroundColor=#ffffff;imageAspect=0;aspect=fixed;image=https://cdn4.iconfinder.com/data/icons/scripting-and-programming-languages/512/1416364765_java_coffee_x_cup_application-2-128.png" vertex="1" parent="1">
          <mxGeometry x="2150" y="-470" width="155" height="155" as="geometry" />
        </mxCell>
      </root>
    </mxGraphModel>
  </diagram>
</mxfile>
